<svg width="32" height="32" viewBox="0 0 32 32" fill="none" xmlns="http://www.w3.org/2000/svg">
<g clip-path="url(#clip0_7_23)">
<path d="M30.9508 23.7069C31.2197 23.7069 31.4267 23.8507 31.5714 24.1381C31.737 24.4255 31.8197 24.8208 31.8197 25.3238C31.8197 26.258 31.6231 27.0005 31.2301 27.5514C29.1821 30.4497 26.9996 31.8989 24.6827 31.8989C22.6761 31.8989 21.0728 31.0007 19.873 29.2042C18.6732 27.4077 18.0733 24.8327 18.0733 21.4793C18.0733 20.6649 18.1043 19.8505 18.1663 19.0361C16.801 19.3235 15.3116 19.5391 13.698 19.6828C12.6223 19.7786 11.8879 19.8385 11.4948 19.8624C11.0811 22.3057 10.5019 25.2998 9.75714 28.8449C9.32271 30.9288 8.49525 31.9708 7.27471 31.9708C5.95076 31.9708 5.28877 31.2761 5.28877 29.8869C5.28877 29.5756 5.34048 29.1444 5.44393 28.5934C6.14727 25.3118 6.70582 22.5332 7.11956 20.2577L5.63011 20.3295C4.94744 20.3295 4.45096 20.1978 4.14065 19.9343C3.83035 19.6469 3.6752 19.1918 3.6752 18.569C3.6752 17.7785 3.87173 17.2036 4.26477 16.8443C4.65782 16.4611 5.30945 16.2455 6.21968 16.1976L7.86429 16.1257C8.40216 12.7483 8.67108 10.1734 8.67108 8.40083C8.67108 7.27502 8.52628 6.50854 8.23665 6.10132C7.94703 5.69411 7.56434 5.49052 7.08853 5.49052C5.64046 5.49052 4.00618 6.89178 2.18574 9.69431C1.91682 10.1015 1.61685 10.3051 1.28587 10.3051C0.996248 10.3051 0.748006 10.1494 0.541138 9.83803C0.33427 9.52664 0.230835 9.13142 0.230835 8.65234C0.230835 7.9098 0.489422 7.11935 1.00659 6.28097C1.91682 4.81984 3.06494 3.62217 4.45096 2.68799C5.83697 1.72986 7.24368 1.25079 8.67108 1.25079C10.0157 1.25079 11.0501 1.78974 11.7741 2.86764C12.5188 3.92159 12.8912 5.57436 12.8912 7.82596C12.8912 9.81408 12.643 12.5088 12.1465 15.9102L15.1874 15.7305C16.4907 15.6587 17.6078 15.5389 18.5387 15.3712C18.9111 12.7364 19.48 10.2692 20.2454 7.96968C21.0108 5.67017 21.9624 3.80182 23.1002 2.36462C24.2379 0.927429 25.5101 0.208832 26.9169 0.208832C27.9513 0.208832 28.7683 0.687895 29.3683 1.64603C29.9683 2.5802 30.2682 3.8138 30.2682 5.3468C30.2682 11.2872 27.6512 15.4071 22.4175 17.7067C22.3554 18.6648 22.3244 19.6589 22.3244 20.6888C22.3244 23.2039 22.5933 24.9884 23.1312 26.0424C23.6691 27.0963 24.424 27.6233 25.3964 27.6233C26.2447 27.6233 27.0204 27.3718 27.7237 26.8688C28.427 26.3418 29.2236 25.4555 30.113 24.21C30.3613 23.8746 30.6405 23.7069 30.9508 23.7069ZM26.7617 3.33473C26.3067 3.33473 25.8204 3.8138 25.3033 4.77192C24.8068 5.73004 24.331 7.0355 23.8759 8.68827C23.4208 10.341 23.0588 12.1495 22.7899 14.1137C24.4449 13.3232 25.6653 12.1974 26.4514 10.7363C27.2376 9.27514 27.6306 7.3948 27.6306 5.09529C27.6306 4.54436 27.5479 4.1132 27.3823 3.80182C27.2168 3.49043 27.01 3.33473 26.7617 3.33473Z" fill="#22C55E"/>
</g>
<defs>
<clipPath id="clip0_7_23">
<rect width="32" height="32" fill="white"/>
</clipPath>
</defs>
</svg>
