<svg xmlns="http://www.w3.org/2000/svg" version="1.2" baseProfile="tiny" viewBox="0 0 200 182"><g stroke-width="2" fill="none"><path stroke="#a68575" vector-effect="non-scaling-stroke" d="M161.75 159.07q-.09 1.1 1.63-.45.7-.64 1 .26l1.28 3.8a.71.71 0 0 1-.77.93q-1.91-.25-2-2.22a.31.31 0 0 0-.56-.17q-.29.43-.17.8 3.24 9.78 3.35 19.98M162.28 182c-.66-7.27-2.11-12.19-3.13-18.39-1.07-6.56-3.59-15.98-6.98-21.71q-.23-.4 0-.8l1.55-2.64"/><path stroke="#aa958a" vector-effect="non-scaling-stroke" d="m153.72 138.46 5.51-8.28q.27-.41.26-.89-.01-1 .88-1.49.46-.26.67-.74l6.81-15.26q.21-.46.7-.53c2.34-.37 4.83.83 6.28-1.68.94-1.63-.27-3.25-1.99-3.38"/><path stroke="#a97669" vector-effect="non-scaling-stroke" d="m172.84 106.21-1.26-.6"/><path stroke="#aa958a" vector-effect="non-scaling-stroke" d="M171.58 105.61q.07-1.33 1.25-1.9.39-.19.62-.57 1.47-2.49-.27-3.81-1.67-1.28-5.73.16a.53.53 0 0 1-.71-.49c-.33-8.19-10.05-6.78-8.24-2.09a1.21 1.21 0 0 1-1.89 1.39c-4.33-3.48-7.68 4.32-2.49 4.99a.91.91 0 0 1 .71 1.27c-3.93 8.84-9.98 21.2-16.94 27.37q-.35.31-.77.1-.71-.34-.83-.98-.1-.59.51-1.37 8.72-10.98 14.58-23.85.24-.53-.23-.87-3.17-2.28-2.12-6.13.11-.42-.11-.78l-.94-1.53a.46.46 0 0 1 .61-.65l1.25.64a.8.79-54.9 0 0 .94-.17q1.6-1.72 3.97-1.6.52.03.78-.43 1.97-3.5 6.01-4.07.48-.06.61-.53l.36-1.37q.31-1.17.7-.03 1 2.87 4.56 4.79"/><path stroke="#a68575" vector-effect="non-scaling-stroke" d="m167.77 93.1 1.06 2.67q.16.41.6.38l3.47-.22q.44-.03.68-.39c3.35-4.99 2.55-22.44.37-29.47"/><path stroke="#aa958a" vector-effect="non-scaling-stroke" d="M173.95 66.07q7.55-7.17 11.6-15.76c2.43-5.14 6.11-13 5.92-17.96a1.03 1.02 15.5 0 0-.47-.82c-10.62-6.78-28.08-7.09-39.54-4.64q-.49.11-.88-.21-19.36-16.15-44.09-18.72C63.78 3.54 29.64 22.5 22.78 67.04"/><path stroke="#a68575" vector-effect="non-scaling-stroke" d="M22.78 67.04q-8.75 19.1.15 38.02a.42.42 0 0 0 .8-.17l.03-2.51a.48.48 0 0 1 .81-.34l1.27 1.21q.25.24.59.16l1.81-.45"/><path stroke="#aa958a" vector-effect="non-scaling-stroke" d="m28.24 102.96 1.01.26q.54.14.79-.36 1.28-2.59 3.97-3.59.5-.19.65-.7l.45-1.59q.19-.66.85-.47.25.06.39.31c.3.51.04 1.25.16 1.84q.1.49.6.55 3.06.35 4.25 3.14.25.59.86.4 2.5-.78 4.47.88a.74.73 52.8 0 0 .76.11l1.32-.57a.46.46 0 0 1 .55.71l-.94 1.22q-.24.31-.13.69.76 2.53-.41 4.82-.24.48.06.92 3.45 4.98 8.1 8.81c1.33 1.09 2.17 2.22 3.1 3.54a1.13 1.13 0 0 1-1.34 1.7c-3.73-1.47-9.9-9.61-12.44-12.88a1.25 1.17-2 0 0-.31-.27q-.75-.45-1.35-1.14-.4-.47.09-.84l2.08-1.57a.75.74-32.1 0 0 .22-.94l-1.21-2.43q-.39-.78-1.2-.46l-3.09 1.2a.5.49-20.6 0 1-.65-.29l-.98-2.73q-.21-.59-.76-.89-2.56-1.41-4.74.35-.39.31-.54.78l-.7 2.24q-.16.54-.73.56c-1.39.03-2.47-.67-3.7-.49-4.81.73-3.38 4.93-1.12 7.49a.77.76-53.8 0 1 .12.8l-1.17 2.58q-.18.42-.08.87c.79 3.4 2.74 2.59 5.36 3q.52.08.83.52 10 14.34 23.89 25.74"/><path stroke="#a68575" vector-effect="non-scaling-stroke" d="M55.58 146.78q1.47 17.48.77 35.22"/><path stroke="#a96956" vector-effect="non-scaling-stroke" d="M24.26 48.86c2.51-6.68 6.59-15.06 11.78-20.27q1.68-1.68 2.9-3"/><path stroke="#aa958a" vector-effect="non-scaling-stroke" d="m38.94 25.59 2.95-3.39q.31-.36-.17-.36c-7.9-.07-23.96 1.63-29.25 7.69q-.32.37-.22.86 2.44 12.05 10.11 21.64.47.59.74-.12l1.16-3.05"/><path stroke="#ffd4cb" vector-effect="non-scaling-stroke" d="M38.94 25.59q-8.1 1.66-16.34 3.92c-3.33.92-6.13 1.25-4.81 5.42q2.34 7.36 6.47 13.93"/><path stroke="#fcf0eb" vector-effect="non-scaling-stroke" d="M173.95 66.07c.07 3.83.15 6.57-1.16 10.39-1.95 5.66-2.13 11.1-5.02 16.64"/><path stroke="#ffe0df" vector-effect="non-scaling-stroke" d="M171.58 105.61c-8.58 1.01.73 9.89 1.26.6"/><path stroke="#fcf0eb" vector-effect="non-scaling-stroke" d="M153.72 138.46q-1.78 1.43-2.73 3.45-.22.46.06.9c1.95 2.97 1.99 6.43 2.63 9.07q3.57 14.84 4.1 30.12M58.72 182c-.2-1.83-.32-3.42-.03-5.33q2.4-15.86-3.11-29.89M28.24 102.96q-6.57-13.17-5.1-27.91.47-4.64-.36-8.01"/><path stroke="#ffd4cb" vector-effect="non-scaling-stroke" d="M167.5 40.21a.93.76 15.5 0 1-1.25.55l-5.38-2.24a.17.17 0 0 0-.19.28l10.42 10.34a1.13.72-62.4 0 1 .09 1.05q-.05.14-.3.1c-.39-.05-4.76-3.42-5.69-3.91a.17.17 0 0 0-.23.22l7.27 14.61a.56.55 52 0 0 .92.12q9.33-10.92 13.87-24.53a1.4 1.39-69.8 0 0-.8-1.74q-14.48-5.86-29.95-3.93a.68.68 0 0 0-.21 1.29q5.66 2.68 10.71 7.03.73.62.72.76"/><path stroke="#aa958a" vector-effect="non-scaling-stroke" d="M66.805 64.098a3.89 1 65.8 0 0-.683-3.958 3.89 1 65.8 0 0-2.507-3.138 3.89 1 65.8 0 0 .683 3.958 3.89 1 65.8 0 0 2.507 3.138M107.709 59.94a.75.75 0 0 0-.052-1.059l-.06-.053a.75.75 0 0 0-1.059.051l-4.406 4.86a.75.75 0 0 0 .051 1.06l.06.053a.75.75 0 0 0 1.059-.052l4.406-4.86M64.36 71.41a6.07 6.07 0 0 0-6.07-6.07 6.07 6.07 0 0 0-6.07 6.07 6.07 6.07 0 0 0 6.07 6.07 6.07 6.07 0 0 0 6.07-6.07M118.71 72.68a6.36 6.36 0 0 0-6.36-6.36 6.36 6.36 0 0 0-6.36 6.36 6.36 6.36 0 0 0 6.36 6.36 6.36 6.36 0 0 0 6.36-6.36"/><path stroke="#fcf0eb" vector-effect="non-scaling-stroke" d="M47.53 75.395a6.96 4.96.7 0 0-6.9-5.045 6.96 4.96.7 0 0-7.02 4.875 6.96 4.96.7 0 0 6.9 5.045 6.96 4.96.7 0 0 7.02-4.875"/><path stroke="#aa958a" vector-effect="non-scaling-stroke" d="M90.09 79.26q2.1-.38 3.34-2.12a.7.7 0 0 0-1.03-.94c-3.7 3.22-6.68-.09-9.21-2.81q-.38-.42-.77-.01-2.56 2.67-6.25 2.39-.68-.05-.46.59.37 1.08 1.61 1.11.49.01.5.5c.15 5.19 1.83 20.91 6.48 23.97 6.27 4.13 5.4-19.5 5.25-22a.65.64-6.9 0 1 .54-.68"/><path stroke="#fcf0eb" vector-effect="non-scaling-stroke" d="M136.62 78.931a7.02 4.98-.4 0 0-7.055-4.93 7.02 4.98-.4 0 0-6.985 5.028 7.02 4.98-.4 0 0 7.055 4.93 7.02 4.98-.4 0 0 6.985-5.028"/><path stroke="#ffe0df" vector-effect="non-scaling-stroke" d="M162.141 100.137a2.53 2.15 99.3 0 0 2.53-2.15 2.53 2.15 99.3 0 0-1.712-2.844 2.53 2.15 99.3 0 0-2.53 2.15 2.53 2.15 99.3 0 0 1.712 2.844M158.38 100.06l-2.51-1.17a.77.77 0 0 0-1.03.37l-.25.53a2.34 2.01-64.9 0 0 .83 2.97l.27.13a2.34 2.01-64.9 0 0 2.81-1.27l.25-.53a.77.77 0 0 0-.37-1.03M167.664 103.884a2.44 2.17 133.7 0 0 3.255-.265 2.44 2.17 133.7 0 0 .117-3.263 2.44 2.17 133.7 0 0-3.255.265 2.44 2.17 133.7 0 0-.117 3.263M164.27 102.18c-3.51-1.18-5.14.82-7.52 3.57-3.55 4.11 3.04 7.52 6.72 6.74a1.38 1.37 11.8 0 0 .83-.54q3.13-4.29.7-9.13-.23-.47-.73-.64M37.97 106.78a2.27 2.27 0 0 0-2.27-2.27 2.27 2.27 0 0 0-2.27 2.27 2.27 2.27 0 0 0 2.27 2.27 2.27 2.27 0 0 0 2.27-2.27M42.84 110.29l-.09-2.26a.76.76 0 0 0-.79-.73l-.77.03a2.45 1.85-2.3 0 0-2.37 1.95v.08a2.45 1.85-2.3 0 0 2.53 1.75l.76-.03a.76.76 0 0 0 .73-.79M32.04 109.71q-.79-1.72-2.79-2.15-.38-.08-.66.2c-2.16 2.2-.35 5.64 2.64 4.2a1.7 1.7 0 0 0 .81-2.25M38.17 120.58l3.62-2.66a1.99 1.99 0 0 0 .43-2.78l-.78-1.07a6.49 4.21 53.7 0 0-7.24-2.74l-.05.04a6.49 4.21 53.7 0 0 .45 7.72l.79 1.07a1.99 1.99 0 0 0 2.78.42M31.8 117.75l-.21-2.83a.82.82 0 0 0-.88-.76l-.49.04a2.63 2.1-4.3 0 0-2.46 2.29l.02.28a2.63 2.1-4.3 0 0 2.78 1.89l.48-.03a.82.82 0 0 0 .76-.88"/><path stroke="#a68575" vector-effect="non-scaling-stroke" d="m81.41 76.07-1.69.98q-.47.27-.31.78l.42 1.42"/><path stroke="#a95947" vector-effect="non-scaling-stroke" d="M79.83 79.25q-.17 11.28 4.85 21.31a.66.66 0 0 0 1.01.21c2.74-2.31 2.34-16.08 2.18-18.47q-.07-1.04-.62-1.36"/><path stroke="#aa958a" vector-effect="non-scaling-stroke" d="m87.25 80.94.72-1.15q.28-.45-.11-.8-.83-.72-1.97-.57"/><path stroke="#a95947" vector-effect="non-scaling-stroke" d="M85.89 78.42q-3.09-3.71-4.48-2.35"/><path stroke="#ffc4bd" vector-effect="non-scaling-stroke" d="m85.89 78.42-.11 2.3q-.03.5.47.54.58.04 1-.32"/><path stroke="#fbb4a8" vector-effect="non-scaling-stroke" d="M79.83 79.25q1.97-.25 1.58-3.18"/><path stroke="#a68575" vector-effect="non-scaling-stroke" d="M174.83 141.99q-2.74 1.95-.63 4.62a.79.79 0 0 0 1.27-.04q1.15-1.67-.2-4.89M179.09 143.35q-1.8 1.69-.91 3.53a1.06 1.05-6.2 0 0 .74.59q1.42.31 1.89-1.93M184.04 149.46q-2.11-2.21-4.89.33a1.04 1.04 0 0 0 .52 1.79q1.97.34 4.23-1.51"/><path stroke="#fbc4b7" vector-effect="non-scaling-stroke" d="M182.87 152.61q.49.32-.84.84"/><path stroke="#a68575" vector-effect="non-scaling-stroke" d="M182.03 153.45q-3.12.25-3.09 2.03.01.56.5.83 1.28.7 3.05-.42"/><path stroke="#fbc4b7" vector-effect="non-scaling-stroke" d="m182.49 155.89.5.4"/><path stroke="#a68575" vector-effect="non-scaling-stroke" d="m181.91 158.54-2.13-.08a1.01 1.01 0 0 0-.82 1.65q.83 1.01 2.8.6M179.17 174.33q-1.81-1.79-3.47-1.11a.93.93 0 0 0-.44 1.35q.77 1.25 2.7 1.48M176 179.97q.35-1.85-1.24-2.73-.97-.53-1.66.31-.34.43-.18.94.77 2.4 3.02 1.99M172.69 182q-.39-1.78-1.46-1.74-.53.02-.61.55-.15 1.02-.93 1.19M163.3 155.3q.21-.05.38-.06.48-.04.6.42.54 2.08 2.39 2.89a.76.75-79 0 0 1.06-.72q-.12-3.24-3.09-4.97M166.04 151.51q.35-.32.72-.26.25.05.53.44 1.08 1.49 2.67.43.44-.28.2-.75-1.69-3.38-4.15-2.2M168.78 145.97l.36.03q.26.03.34.29.51 1.66 1.93 2.59a.97.96 11.4 0 0 1.48-.98q-.52-2.89-3.12-2.98M181.124 164.787a1.84 1.33 30.6 0 0-.907-2.082 1.84 1.33 30.6 0 0-2.26.208 1.84 1.33 30.6 0 0 .906 2.082 1.84 1.33 30.6 0 0 2.26-.208M178.81 168.44q-1.13-.92-2.18.11a.92.91 52.7 0 0-.14 1.1q.68 1.18 2.17 1.74a1.26 1.25-3 0 0 1.57-1.74q-.62-1.2-1.42-1.21"/><path stroke="#a96956" vector-effect="non-scaling-stroke" d="M182.49 155.89q.36-.4.58-.89.26-.58.04-1-.28-.54-1.08-.55"/></g><path fill="#542a14" d="M161.75 159.07q-.09 1.1 1.63-.45.7-.64 1 .26l1.28 3.8a.71.71 0 0 1-.77.93q-1.91-.25-2-2.22a.31.31 0 0 0-.56-.17q-.29.43-.17.8 3.24 9.78 3.35 19.98h-3.23c-.66-7.27-2.11-12.19-3.13-18.39-1.07-6.56-3.59-15.98-6.98-21.71q-.23-.4 0-.8l1.55-2.64 5.51-8.28q.27-.41.26-.89-.01-1 .88-1.49.46-.26.67-.74l6.81-15.26q.21-.46.7-.53c2.34-.37 4.83.83 6.28-1.68.94-1.63-.27-3.25-1.99-3.38l-1.26-.6q.07-1.33 1.25-1.9.39-.19.62-.57 1.47-2.49-.27-3.81-1.67-1.28-5.73.16a.53.53 0 0 1-.71-.49c-.33-8.19-10.05-6.78-8.24-2.09a1.21 1.21 0 0 1-1.89 1.39c-4.33-3.48-7.68 4.32-2.49 4.99a.91.91 0 0 1 .71 1.27c-3.93 8.84-9.98 21.2-16.94 27.37q-.35.31-.77.1-.71-.34-.83-.98-.1-.59.51-1.37 8.72-10.98 14.58-23.85.24-.53-.23-.87-3.17-2.28-2.12-6.13.11-.42-.11-.78l-.94-1.53a.46.46 0 0 1 .61-.65l1.25.64a.8.79-54.9 0 0 .94-.17q1.6-1.72 3.97-1.6.52.03.78-.43 1.97-3.5 6.01-4.07.48-.06.61-.53l.36-1.37q.31-1.17.7-.03 1 2.87 4.56 4.79l1.06 2.67q.16.41.6.38l3.47-.22q.44-.03.68-.39c3.35-4.99 2.55-22.44.37-29.47q7.55-7.17 11.6-15.76c2.43-5.14 6.11-13 5.92-17.96a1.03 1.02 15.5 0 0-.47-.82c-10.62-6.78-28.08-7.09-39.54-4.64q-.49.11-.88-.21-19.36-16.15-44.09-18.72C63.78 3.54 29.64 22.5 22.78 67.04q-8.75 19.1.15 38.02a.42.42 0 0 0 .8-.17l.03-2.51a.48.48 0 0 1 .81-.34l1.27 1.21q.25.24.59.16l1.81-.45 1.01.26q.54.14.79-.36 1.28-2.59 3.97-3.59.5-.19.65-.7l.45-1.59q.19-.66.85-.47.25.06.39.31c.3.51.04 1.25.16 1.84q.1.49.6.55 3.06.35 4.25 3.14.25.59.86.4 2.5-.78 4.47.88a.74.73 52.8 0 0 .76.11l1.32-.57a.46.46 0 0 1 .55.71l-.94 1.22q-.24.31-.13.69.76 2.53-.41 4.82-.24.48.06.92 3.45 4.98 8.1 8.81c1.33 1.09 2.17 2.22 3.1 3.54a1.13 1.13 0 0 1-1.34 1.7c-3.73-1.47-9.9-9.61-12.44-12.88a1.25 1.17-2 0 0-.31-.27q-.75-.45-1.35-1.14-.4-.47.09-.84l2.08-1.57a.75.74-32.1 0 0 .22-.94l-1.21-2.43q-.39-.78-1.2-.46l-3.09 1.2a.5.49-20.6 0 1-.65-.29l-.98-2.73q-.21-.59-.76-.89-2.56-1.41-4.74.35-.39.31-.54.78l-.7 2.24q-.16.54-.73.56c-1.39.03-2.47-.67-3.7-.49-4.81.73-3.38 4.93-1.12 7.49a.77.76-53.8 0 1 .12.8l-1.17 2.58q-.18.42-.08.87c.79 3.4 2.74 2.59 5.36 3q.52.08.83.52 10 14.34 23.89 25.74 1.47 17.48.77 35.22h-3.3c-.1-11.18 1.18-27.05-.9-30.88a1.28 1.22 32.2 0 1-.15-.59v-2.84a1.18 1.16 21.7 0 0-.38-.86q-9.63-8.88-18.19-18.75c-2.01-2.31-1.96-5.62-6.49-5.09a.86.86 0 0 1-.82-.39q-1.32-2.04-3.57-2.72a.43.43 0 0 1-.21-.68l.53-.68q.26-.35.17-.77-.39-1.74.75-3.04a1.01 1 55.2 0 0 .18-1.04q-.35-.84-1.09-1.38a1.97 1.91-85.9 0 1-.63-.75q-5.12-10.27-7.19-21.5c-1.19-6.43.62-12.68 2.63-18.72 1.53-4.56 2.15-9.71 3.96-14.42q.18-.48-.15-.85Q11.8 45.1 9.08 32.16c-1.57-7.47 11.43-10.79 16.58-12.08 4.9-1.24 11.18-1.18 16.81-2.15a1.05 1.05 0 0 1 .79.17l1.33.92q.38.27.78.02c4.58-2.84 8.75-6.32 13.82-8.26q3.44-1.31 6.84-2.69.43-.17.89-.09 1.47.28 2.47-.76a1.04 1.03-60.5 0 1 1-.28q1.27.34 1.92-.67a.88.88 0 0 1 .95-.38q2.42.63 4.31-.75.5-.36 1.09-.22 2.08.48 3.78-.62Q82.92 4 83.5 4h22.32a1.29 1.26-23.6 0 1 .85.32c1.64 1.46 3.84.05 5.86 1.54a1.24 1.22 56.7 0 0 .94.2c2.25-.44 3.8.75 5.56 1.04q5.37.88 10.3 3.15c1.04.48 3.02.68 4.1 1.76q.36.36.84.54 9.53 3.62 16.61 10.9.32.33.76.47 1.57.49 2.64-.53.4-.39.95-.39h5.45q.42 0 .79-.21c3.6-1.99 5.82.03 8.91.17q2.75.12 5.53.05.49-.01.83.34.24.27.53.45.25.17.64.17 2.39.01 4.81.04.49.01.9.27 3.18 2.06 6.8 2.99.49.13.78.54.75 1.05 2.06 1.26a.81.79 84.6 0 1 .61.52c.67 1.96 2.17 3.52.43 5.55q-.32.37-.3.85c.09 3.27-2.21 7.68-3.05 11.01q-.38 1.54-3.66 5.9-.29.39-.26.89c.13 2-1.34 2.86-2.12 4.11q-2.99 4.82-6.59 9.2-.3.37-.31.86c-.04 2.55-.2 3.93.69 6.64q.65 1.95.19 4.15a.95.93 28.6 0 0 .26.85c1.68 1.74.09 8.04-.19 10.44-.19 1.57-1.43 3.2-.86 5.31a1.21 1.19-33.3 0 1-.23 1.07q-1.4 1.73-.79 4.06.15.6-.29 1.04-2.47 2.52 1.9 5.29a1.31 1.18-24.8 0 0 .58.18q.15.01.29.04.75.15.2.68l-3.18 3.07q-.37.36-.48.86c-.69 3.09-3.14 2.21-5.36 2.39q-.59.04-.68.63-.17 1.1-1.08 1.76-.42.3-.64.77c-1.33 2.83-2.64 5.13-3.74 8.32-1.68 4.86-5.62 10.22-8.25 13.58-1.22 1.56.31 4.21.68 5.5q.56 1.91 1.23 3.8c.94 2.63 1.21 5.66 2.65 8.41q.23.44.12.93-.31 1.38.72 1.34zM24.26 48.86c2.51-6.68 6.59-15.06 11.78-20.27q1.68-1.68 2.9-3l2.95-3.39q.31-.36-.17-.36c-7.9-.07-23.96 1.63-29.25 7.69q-.32.37-.22.86 2.44 12.05 10.11 21.64.47.59.74-.12l1.16-3.05z"/><path fill="#fff" d="M173.95 66.07c.07 3.83.15 6.57-1.16 10.39-1.95 5.66-2.13 11.1-5.02 16.64q-3.56-1.92-4.56-4.79-.39-1.14-.7.03l-.36 1.37q-.13.47-.61.53-4.04.57-6.01 4.07-.26.46-.78.43-2.37-.12-3.97 1.6a.8.79-54.9 0 1-.94.17l-1.25-.64a.46.46 0 0 0-.61.65l.94 1.53q.22.36.11.78-1.05 3.85 2.12 6.13.47.34.23.87-5.86 12.87-14.58 23.85-.61.78-.51 1.37.12.64.83.98.42.21.77-.1c6.96-6.17 13.01-18.53 16.94-27.37a.91.91 0 0 0-.71-1.27c-5.19-.67-1.84-8.47 2.49-4.99a1.21 1.21 0 0 0 1.89-1.39c-1.81-4.69 7.91-6.1 8.24 2.09a.53.53 0 0 0 .71.49q4.06-1.44 5.73-.16 1.74 1.32.27 3.81-.23.38-.62.57-1.18.57-1.25 1.9c-8.58 1.01.73 9.89 1.26.6 1.72.13 2.93 1.75 1.99 3.38-1.45 2.51-3.94 1.31-6.28 1.68q-.49.07-.7.53l-6.81 15.26q-.21.48-.67.74-.89.49-.88 1.49.01.48-.26.89l-5.51 8.28q-1.78 1.43-2.73 3.45-.22.46.06.9c1.95 2.97 1.99 6.43 2.63 9.07q3.57 14.84 4.1 30.12H58.72c-.2-1.83-.32-3.42-.03-5.33q2.4-15.86-3.11-29.89-13.89-11.4-23.89-25.74-.31-.44-.83-.52c-2.62-.41-4.57.4-5.36-3q-.1-.45.08-.87l1.17-2.58a.77.76-53.8 0 0-.12-.8c-2.26-2.56-3.69-6.76 1.12-7.49 1.23-.18 2.31.52 3.7.49q.57-.02.73-.56l.7-2.24q.15-.47.54-.78 2.18-1.76 4.74-.35.55.3.76.89l.98 2.73a.5.49-20.6 0 0 .65.29l3.09-1.2q.81-.32 1.2.46l1.21 2.43a.75.74-32.1 0 1-.22.94l-2.08 1.57q-.49.37-.09.84.6.69 1.35 1.14a1.25 1.17-2 0 1 .31.27c2.54 3.27 8.71 11.41 12.44 12.88a1.13 1.13 0 0 0 1.34-1.7c-.93-1.32-1.77-2.45-3.1-3.54q-4.65-3.83-8.1-8.81-.3-.44-.06-.92 1.17-2.29.41-4.82-.11-.38.13-.69l.94-1.22a.46.46 0 0 0-.55-.71l-1.32.57a.74.73 52.8 0 1-.76-.11q-1.97-1.66-4.47-.88-.61.19-.86-.4-1.19-2.79-4.25-3.14-.5-.06-.6-.55c-.12-.59.14-1.33-.16-1.84q-.14-.25-.39-.31-.66-.19-.85.47l-.45 1.59q-.15.51-.65.7-2.69 1-3.97 3.59-.25.5-.79.36l-1.01-.26q-6.57-13.17-5.1-27.91.47-4.64-.36-8.01c6.86-44.54 41-63.5 83.71-59.08q24.73 2.57 44.09 18.72.39.32.88.21c11.46-2.45 28.92-2.14 39.54 4.64a1.03 1.02 15.5 0 1 .47.82c.19 4.96-3.49 12.82-5.92 17.96q-4.05 8.59-11.6 15.76zm-6.45-25.86a.93.76 15.5 0 1-1.25.55l-5.38-2.24a.17.17 0 0 0-.19.28l10.42 10.34a1.13.72-62.4 0 1 .09 1.05q-.05.14-.3.1c-.39-.05-4.76-3.42-5.69-3.91a.17.17 0 0 0-.23.22l7.27 14.61a.56.55 52 0 0 .92.12q9.33-10.92 13.87-24.53a1.4 1.39-69.8 0 0-.8-1.74q-14.48-5.86-29.95-3.93a.68.68 0 0 0-.21 1.29q5.66 2.68 10.71 7.03.73.62.72.76zM66.805 64.098a3.89 1 65.8 0 0-.683-3.958 3.89 1 65.8 0 0-2.507-3.138 3.89 1 65.8 0 0 .683 3.958 3.89 1 65.8 0 0 2.507 3.138zm40.903-4.157a.75.75 0 0 0-.051-1.06l-.06-.053a.75.75 0 0 0-1.059.051l-4.406 4.86a.75.75 0 0 0 .051 1.06l.06.053a.75.75 0 0 0 1.059-.052l4.406-4.86zM64.36 71.41a6.07 6.07 0 0 0-6.07-6.07 6.07 6.07 0 0 0-6.07 6.07 6.07 6.07 0 0 0 6.07 6.07 6.07 6.07 0 0 0 6.07-6.07zm54.35 1.27a6.36 6.36 0 0 0-6.36-6.36 6.36 6.36 0 0 0-6.36 6.36 6.36 6.36 0 0 0 6.36 6.36 6.36 6.36 0 0 0 6.36-6.36zm-71.18 2.715a6.96 4.96.7 0 0-6.9-5.045 6.96 4.96.7 0 0-7.02 4.875 6.96 4.96.7 0 0 6.9 5.045 6.96 4.96.7 0 0 7.02-4.875zm42.56 3.865q2.1-.38 3.34-2.12a.7.7 0 0 0-1.03-.94c-3.7 3.22-6.68-.09-9.21-2.81q-.38-.42-.77-.01-2.56 2.67-6.25 2.39-.68-.05-.46.59.37 1.08 1.61 1.11.49.01.5.5c.15 5.19 1.83 20.91 6.48 23.97 6.27 4.13 5.4-19.5 5.25-22a.65.64-6.9 0 1 .54-.68zm46.53-.329a7.02 4.98-.4 0 0-7.055-4.93 7.02 4.98-.4 0 0-6.985 5.028 7.02 4.98-.4 0 0 7.055 4.93 7.02 4.98-.4 0 0 6.985-5.028zm25.521 21.206a2.53 2.15 99.3 0 0 2.53-2.15 2.53 2.15 99.3 0 0-1.712-2.844 2.53 2.15 99.3 0 0-2.53 2.15 2.53 2.15 99.3 0 0 1.712 2.844zm-3.761-.077-2.51-1.17a.77.77 0 0 0-1.03.37l-.25.53a2.34 2.01-64.9 0 0 .83 2.97l.27.13a2.34 2.01-64.9 0 0 2.81-1.27l.25-.53a.77.77 0 0 0-.37-1.03zm9.284 3.824a2.44 2.17 133.7 0 0 3.255-.265 2.44 2.17 133.7 0 0 .117-3.263 2.44 2.17 133.7 0 0-3.255.265 2.44 2.17 133.7 0 0-.117 3.263zm-3.394-1.704c-3.51-1.18-5.14.82-7.52 3.57-3.55 4.11 3.04 7.52 6.72 6.74a1.38 1.37 11.8 0 0 .83-.54q3.13-4.29.7-9.13-.23-.47-.73-.64zm-126.3 4.6a2.27 2.27 0 0 0-2.27-2.27 2.27 2.27 0 0 0-2.27 2.27 2.27 2.27 0 0 0 2.27 2.27 2.27 2.27 0 0 0 2.27-2.27zm4.87 3.51-.09-2.26a.76.76 0 0 0-.79-.73l-.77.03a2.45 1.85-2.3 0 0-2.37 1.95v.08a2.45 1.85-2.3 0 0 2.53 1.75l.76-.03a.76.76 0 0 0 .73-.79zm-10.8-.58q-.79-1.72-2.79-2.15-.38-.08-.66.2c-2.16 2.2-.35 5.64 2.64 4.2a1.7 1.7 0 0 0 .81-2.25zm6.13 10.87 3.62-2.66a1.99 1.99 0 0 0 .43-2.78l-.78-1.07a6.49 4.21 53.7 0 0-7.24-2.74l-.05.04a6.49 4.21 53.7 0 0 .45 7.72l.79 1.07a1.99 1.99 0 0 0 2.78.42zm-6.37-2.83-.21-2.83a.82.82 0 0 0-.88-.76l-.49.04a2.63 2.1-4.3 0 0-2.46 2.29l.02.28a2.63 2.1-4.3 0 0 2.78 1.89l.48-.03a.82.82 0 0 0 .76-.88z"/><path fill="#fff" d="M38.94 25.59q-8.1 1.66-16.34 3.92c-3.33.92-6.13 1.25-4.81 5.42q2.34 7.36 6.47 13.93l-1.16 3.05q-.27.71-.74.12-7.67-9.59-10.11-21.64-.1-.49.22-.86c5.29-6.06 21.35-7.76 29.25-7.69q.48 0 .17.36l-2.95 3.39z"/><path fill="#fea897" d="M38.94 25.59q-1.22 1.32-2.9 3c-5.19 5.21-9.27 13.59-11.78 20.27q-4.13-6.57-6.47-13.93c-1.32-4.17 1.48-4.5 4.81-5.42q8.24-2.26 16.34-3.92zM167.5 40.21q.01-.14-.72-.76-5.05-4.35-10.71-7.03a.68.68 0 0 1 .21-1.29q15.47-1.93 29.95 3.93a1.4 1.39-69.8 0 1 .8 1.74q-4.54 13.61-13.87 24.53a.56.55 52 0 1-.92-.12l-7.27-14.61a.17.17 0 0 1 .23-.22c.93.49 5.3 3.86 5.69 3.91q.25.04.3-.1a1.13.72-62.4 0 0-.09-1.05L160.68 38.8a.17.17 0 0 1 .19-.28l5.38 2.24a.93.76 15.5 0 0 1.25-.55z"/><ellipse fill="#542a14" transform="rotate(65.8 -14.193 80.675)" rx="3.89" ry="1"/><rect fill="#542a14" x="-.79" y="-4.03" transform="rotate(42.2 -27.671 166.873)" width="1.58" height="8.06" rx=".75"/><circle fill="#542a14" cx="58.29" cy="71.41" r="6.07"/><circle fill="#542a14" cx="112.35" cy="72.68" r="6.36"/><path fill="#f8e0d6" d="M173.95 66.07c2.18 7.03 2.98 24.48-.37 29.47q-.24.36-.68.39l-3.47.22q-.44.03-.6-.38l-1.06-2.67c2.89-5.54 3.07-10.98 5.02-16.64 1.31-3.82 1.23-6.56 1.16-10.39zM22.78 67.04q.83 3.37.36 8.01-1.47 14.74 5.1 27.91l-1.81.45q-.34.08-.59-.16l-1.27-1.21a.48.48 0 0 0-.81.34l-.03 2.51a.42.42 0 0 1-.8.17q-8.9-18.92-.15-38.02z"/><ellipse fill="#f8e0d6" transform="rotate(.7 -6143.846 3358.313)" rx="6.96" ry="4.96"/><path fill="#542a14" d="M89.55 79.94c.15 2.5 1.02 26.13-5.25 22-4.65-3.06-6.33-18.78-6.48-23.97q-.01-.49-.5-.5-1.24-.03-1.61-1.11-.22-.64.46-.59 3.69.28 6.25-2.39.39-.41.77.01c2.53 2.72 5.51 6.03 9.21 2.81a.7.7 0 0 1 1.03.94q-1.24 1.74-3.34 2.12a.65.64-6.9 0 0-.54.68zm-8.14-3.87-1.69.98q-.47.27-.31.78l.42 1.42q-.17 11.28 4.85 21.31a.66.66 0 0 0 1.01.21c2.74-2.31 2.34-16.08 2.18-18.47q-.07-1.04-.62-1.36l.72-1.15q.28-.45-.11-.8-.83-.72-1.97-.57-3.09-3.71-4.48-2.35z"/><ellipse fill="#f8e0d6" transform="rotate(-.4 11377.806 -18524.267)" rx="7.02" ry="4.98"/><path fill="#fe887a" d="m85.89 78.42-.11 2.3q-.03.5.47.54.58.04 1-.32.55.32.62 1.36c.16 2.39.56 16.16-2.18 18.47a.66.66 0 0 1-1.01-.21q-5.02-10.03-4.85-21.31 1.97-.25 1.58-3.18 1.39-1.36 4.48 2.35z"/><path fill="#f8e0d6" d="M81.41 76.07q.39 2.93-1.58 3.18l-.42-1.42q-.16-.51.31-.78l1.69-.98z"/><path fill="#fff" d="M85.89 78.42q1.14-.15 1.97.57.39.35.11.8l-.72 1.15q-.42.36-1 .32-.5-.04-.47-.54l.11-2.3z"/><ellipse fill="#fec1be" transform="rotate(99.3 39.8 117.868)" rx="2.53" ry="2.15"/><path fill="#fec1be" d="M158.38 100.06a.77.77 0 0 1 .37 1.03l-.25.53a2.34 2.01-64.9 0 1-2.81 1.27l-.27-.13a2.34 2.01-64.9 0 1-.83-2.97l.25-.53a.77.77 0 0 1 1.03-.37l2.51 1.17z"/><ellipse fill="#fec1be" transform="rotate(133.7 62.843 87.264)" rx="2.44" ry="2.17"/><path fill="#fec1be" d="M165 102.82q2.43 4.84-.7 9.13a1.38 1.37 11.8 0 1-.83.54c-3.68.78-10.27-2.63-6.72-6.74 2.38-2.75 4.01-4.75 7.52-3.57q.5.17.73.64z"/><circle fill="#fec1be" cx="35.7" cy="106.78" r="2.27"/><path fill="#fec1be" d="m171.58 105.61 1.26.6c-.53 9.29-9.84.41-1.26-.6zM42.84 110.29a.76.76 0 0 1-.73.79l-.76.03a2.45 1.85-2.3 0 1-2.53-1.75v-.08a2.45 1.85-2.3 0 1 2.37-1.95l.77-.03a.76.76 0 0 1 .79.73l.09 2.26zM32.04 109.71a1.7 1.7 0 0 1-.81 2.25c-2.99 1.44-4.8-2-2.64-4.2q.28-.28.66-.2 2 .43 2.79 2.15zM38.17 120.58a1.99 1.99 0 0 1-2.78-.42l-.79-1.07a6.49 4.21 53.7 0 1-.45-7.72l.05-.04a6.49 4.21 53.7 0 1 7.24 2.74l.78 1.07a1.99 1.99 0 0 1-.43 2.78l-3.62 2.66z"/><path fill="#fec1be" d="M31.8 117.75a.82.82 0 0 1-.76.88l-.48.03a2.63 2.1-4.3 0 1-2.78-1.89l-.02-.28a2.63 2.1-4.3 0 1 2.46-2.29l.49-.04a.82.82 0 0 1 .88.76l.21 2.83z"/><path fill="#f8e0d6" d="m153.72 138.46-1.55 2.64q-.23.4 0 .8c3.39 5.73 5.91 15.15 6.98 21.71 1.02 6.2 2.47 11.12 3.13 18.39h-4.5q-.53-15.28-4.1-30.12c-.64-2.64-.68-6.1-2.63-9.07q-.28-.44-.06-.9.95-2.02 2.73-3.45zM174.83 141.99q-2.74 1.95-.63 4.62a.79.79 0 0 0 1.27-.04q1.15-1.67-.2-4.89l3.82 1.67q-1.8 1.69-.91 3.53a1.06 1.05-6.2 0 0 .74.59q1.42.31 1.89-1.93 2.61 1.92 3.23 3.92-2.11-2.21-4.89.33a1.04 1.04 0 0 0 .52 1.79q1.97.34 4.23-1.51.55 1.33-1.03 2.54.49.32-.84.84-3.12.25-3.09 2.03.01.56.5.83 1.28.7 3.05-.42l.5.4q.3 1.24-1.08 2.25l-2.13-.08a1.01 1.01 0 0 0-.82 1.65q.83 1.01 2.8.6.98 3.55-.53 5.69-.28.4-.23.88.43 4.1-1.83 7.05-1.81-1.79-3.47-1.11a.93.93 0 0 0-.44 1.35q.77 1.25 2.7 1.48.63 3.01-1.96 3.92.35-1.85-1.24-2.73-.97-.53-1.66.31-.34.43-.18.94.77 2.4 3.02 1.99.26.98-.25 1.52h-3q-.39-1.78-1.46-1.74-.53.02-.61.55-.15 1.02-.93 1.19h-4.18q-.11-10.2-3.35-19.98-.12-.37.17-.8a.31.31 0 0 1 .56.17q.09 1.97 2 2.22a.71.71 0 0 0 .77-.93l-1.28-3.8q-.3-.9-1-.26-1.72 1.55-1.63.45 1.38-1.36 1.55-3.77.21-.05.38-.06.48-.04.6.42.54 2.08 2.39 2.89a.76.75-79 0 0 1.06-.72q-.12-3.24-3.09-4.97l1.4-1.35q.35-.32.72-.26.25.05.53.44 1.08 1.49 2.67.43.44-.28.2-.75-1.69-3.38-4.15-2.2.64-1.66 2.77-3.2l.36.03q.26.03.34.29.51 1.66 1.93 2.59a.97.96 11.4 0 0 1.48-.98q-.52-2.89-3.12-2.98 1.81-2.35 5.06-2.93zm6.294 22.797a1.84 1.33 30.6 0 0-.907-2.082 1.84 1.33 30.6 0 0-2.26.208 1.84 1.33 30.6 0 0 .906 2.082 1.84 1.33 30.6 0 0 2.26-.208zm-2.314 3.653q-1.13-.92-2.18.11a.92.91 52.7 0 0-.14 1.1q.68 1.18 2.17 1.74a1.26 1.25-3 0 0 1.57-1.74q-.62-1.2-1.42-1.21z"/><path fill="#542a14" d="M174.83 141.99q1.09.19.44-.31 1.35 3.22.2 4.89a.79.79 0 0 1-1.27.04q-2.11-2.67.63-4.62zM179.09 143.35q2.45.46 1.72 2.19-.47 2.24-1.89 1.93a1.06 1.05-6.2 0 1-.74-.59q-.89-1.84.91-3.53zM169.77 144.92q2.6.09 3.12 2.98a.97.96 11.4 0 1-1.48.98q-1.42-.93-1.93-2.59-.08-.26-.34-.29l-.36-.03q.3-.56.99-1.05z"/><path fill="#f8e0d6" d="M55.58 146.78q5.51 14.03 3.11 29.89c-.29 1.91-.17 3.5.03 5.33h-2.37q.7-17.74-.77-35.22z"/><path fill="#542a14" d="M184.04 149.46q-.02.68-.14.61-2.26 1.85-4.23 1.51a1.04 1.04 0 0 1-.52-1.79q2.78-2.54 4.89-.33zM166.04 151.51l-.03-2.34q2.46-1.18 4.15 2.2.24.47-.2.75-1.59 1.06-2.67-.43-.28-.39-.53-.44-.37-.06-.72.26z"/><path fill="#fea897" d="M182.87 152.61c1.47 1.02 1.73 2.8.12 3.68l-.5-.4q.36-.4.58-.89.26-.58.04-1-.28-.54-1.08-.55 1.33-.52.84-.84z"/><path fill="#542a14" d="M164.64 152.86q2.97 1.73 3.09 4.97a.76.75-79 0 1-1.06.72q-1.85-.81-2.39-2.89-.12-.46-.6-.42-.17.01-.38.06l1.34-2.44zM182.03 153.45q.8.01 1.08.55.22.42-.04 1-.22.49-.58.89-1.77 1.12-3.05.42-.49-.27-.5-.83-.03-1.78 3.09-2.03zM181.91 158.54q.33 1.46-.15 2.17-1.97.41-2.8-.6a1.01 1.01 0 0 1 .82-1.65l2.13.08z"/><ellipse fill="#542a14" transform="rotate(30.6 -209.697 410.069)" rx="1.84" ry="1.33"/><path fill="#542a14" d="M178.81 168.44q.8.01 1.42 1.21a1.26 1.25-3 0 1-1.57 1.74q-1.49-.56-2.17-1.74a.92.91 52.7 0 1 .14-1.1q1.05-1.03 2.18-.11zM179.17 174.33q-.47 1.73-1.21 1.72-1.93-.23-2.7-1.48a.93.93 0 0 1 .44-1.35q1.66-.68 3.47 1.11zM176 179.97q.06.26-.06.51-2.25.41-3.02-1.99-.16-.51.18-.94.69-.84 1.66-.31 1.59.88 1.24 2.73zM172.69 182h-3q.78-.17.93-1.19.08-.53.61-.55 1.07-.04 1.46 1.74z"/></svg>