<?xml version="1.0" encoding="UTF-8" standalone="no"?>
<svg xmlns="http://www.w3.org/2000/svg" version="1.2" baseProfile="tiny" viewBox="0.00 0.00 512.00 512.00">
<g stroke-width="2.00" fill="none" stroke-linecap="butt">
<path stroke="#724428" vector-effect="non-scaling-stroke" d="
  M 426.17 291.28
  Q 425.51 295.59 423.90 298.32"
/>
<path stroke="#a57956" vector-effect="non-scaling-stroke" d="
  M 423.90 298.32
  Q 421.43 309.15 415.19 315.20
  Q 408.39 321.79 398.01 325.53
  Q 378.81 332.46 358.50 331.28"
/>
<path stroke="#724428" vector-effect="non-scaling-stroke" d="
  M 356.23 330.76
  Q 352.90 329.23 351.04 326.91"
/>
<path stroke="#a79388" vector-effect="non-scaling-stroke" d="
  M 351.04 326.91
  C 351.78 325.40 352.92 323.97 354.70 323.84
  C 356.14 323.73 357.56 323.45 359.02 323.46
  Q 371.71 323.50 384.66 321.71
  C 398.52 319.79 411.07 312.78 416.39 299.11
  Q 416.58 298.61 417.04 298.33
  Q 417.50 298.04 417.59 297.49
  Q 419.39 286.07 417.82 273.42
  A 0.44 0.43 77.2 0 0 417.26 273.06
  C 415.24 273.68 415.13 275.47 413.86 276.84
  Q 412.73 278.07 411.94 279.39
  C 403.06 294.39 388.97 305.16 371.94 308.37
  Q 368.81 308.96 365.76 309.53"
/>
<path stroke="#724428" vector-effect="non-scaling-stroke" d="
  M 365.76 309.53
  Q 361.04 308.96 358.75 309.21
  Q 356.01 309.50 354.96 312.51"
/>
<path stroke="#a79388" vector-effect="non-scaling-stroke" d="
  M 354.96 312.51
  L 348.33 311.83"
/>
<path stroke="#724428" vector-effect="non-scaling-stroke" d="
  M 348.33 311.83
  Q 346.72 311.01 345.27 310.16
  Q 343.57 309.16 342.04 309.19
  Q 338.90 309.24 335.75 310.45"
/>
<path stroke="#a79388" vector-effect="non-scaling-stroke" d="
  M 335.75 310.45
  Q 327.51 309.07 321.37 305.56
  A 2.18 2.17 27.0 0 1 320.46 302.78
  Q 321.38 300.69 323.53 300.76
  C 327.09 300.88 330.77 301.87 334.44 302.13
  Q 336.46 302.27 338.31 302.31"
/>
<path stroke="#a58575" vector-effect="non-scaling-stroke" d="
  M 338.31 302.31
  Q 349.33 304.45 359.51 303.60
  Q 380.03 301.90 395.39 287.40
  Q 404.39 278.89 409.20 271.21
  Q 413.02 265.11 416.46 256.46
  Q 425.61 233.41 427.88 208.48"
/>
<path stroke="#a79388" vector-effect="non-scaling-stroke" d="
  M 427.88 208.48
  L 429.25 202.67"
/>
<path stroke="#a79388" vector-effect="non-scaling-stroke" d="
  M 429.82 198.55
  Q 429.08 177.51 427.25 160.00
  Q 425.84 146.48 420.37 132.90
  A 1.16 1.15 47.7 0 1 420.41 131.98
  Q 420.65 131.50 420.70 130.98
  Q 420.73 130.59 420.53 130.19
  C 405.64 99.81 379.41 76.03 349.14 60.72
  Q 306.72 39.28 257.93 40.89
  Q 245.30 41.30 230.69 44.92
  Q 230.03 45.09 230.35 45.68
  L 230.70 46.32
  Q 231.06 47.00 230.33 47.22
  C 216.68 51.32 203.66 56.34 192.26 63.25"
/>
<path stroke="#a79388" vector-effect="non-scaling-stroke" d="
  M 188.13 66.29
  Q 168.96 83.10 156.38 105.67
  Q 145.77 124.70 138.96 145.56"
/>
<path stroke="#a58575" vector-effect="non-scaling-stroke" d="
  M 138.96 145.56
  Q 138.28 145.61 138.01 145.03
  A 0.68 0.68 0.0 0 0 136.83 144.94
  C 122.16 166.58 123.24 194.24 135.01 217.35
  Q 135.75 218.80 136.94 219.93
  C 138.97 221.84 140.54 224.21 142.57 226.21
  Q 155.60 239.10 172.44 246.73"
/>
<path stroke="#a79388" vector-effect="non-scaling-stroke" d="
  M 172.44 246.73
  L 179.17 249.90
  A 1.40 1.39 -76.5 0 1 179.97 251.21
  C 179.75 259.16 168.24 253.51 165.04 251.84
  Q 151.34 244.71 139.62 233.94
  C 137.77 232.25 131.38 225.94 131.55 223.44
  Q 131.63 222.37 130.83 221.66
  L 126.62 217.86
  Q 125.82 217.13 125.63 218.21
  C 122.89 234.20 127.51 247.00 142.41 254.62
  Q 143.13 254.99 142.64 255.63
  Q 129.97 271.91 109.18 272.93
  C 105.08 273.13 99.20 270.93 96.02 267.65
  C 88.92 260.35 78.93 254.21 68.46 254.50
  Q 66.76 254.55 65.31 255.44
  Q 58.04 259.91 57.06 268.24
  Q 56.35 274.35 56.92 280.57"
/>
<path stroke="#a58575" vector-effect="non-scaling-stroke" d="
  M 56.92 280.57
  Q 58.33 284.53 59.32 286.43
  Q 69.44 305.99 88.81 317.08
  Q 102.60 324.99 116.05 329.12
  C 120.67 330.54 125.00 333.08 129.52 334.44
  Q 134.61 335.96 137.06 331.50
  Q 139.24 327.54 141.24 321.85"
/>
<path stroke="#a79388" vector-effect="non-scaling-stroke" d="
  M 141.24 321.85
  Q 148.90 315.16 157.32 309.08
  Q 159.02 307.86 163.98 305.85
  A 6.08 6.08 0.0 0 1 170.52 307.16
  Q 171.06 307.70 171.73 308.36
  Q 174.48 311.09 170.75 312.11
  Q 161.71 314.57 153.55 321.65
  C 136.80 336.20 136.92 362.09 148.20 379.77
  Q 154.10 389.00 163.47 391.69"
/>
<path stroke="#a58575" vector-effect="non-scaling-stroke" d="
  M 163.47 391.69
  Q 166.85 393.01 170.75 393.20
  C 177.74 393.53 182.34 389.92 185.15 383.92
  Q 188.46 376.82 191.39 370.07
  Q 194.59 362.69 201.05 357.81"
/>
<path stroke="#a79388" vector-effect="non-scaling-stroke" d="
  M 201.05 357.81
  Q 203.37 359.42 204.38 362.85"
/>
<path stroke="#724428" vector-effect="non-scaling-stroke" d="
  M 204.38 362.85
  L 201.29 368.73"
/>
<path stroke="#a57956" vector-effect="non-scaling-stroke" d="
  M 201.29 368.73
  Q 197.93 371.34 197.03 373.78
  Q 195.05 379.18 193.52 383.98
  C 191.97 388.84 189.59 392.63 185.13 395.59
  C 176.44 401.36 165.81 402.53 156.65 397.66
  Q 151.14 394.73 147.52 390.70
  Q 132.80 374.26 133.25 350.65"
/>
<path stroke="#724428" vector-effect="non-scaling-stroke" d="
  M 133.25 350.65
  Q 134.07 346.70 133.69 345.31
  Q 133.03 342.89 130.73 342.08
  C 126.52 340.59 121.92 340.52 117.50 339.27
  Q 115.52 338.71 113.64 337.92
  Q 105.78 334.63 97.77 331.54
  Q 97.49 331.44 97.41 331.25
  Q 97.31 331.04 97.37 330.75"
/>
<path stroke="#a57956" vector-effect="non-scaling-stroke" d="
  M 97.37 330.75
  L 97.81 330.73
  Q 98.63 330.68 97.87 330.37
  C 78.52 322.34 61.76 309.54 52.77 290.22"
/>
<path stroke="#724428" vector-effect="non-scaling-stroke" d="
  M 51.14 289.61
  Q 51.70 285.74 50.50 282.37"
/>
<path stroke="#724428" vector-effect="non-scaling-stroke" d="
  M 103.39 260.16
  Q 103.08 261.85 104.14 263.14
  C 109.98 270.25 130.07 258.73 125.93 253.06
  Q 125.04 251.84 124.04 251.82"
/>
<path stroke="#fad1a8" vector-effect="non-scaling-stroke" d="
  M 232.17 475.54
  C 194.65 466.64 158.37 455.35 123.06 441.62
  Q 92.23 429.62 59.78 412.72
  Q 59.35 412.50 59.03 412.86
  L 57.69 414.41"
/>
<path stroke="#fbefea" vector-effect="non-scaling-stroke" d="
  M 427.88 208.48
  Q 425.86 210.36 424.40 213.16
  Q 418.69 224.12 415.85 230.42
  Q 410.46 242.41 404.84 254.32
  Q 398.71 267.34 387.49 277.24
  Q 380.55 283.35 371.42 288.28
  Q 365.31 291.57 355.27 295.62
  Q 346.88 299.00 338.31 302.31"
/>
<path stroke="#c8ae9d" vector-effect="non-scaling-stroke" d="
  M 335.75 310.45
  Q 337.63 312.52 341.00 312.75
  Q 344.98 313.03 348.33 311.83"
/>
<path stroke="#c8ae9d" vector-effect="non-scaling-stroke" d="
  M 354.96 312.51
  C 358.81 313.07 363.65 313.41 365.76 309.53"
/>
<path stroke="#c8ae9d" vector-effect="non-scaling-stroke" d="
  M 351.04 326.91
  C 326.72 336.01 302.39 344.98 277.56 352.76
  Q 268.13 355.72 260.79 358.77
  C 250.69 362.96 240.62 367.45 229.50 368.69
  Q 216.14 370.19 204.38 362.85"
/>
<path stroke="#fbefea" vector-effect="non-scaling-stroke" d="
  M 201.05 357.81
  Q 199.18 355.79 194.70 353.37
  C 189.34 350.47 185.94 355.40 184.24 360.02
  Q 181.53 367.39 178.45 374.24
  Q 173.63 384.93 163.47 391.69"
/>
<path stroke="#fbefea" vector-effect="non-scaling-stroke" d="
  M 141.24 321.85
  Q 126.90 316.73 112.53 311.61
  C 93.02 304.65 72.43 294.06 62.79 274.65
  Q 62.47 274.01 61.92 274.47
  C 60.87 275.36 60.36 276.17 59.99 277.54
  Q 59.33 279.97 56.92 280.57"
/>
<path stroke="#fbefea" vector-effect="non-scaling-stroke" d="
  M 172.44 246.73
  Q 173.55 245.57 173.49 244.08
  Q 173.47 243.55 173.09 243.18
  C 160.47 230.91 148.77 216.70 141.86 200.99
  Q 131.11 176.56 139.21 150.76
  Q 139.99 148.27 138.96 145.56"
/>
<path stroke="#c6936b" vector-effect="non-scaling-stroke" d="
  M 50.33 290.64
  Q 37.90 295.49 28.94 302.13
  Q 26.90 303.63 24.83 306.85
  C 22.04 311.17 27.54 315.37 30.87 316.80
  C 41.11 321.22 52.42 323.29 63.49 325.15
  Q 78.12 327.60 96.92 330.36
  Q 97.09 330.39 97.20 330.53
  Q 97.28 330.64 97.37 330.75"
/>
<path stroke="#c6936b" vector-effect="non-scaling-stroke" d="
  M 133.25 350.65
  Q 124.76 348.00 116.16 345.38
  Q 99.30 340.26 82.51 334.90
  C 79.81 334.03 77.09 333.68 74.34 333.04
  C 62.25 330.26 58.55 337.59 57.56 348.14
  Q 56.60 358.42 56.77 370.25
  Q 57.10 392.19 57.69 414.41"
/>
<path stroke="#c79c7a" vector-effect="non-scaling-stroke" d="
  M 57.69 414.41
  Q 57.75 421.06 58.79 424.50
  C 62.04 435.27 77.09 440.58 86.69 444.26
  Q 92.58 446.51 99.64 449.59
  C 107.00 452.79 114.65 455.30 122.12 458.30
  C 150.01 469.51 173.94 479.33 199.26 486.17
  Q 210.16 489.12 225.50 491.27
  Q 228.70 491.72 232.39 491.93
  Q 233.01 491.96 233.00 491.34
  L 232.66 477.08
  Q 232.64 476.55 232.41 476.07
  L 232.17 475.54"
/>
<path stroke="#c6936b" vector-effect="non-scaling-stroke" d="
  M 232.17 475.54
  Q 232.43 475.02 232.43 474.75
  Q 231.79 439.50 231.22 404.25
  Q 231.05 394.05 229.67 384.84
  Q 228.84 379.29 225.46 376.81
  Q 223.64 375.47 217.91 374.29
  Q 209.42 372.54 201.29 368.73"
/>
<path stroke="#c6936b" vector-effect="non-scaling-stroke" d="
  M 352.58 332.73
  Q 342.42 337.13 332.20 341.44
  Q 322.31 345.62 293.66 355.08
  Q 266.95 363.90 237.43 373.38
  A 0.56 0.55 -29.7 0 0 237.18 374.28
  C 249.95 388.23 261.93 404.35 273.80 417.45
  Q 282.41 426.94 294.12 435.46
  Q 294.53 435.76 295.04 435.73
  Q 296.56 435.63 298.02 435.04
  Q 303.91 432.67 309.73 429.94
  C 343.39 414.17 375.70 396.63 406.60 375.90
  Q 406.99 375.64 407.42 375.80
  Q 408.78 376.32 409.96 375.45
  Q 425.54 363.99 440.90 350.52
  Q 448.49 343.86 455.19 336.72
  Q 455.58 336.31 455.25 335.85
  Q 442.88 318.56 438.13 312.15
  Q 432.67 304.78 423.90 298.32"
/>
<path stroke="#a16a53" vector-effect="non-scaling-stroke" d="
  M 180.56 62.59
  Q 192.87 53.91 204.47 48.45
  Q 216.81 42.64 221.12 40.53"
/>
<path stroke="#a79388" vector-effect="non-scaling-stroke" d="
  M 221.12 40.53
  L 225.73 39.95
  Q 226.45 39.86 225.84 39.47
  Q 216.68 33.61 206.80 29.81
  C 197.41 26.21 187.25 26.06 181.34 35.50
  Q 178.62 39.84 177.05 45.14
  Q 173.67 56.59 173.11 67.49
  A 0.31 0.31 0.0 0 0 173.60 67.75
  L 180.56 62.59"
/>
<path stroke="#f7d4c8" vector-effect="non-scaling-stroke" d="
  M 221.12 40.53
  Q 208.40 35.88 199.00 35.02
  Q 187.90 34.01 184.26 44.25
  Q 181.33 52.49 180.56 62.59"
/>
<path stroke="#a16a53" vector-effect="non-scaling-stroke" d="
  M 432.22 144.34
  Q 435.15 156.23 435.53 168.56
  Q 435.66 172.53 436.48 176.85
  Q 437.38 181.56 437.60 185.83"
/>
<path stroke="#a79388" vector-effect="non-scaling-stroke" d="
  M 437.60 185.83
  Q 436.73 190.11 438.23 193.25
  A 0.43 0.43 0.0 0 0 438.89 193.40
  Q 445.56 187.88 453.04 183.61
  C 458.76 180.34 466.03 175.02 467.78 168.25
  C 468.50 165.49 466.34 161.50 464.85 159.32
  Q 455.70 145.89 441.10 134.70
  C 437.79 132.15 431.47 127.70 427.31 128.76
  A 1.30 1.30 0.0 0 0 426.50 130.67
  Q 429.58 136.04 431.36 142.21"
/>
<path stroke="#f7d4c8" vector-effect="non-scaling-stroke" d="
  M 437.60 185.83
  Q 443.69 182.15 450.32 178.26
  Q 454.59 175.75 457.52 172.34
  C 461.46 167.74 461.12 163.12 457.03 158.99
  Q 454.31 156.24 452.28 154.93
  Q 448.54 152.52 434.25 144.22"
/>
<path stroke="#a79388" vector-effect="non-scaling-stroke" d="
  M 209.45 136.21
  Q 214.19 138.12 218.74 139.08
  C 221.23 139.61 225.63 138.97 227.33 136.57
  A 2.13 2.12 37.4 0 0 226.94 133.70
  Q 224.16 131.42 221.17 130.17
  Q 214.70 127.46 207.38 124.96
  Q 206.01 124.50 204.73 123.75
  Q 204.32 123.51 203.89 123.69
  C 192.82 128.37 205.27 134.53 209.45 136.21"
/>
<path stroke="#fbefea" vector-effect="non-scaling-stroke" d="
  M 194.5404 139.7964
  A 13.66 11.46 15.7 0 0 184.4911 125.0676
  A 13.66 11.46 15.7 0 0 168.2396 132.4036
  A 13.66 11.46 15.7 0 0 178.2889 147.1324
  A 13.66 11.46 15.7 0 0 194.5404 139.7964"
/>
<path stroke="#a79388" vector-effect="non-scaling-stroke" d="
  M 247.54 148.94
  Q 246.90 148.72 246.33 148.34
  Q 245.61 147.85 245.60 148.72
  Q 245.49 155.70 243.36 162.43
  Q 240.90 170.21 238.30 178.65
  Q 234.81 189.95 239.68 200.59
  Q 240.93 203.33 243.16 204.14
  Q 243.73 204.35 244.32 204.17
  Q 248.20 203.01 251.12 199.56
  C 253.80 196.39 256.40 192.99 258.60 189.45
  Q 264.54 179.91 270.27 170.77
  Q 273.09 166.25 276.96 162.59
  Q 277.32 162.24 277.27 161.74
  Q 277.04 159.49 274.84 159.25
  Q 271.96 158.94 269.46 158.97
  A 2.05 2.05 0.0 0 1 267.67 157.98
  C 265.20 153.85 261.36 151.22 256.49 150.76
  Q 251.52 150.29 247.54 148.94"
/>
<path stroke="#a79388" vector-effect="non-scaling-stroke" d="
  M 337.74 170.49
  C 329.91 166.52 321.96 163.91 314.13 159.98
  Q 313.71 159.76 313.27 159.95
  C 308.13 162.09 306.99 166.21 311.76 169.89
  Q 318.91 175.39 329.15 176.67
  C 332.06 177.04 334.64 177.44 337.15 175.42
  Q 338.99 173.93 338.39 171.33
  Q 338.26 170.76 337.74 170.49"
/>
<path stroke="#fbefea" vector-effect="non-scaling-stroke" d="
  M 362.0465 199.9580
  A 14.39 12.18 23.5 0 0 353.7068 183.0502
  A 14.39 12.18 23.5 0 0 335.6535 188.4820
  A 14.39 12.18 23.5 0 0 343.9932 205.3898
  A 14.39 12.18 23.5 0 0 362.0465 199.9580"
/>
<path stroke="#a65a47" vector-effect="non-scaling-stroke" d="
  M 265.98 166.10
  A 1.12 1.11 43.2 0 0 265.95 165.23
  C 264.44 161.88 262.37 157.60 259.03 155.88
  C 252.48 152.52 247.61 164.34 246.08 168.69
  Q 242.20 179.69 241.51 190.01
  C 241.35 192.35 241.70 194.96 242.67 197.12
  A 1.90 1.90 0.0 0 0 244.76 198.22
  C 248.56 197.53 252.32 191.68 254.38 188.47
  Q 261.63 177.22 265.98 166.10"
/>
<path stroke="#c6936b" vector-effect="non-scaling-stroke" d="
  M 237.62 409.10
  Q 237.16 440.40 240.26 472.03"
/>
<path stroke="#c79c7a" vector-effect="non-scaling-stroke" d="
  M 240.26 472.03
  L 238.60 493.11
  Q 238.55 493.73 239.16 493.59
  Q 245.65 492.08 253.79 489.55
  Q 284.58 479.98 313.01 467.09
  Q 339.15 455.24 364.99 442.76
  C 374.18 438.31 383.48 433.36 393.28 429.10
  Q 403.82 424.51 410.15 418.14
  Q 416.93 411.32 415.15 401.42
  Q 415.08 401.02 414.33 400.66"
/>
<path stroke="#c6936b" vector-effect="non-scaling-stroke" d="
  M 414.33 400.66
  Q 414.45 399.78 415.39 396.65
  Q 416.50 392.91 415.22 387.86"
/>
<path stroke="#c58b5f" vector-effect="non-scaling-stroke" d="
  M 415.22 387.86
  C 415.33 385.15 416.26 380.95 413.67 378.98
  A 1.25 1.23 45.4 0 0 412.19 378.96
  C 375.31 405.73 335.32 428.50 292.12 442.46
  A 1.68 1.67 -41.5 0 1 290.91 442.39
  Q 288.24 441.15 285.99 439.26
  C 274.76 429.88 265.34 417.80 255.44 405.36
  C 249.90 398.42 243.78 391.69 237.19 385.37
  A 0.18 0.18 0.0 0 0 236.88 385.49
  Q 236.22 397.18 237.62 409.10"
/>
<path stroke="#f8c08d" vector-effect="non-scaling-stroke" d="
  M 415.22 387.86
  Q 403.00 394.40 379.27 407.52
  Q 357.12 419.78 325.99 435.93
  Q 311.10 443.66 298.28 448.16
  Q 293.30 449.91 287.92 450.64
  C 279.34 451.82 274.21 447.02 270.22 440.41
  Q 264.56 431.05 259.19 423.17
  Q 251.39 411.74 239.96 401.22
  A 0.52 0.52 0.0 0 0 239.09 401.62
  Q 239.22 405.70 237.62 409.10"
/>
<path stroke="#fad1a8" vector-effect="non-scaling-stroke" d="
  M 414.33 400.66
  Q 414.58 400.73 414.06 401.01
  Q 401.12 408.22 387.85 415.35
  Q 348.04 436.76 305.98 453.23
  Q 284.53 461.63 255.25 469.03
  Q 246.41 471.26 240.26 472.03"
/>
<path stroke="#f8c08d" vector-effect="non-scaling-stroke" d="
  M 92.45 404.92
  Q 95.57 396.61 89.13 391.99
  Q 85.38 389.29 80.29 389.88
  C 74.90 390.50 71.88 395.17 73.78 400.36
  Q 73.95 400.83 74.44 400.71
  C 76.34 400.24 77.10 397.40 77.92 395.92
  Q 78.39 395.06 79.29 395.10
  A 0.98 0.98 0.0 0 1 80.23 396.09
  L 80.18 402.48
  A 1.24 1.24 0.0 0 0 81.62 403.71
  C 83.06 403.47 84.11 402.61 84.50 401.18
  Q 85.17 398.71 86.19 396.57
  A 0.53 0.53 0.0 0 1 87.01 396.39
  Q 87.51 396.81 87.59 397.47
  Q 88.04 401.33 89.00 404.93
  Q 89.47 406.71 91.16 406.50
  Q 92.35 406.35 92.58 407.53
  Q 93.04 409.86 94.94 410.04
  A 1.02 1.01 21.6 0 0 95.83 409.66
  Q 97.63 407.42 98.93 404.48
  Q 99.17 403.93 99.75 404.10
  C 103.04 405.11 103.35 408.07 102.65 410.90
  C 101.33 416.23 105.87 417.65 110.08 417.54
  A 0.35 0.35 0.0 0 0 110.34 416.96
  C 108.22 414.46 105.67 409.75 109.35 407.20
  C 114.09 403.91 111.56 398.30 109.23 394.59
  A 0.71 0.70 53.3 0 0 108.18 394.43
  L 102.72 399.13
  A 0.78 0.78 0.0 0 1 101.47 398.80
  L 99.70 393.68
  A 0.41 0.41 0.0 0 0 99.03 393.52
  C 95.68 396.66 96.04 402.05 92.80 405.15
  Q 92.12 405.81 92.45 404.92"
/>
<path stroke="#f5b996" vector-effect="non-scaling-stroke" d="
  M 209.61 450.78
  Q 210.67 449.95 211.72 449.16
  C 221.53 441.73 221.53 429.72 215.94 419.74
  Q 210.88 410.71 201.30 403.52
  C 196.94 400.25 189.40 402.23 184.97 404.41
  C 174.96 409.34 157.60 424.28 167.67 436.84
  A 1.49 1.45 -64.9 0 1 167.99 437.76
  C 167.99 440.65 166.68 444.07 165.86 446.85
  A 2.37 2.37 0.0 0 0 167.74 449.85
  Q 171.77 450.54 175.61 451.09
  Q 177.37 451.34 179.31 450.88
  C 184.78 449.55 188.24 454.34 191.72 457.60
  Q 198.34 463.81 206.76 461.49
  C 208.87 460.91 211.78 460.52 211.28 457.43
  Q 210.81 454.43 209.41 451.70
  Q 209.13 451.16 209.61 450.78"
/>
<path stroke="#f8c08d" vector-effect="non-scaling-stroke" d="
  M 131.75 416.41
  Q 130.73 410.62 127.95 406.38
  C 123.61 399.76 115.86 403.83 114.77 410.31
  C 113.20 419.66 124.30 422.41 131.31 422.65
  Q 133.27 422.72 135.00 423.65
  Q 140.62 426.66 145.53 426.94
  C 155.63 427.52 154.16 415.15 148.34 411.03
  C 142.16 406.64 136.22 411.21 132.65 416.59
  Q 131.97 417.63 131.75 416.41"
/>
<path stroke="#f5b996" vector-effect="non-scaling-stroke" d="
  M 204.76 432.94
  Q 195.14 429.59 185.02 427.09
  C 181.02 426.11 177.03 424.77 173.00 423.71
  Q 172.53 423.59 172.11 423.81
  C 167.38 426.29 165.26 430.75 169.85 434.85
  Q 173.50 438.11 178.61 440.55
  Q 188.90 445.46 200.65 447.23
  Q 203.12 447.60 205.33 446.82
  Q 208.66 445.65 212.16 444.43
  Q 215.23 443.36 216.15 440.81
  Q 216.34 440.31 216.10 439.82
  C 214.44 436.47 207.84 434.01 204.76 432.94"
/>
</g>
<path fill="#512912" d="
  M 426.17 291.28
  Q 425.51 295.59 423.90 298.32
  Q 421.43 309.15 415.19 315.20
  Q 408.39 321.79 398.01 325.53
  Q 378.81 332.46 358.50 331.28
  Q 357.21 330.74 356.23 330.76
  Q 352.90 329.23 351.04 326.91
  C 351.78 325.40 352.92 323.97 354.70 323.84
  C 356.14 323.73 357.56 323.45 359.02 323.46
  Q 371.71 323.50 384.66 321.71
  C 398.52 319.79 411.07 312.78 416.39 299.11
  Q 416.58 298.61 417.04 298.33
  Q 417.50 298.04 417.59 297.49
  Q 419.39 286.07 417.82 273.42
  A 0.44 0.43 77.2 0 0 417.26 273.06
  C 415.24 273.68 415.13 275.47 413.86 276.84
  Q 412.73 278.07 411.94 279.39
  C 403.06 294.39 388.97 305.16 371.94 308.37
  Q 368.81 308.96 365.76 309.53
  Q 361.04 308.96 358.75 309.21
  Q 356.01 309.50 354.96 312.51
  L 348.33 311.83
  Q 346.72 311.01 345.27 310.16
  Q 343.57 309.16 342.04 309.19
  Q 338.90 309.24 335.75 310.45
  Q 327.51 309.07 321.37 305.56
  A 2.18 2.17 27.0 0 1 320.46 302.78
  Q 321.38 300.69 323.53 300.76
  C 327.09 300.88 330.77 301.87 334.44 302.13
  Q 336.46 302.27 338.31 302.31
  Q 349.33 304.45 359.51 303.60
  Q 380.03 301.90 395.39 287.40
  Q 404.39 278.89 409.20 271.21
  Q 413.02 265.11 416.46 256.46
  Q 425.61 233.41 427.88 208.48
  L 429.25 202.67
  Q 430.49 201.03 429.82 198.55
  Q 429.08 177.51 427.25 160.00
  Q 425.84 146.48 420.37 132.90
  A 1.16 1.15 47.7 0 1 420.41 131.98
  Q 420.65 131.50 420.70 130.98
  Q 420.73 130.59 420.53 130.19
  C 405.64 99.81 379.41 76.03 349.14 60.72
  Q 306.72 39.28 257.93 40.89
  Q 245.30 41.30 230.69 44.92
  Q 230.03 45.09 230.35 45.68
  L 230.70 46.32
  Q 231.06 47.00 230.33 47.22
  C 216.68 51.32 203.66 56.34 192.26 63.25
  Q 189.15 64.33 188.13 66.29
  Q 168.96 83.10 156.38 105.67
  Q 145.77 124.70 138.96 145.56
  Q 138.28 145.61 138.01 145.03
  A 0.68 0.68 0.0 0 0 136.83 144.94
  C 122.16 166.58 123.24 194.24 135.01 217.35
  Q 135.75 218.80 136.94 219.93
  C 138.97 221.84 140.54 224.21 142.57 226.21
  Q 155.60 239.10 172.44 246.73
  L 179.17 249.90
  A 1.40 1.39 -76.5 0 1 179.97 251.21
  C 179.75 259.16 168.24 253.51 165.04 251.84
  Q 151.34 244.71 139.62 233.94
  C 137.77 232.25 131.38 225.94 131.55 223.44
  Q 131.63 222.37 130.83 221.66
  L 126.62 217.86
  Q 125.82 217.13 125.63 218.21
  C 122.89 234.20 127.51 247.00 142.41 254.62
  Q 143.13 254.99 142.64 255.63
  Q 129.97 271.91 109.18 272.93
  C 105.08 273.13 99.20 270.93 96.02 267.65
  C 88.92 260.35 78.93 254.21 68.46 254.50
  Q 66.76 254.55 65.31 255.44
  Q 58.04 259.91 57.06 268.24
  Q 56.35 274.35 56.92 280.57
  Q 58.33 284.53 59.32 286.43
  Q 69.44 305.99 88.81 317.08
  Q 102.60 324.99 116.05 329.12
  C 120.67 330.54 125.00 333.08 129.52 334.44
  Q 134.61 335.96 137.06 331.50
  Q 139.24 327.54 141.24 321.85
  Q 148.90 315.16 157.32 309.08
  Q 159.02 307.86 163.98 305.85
  A 6.08 6.08 0.0 0 1 170.52 307.16
  Q 171.06 307.70 171.73 308.36
  Q 174.48 311.09 170.75 312.11
  Q 161.71 314.57 153.55 321.65
  C 136.80 336.20 136.92 362.09 148.20 379.77
  Q 154.10 389.00 163.47 391.69
  Q 166.85 393.01 170.75 393.20
  C 177.74 393.53 182.34 389.92 185.15 383.92
  Q 188.46 376.82 191.39 370.07
  Q 194.59 362.69 201.05 357.81
  Q 203.37 359.42 204.38 362.85
  L 201.29 368.73
  Q 197.93 371.34 197.03 373.78
  Q 195.05 379.18 193.52 383.98
  C 191.97 388.84 189.59 392.63 185.13 395.59
  C 176.44 401.36 165.81 402.53 156.65 397.66
  Q 151.14 394.73 147.52 390.70
  Q 132.80 374.26 133.25 350.65
  Q 134.07 346.70 133.69 345.31
  Q 133.03 342.89 130.73 342.08
  C 126.52 340.59 121.92 340.52 117.50 339.27
  Q 115.52 338.71 113.64 337.92
  Q 105.78 334.63 97.77 331.54
  Q 97.49 331.44 97.41 331.25
  Q 97.31 331.04 97.37 330.75
  L 97.81 330.73
  Q 98.63 330.68 97.87 330.37
  C 78.52 322.34 61.76 309.54 52.77 290.22
  Q 53.35 289.42 51.14 289.61
  Q 51.70 285.74 50.50 282.37
  Q 49.30 276.69 49.34 271.79
  C 49.47 257.99 58.30 248.30 71.94 247.80
  Q 76.91 247.61 80.84 248.82
  Q 83.78 249.72 88.33 252.37
  Q 95.82 256.71 103.39 260.16
  Q 103.08 261.85 104.14 263.14
  C 109.98 270.25 130.07 258.73 125.93 253.06
  Q 125.04 251.84 124.04 251.82
  Q 122.61 248.22 121.52 245.38
  Q 113.41 224.24 121.76 203.68
  A 2.23 2.15 -42.8 0 0 121.84 202.27
  C 117.66 187.62 116.41 171.12 121.92 156.90
  C 126.43 145.27 134.19 135.00 140.41 124.59
  Q 145.60 115.92 148.77 105.87
  Q 149.60 103.24 151.28 100.95
  Q 161.75 86.65 165.36 68.44
  Q 167.25 58.91 169.01 49.65
  C 171.08 38.74 175.16 28.95 183.37 20.90
  Q 184.78 19.52 186.65 19.06
  C 194.27 17.21 202.44 18.92 209.69 22.33
  Q 217.76 26.13 225.89 30.32
  C 233.97 34.48 242.82 36.41 252.64 35.33
  Q 268.75 33.56 283.75 34.71
  Q 293.62 35.46 303.37 37.13
  Q 318.52 39.72 335.06 45.67
  Q 354.73 52.76 374.19 66.16
  Q 400.82 84.48 419.21 112.27
  C 421.59 115.87 425.81 118.55 429.55 120.56
  Q 438.71 125.47 447.95 130.61
  C 456.45 135.34 462.64 142.88 468.66 150.41
  C 476.47 160.17 478.10 171.21 468.38 180.66
  C 458.58 190.20 445.92 195.82 436.23 205.35
  Q 435.92 205.65 435.85 206.09
  Q 432.98 224.16 428.80 242.47
  C 427.76 247.06 427.15 251.82 426.42 256.50
  Q 423.69 273.88 426.17 291.28
  Z
  M 180.56 62.59
  Q 192.87 53.91 204.47 48.45
  Q 216.81 42.64 221.12 40.53
  L 225.73 39.95
  Q 226.45 39.86 225.84 39.47
  Q 216.68 33.61 206.80 29.81
  C 197.41 26.21 187.25 26.06 181.34 35.50
  Q 178.62 39.84 177.05 45.14
  Q 173.67 56.59 173.11 67.49
  A 0.31 0.31 0.0 0 0 173.60 67.75
  L 180.56 62.59
  Z
  M 431.36 142.21
  Q 431.41 142.99 432.22 144.34
  Q 435.15 156.23 435.53 168.56
  Q 435.66 172.53 436.48 176.85
  Q 437.38 181.56 437.60 185.83
  Q 436.73 190.11 438.23 193.25
  A 0.43 0.43 0.0 0 0 438.89 193.40
  Q 445.56 187.88 453.04 183.61
  C 458.76 180.34 466.03 175.02 467.78 168.25
  C 468.50 165.49 466.34 161.50 464.85 159.32
  Q 455.70 145.89 441.10 134.70
  C 437.79 132.15 431.47 127.70 427.31 128.76
  A 1.30 1.30 0.0 0 0 426.50 130.67
  Q 429.58 136.04 431.36 142.21
  Z"
/>
<path fill="#fdfdfd" d="
  M 221.12 40.53
  Q 208.40 35.88 199.00 35.02
  Q 187.90 34.01 184.26 44.25
  Q 181.33 52.49 180.56 62.59
  L 173.60 67.75
  A 0.31 0.31 0.0 0 1 173.11 67.49
  Q 173.67 56.59 177.05 45.14
  Q 178.62 39.84 181.34 35.50
  C 187.25 26.06 197.41 26.21 206.80 29.81
  Q 216.68 33.61 225.84 39.47
  Q 226.45 39.86 225.73 39.95
  L 221.12 40.53
  Z"
/>
<path fill="#f1aa93" d="
  M 221.12 40.53
  Q 216.81 42.64 204.47 48.45
  Q 192.87 53.91 180.56 62.59
  Q 181.33 52.49 184.26 44.25
  Q 187.90 34.01 199.00 35.02
  Q 208.40 35.88 221.12 40.53
  Z"
/>
<path fill="#fdfdfd" d="
  M 429.82 198.55
  L 429.25 202.67
  L 427.88 208.48
  Q 425.86 210.36 424.40 213.16
  Q 418.69 224.12 415.85 230.42
  Q 410.46 242.41 404.84 254.32
  Q 398.71 267.34 387.49 277.24
  Q 380.55 283.35 371.42 288.28
  Q 365.31 291.57 355.27 295.62
  Q 346.88 299.00 338.31 302.31
  Q 336.46 302.27 334.44 302.13
  C 330.77 301.87 327.09 300.88 323.53 300.76
  Q 321.38 300.69 320.46 302.78
  A 2.18 2.17 27.0 0 0 321.37 305.56
  Q 327.51 309.07 335.75 310.45
  Q 337.63 312.52 341.00 312.75
  Q 344.98 313.03 348.33 311.83
  L 354.96 312.51
  C 358.81 313.07 363.65 313.41 365.76 309.53
  Q 368.81 308.96 371.94 308.37
  C 388.97 305.16 403.06 294.39 411.94 279.39
  Q 412.73 278.07 413.86 276.84
  C 415.13 275.47 415.24 273.68 417.26 273.06
  A 0.44 0.43 77.2 0 1 417.82 273.42
  Q 419.39 286.07 417.59 297.49
  Q 417.50 298.04 417.04 298.33
  Q 416.58 298.61 416.39 299.11
  C 411.07 312.78 398.52 319.79 384.66 321.71
  Q 371.71 323.50 359.02 323.46
  C 357.56 323.45 356.14 323.73 354.70 323.84
  C 352.92 323.97 351.78 325.40 351.04 326.91
  C 326.72 336.01 302.39 344.98 277.56 352.76
  Q 268.13 355.72 260.79 358.77
  C 250.69 362.96 240.62 367.45 229.50 368.69
  Q 216.14 370.19 204.38 362.85
  Q 203.37 359.42 201.05 357.81
  Q 199.18 355.79 194.70 353.37
  C 189.34 350.47 185.94 355.40 184.24 360.02
  Q 181.53 367.39 178.45 374.24
  Q 173.63 384.93 163.47 391.69
  Q 154.10 389.00 148.20 379.77
  C 136.92 362.09 136.80 336.20 153.55 321.65
  Q 161.71 314.57 170.75 312.11
  Q 174.48 311.09 171.73 308.36
  Q 171.06 307.70 170.52 307.16
  A 6.08 6.08 0.0 0 0 163.98 305.85
  Q 159.02 307.86 157.32 309.08
  Q 148.90 315.16 141.24 321.85
  Q 126.90 316.73 112.53 311.61
  C 93.02 304.65 72.43 294.06 62.79 274.65
  Q 62.47 274.01 61.92 274.47
  C 60.87 275.36 60.36 276.17 59.99 277.54
  Q 59.33 279.97 56.92 280.57
  Q 56.35 274.35 57.06 268.24
  Q 58.04 259.91 65.31 255.44
  Q 66.76 254.55 68.46 254.50
  C 78.93 254.21 88.92 260.35 96.02 267.65
  C 99.20 270.93 105.08 273.13 109.18 272.93
  Q 129.97 271.91 142.64 255.63
  Q 143.13 254.99 142.41 254.62
  C 127.51 247.00 122.89 234.20 125.63 218.21
  Q 125.82 217.13 126.62 217.86
  L 130.83 221.66
  Q 131.63 222.37 131.55 223.44
  C 131.38 225.94 137.77 232.25 139.62 233.94
  Q 151.34 244.71 165.04 251.84
  C 168.24 253.51 179.75 259.16 179.97 251.21
  A 1.40 1.39 -76.5 0 0 179.17 249.90
  L 172.44 246.73
  Q 173.55 245.57 173.49 244.08
  Q 173.47 243.55 173.09 243.18
  C 160.47 230.91 148.77 216.70 141.86 200.99
  Q 131.11 176.56 139.21 150.76
  Q 139.99 148.27 138.96 145.56
  Q 145.77 124.70 156.38 105.67
  Q 168.96 83.10 188.13 66.29
  L 192.26 63.25
  C 203.66 56.34 216.68 51.32 230.33 47.22
  Q 231.06 47.00 230.70 46.32
  L 230.35 45.68
  Q 230.03 45.09 230.69 44.92
  Q 245.30 41.30 257.93 40.89
  Q 306.72 39.28 349.14 60.72
  C 379.41 76.03 405.64 99.81 420.53 130.19
  Q 420.73 130.59 420.70 130.98
  Q 420.65 131.50 420.41 131.98
  A 1.16 1.15 47.7 0 0 420.37 132.90
  Q 425.84 146.48 427.25 160.00
  Q 429.08 177.51 429.82 198.55
  Z
  M 209.45 136.21
  Q 214.19 138.12 218.74 139.08
  C 221.23 139.61 225.63 138.97 227.33 136.57
  A 2.13 2.12 37.4 0 0 226.94 133.70
  Q 224.16 131.42 221.17 130.17
  Q 214.70 127.46 207.38 124.96
  Q 206.01 124.50 204.73 123.75
  Q 204.32 123.51 203.89 123.69
  C 192.82 128.37 205.27 134.53 209.45 136.21
  Z
  M 194.5404 139.7964
  A 13.66 11.46 15.7 0 0 184.4911 125.0676
  A 13.66 11.46 15.7 0 0 168.2396 132.4036
  A 13.66 11.46 15.7 0 0 178.2889 147.1324
  A 13.66 11.46 15.7 0 0 194.5404 139.7964
  Z
  M 247.54 148.94
  Q 246.90 148.72 246.33 148.34
  Q 245.61 147.85 245.60 148.72
  Q 245.49 155.70 243.36 162.43
  Q 240.90 170.21 238.30 178.65
  Q 234.81 189.95 239.68 200.59
  Q 240.93 203.33 243.16 204.14
  Q 243.73 204.35 244.32 204.17
  Q 248.20 203.01 251.12 199.56
  C 253.80 196.39 256.40 192.99 258.60 189.45
  Q 264.54 179.91 270.27 170.77
  Q 273.09 166.25 276.96 162.59
  Q 277.32 162.24 277.27 161.74
  Q 277.04 159.49 274.84 159.25
  Q 271.96 158.94 269.46 158.97
  A 2.05 2.05 0.0 0 1 267.67 157.98
  C 265.20 153.85 261.36 151.22 256.49 150.76
  Q 251.52 150.29 247.54 148.94
  Z
  M 337.74 170.49
  C 329.91 166.52 321.96 163.91 314.13 159.98
  Q 313.71 159.76 313.27 159.95
  C 308.13 162.09 306.99 166.21 311.76 169.89
  Q 318.91 175.39 329.15 176.67
  C 332.06 177.04 334.64 177.44 337.15 175.42
  Q 338.99 173.93 338.39 171.33
  Q 338.26 170.76 337.74 170.49
  Z
  M 362.0465 199.9580
  A 14.39 12.18 23.5 0 0 353.7068 183.0502
  A 14.39 12.18 23.5 0 0 335.6535 188.4820
  A 14.39 12.18 23.5 0 0 343.9932 205.3898
  A 14.39 12.18 23.5 0 0 362.0465 199.9580
  Z"
/>
<path fill="#512912" d="
  M 209.45 136.21
  C 205.27 134.53 192.82 128.37 203.89 123.69
  Q 204.32 123.51 204.73 123.75
  Q 206.01 124.50 207.38 124.96
  Q 214.70 127.46 221.17 130.17
  Q 224.16 131.42 226.94 133.70
  A 2.13 2.12 37.4 0 1 227.33 136.57
  C 225.63 138.97 221.23 139.61 218.74 139.08
  Q 214.19 138.12 209.45 136.21
  Z"
/>
<ellipse fill="#f8e0d7" cx="0.00" cy="0.00" transform="translate(181.39,136.10) rotate(15.7)" rx="13.66" ry="11.46"/>
<path fill="#fdfdfd" d="
  M 437.60 185.83
  Q 443.69 182.15 450.32 178.26
  Q 454.59 175.75 457.52 172.34
  C 461.46 167.74 461.12 163.12 457.03 158.99
  Q 454.31 156.24 452.28 154.93
  Q 448.54 152.52 434.25 144.22
  L 431.36 142.21
  Q 429.58 136.04 426.50 130.67
  A 1.30 1.30 0.0 0 1 427.31 128.76
  C 431.47 127.70 437.79 132.15 441.10 134.70
  Q 455.70 145.89 464.85 159.32
  C 466.34 161.50 468.50 165.49 467.78 168.25
  C 466.03 175.02 458.76 180.34 453.04 183.61
  Q 445.56 187.88 438.89 193.40
  A 0.43 0.43 0.0 0 1 438.23 193.25
  Q 436.73 190.11 437.60 185.83
  Z"
/>
<path fill="#f1aa93" d="
  M 432.22 144.34
  Q 433.26 144.48 434.25 144.22
  Q 448.54 152.52 452.28 154.93
  Q 454.31 156.24 457.03 158.99
  C 461.12 163.12 461.46 167.74 457.52 172.34
  Q 454.59 175.75 450.32 178.26
  Q 443.69 182.15 437.60 185.83
  Q 437.38 181.56 436.48 176.85
  Q 435.66 172.53 435.53 168.56
  Q 435.15 156.23 432.22 144.34
  Z"
/>
<path fill="#f8e0d7" d="
  M 138.96 145.56
  Q 139.99 148.27 139.21 150.76
  Q 131.11 176.56 141.86 200.99
  C 148.77 216.70 160.47 230.91 173.09 243.18
  Q 173.47 243.55 173.49 244.08
  Q 173.55 245.57 172.44 246.73
  Q 155.60 239.10 142.57 226.21
  C 140.54 224.21 138.97 221.84 136.94 219.93
  Q 135.75 218.80 135.01 217.35
  C 123.24 194.24 122.16 166.58 136.83 144.94
  A 0.68 0.68 0.0 0 1 138.01 145.03
  Q 138.28 145.61 138.96 145.56
  Z"
/>
<path fill="#512912" d="
  M 247.54 148.94
  Q 251.52 150.29 256.49 150.76
  C 261.36 151.22 265.20 153.85 267.67 157.98
  A 2.05 2.05 0.0 0 0 269.46 158.97
  Q 271.96 158.94 274.84 159.25
  Q 277.04 159.49 277.27 161.74
  Q 277.32 162.24 276.96 162.59
  Q 273.09 166.25 270.27 170.77
  Q 264.54 179.91 258.60 189.45
  C 256.40 192.99 253.80 196.39 251.12 199.56
  Q 248.20 203.01 244.32 204.17
  Q 243.73 204.35 243.16 204.14
  Q 240.93 203.33 239.68 200.59
  Q 234.81 189.95 238.30 178.65
  Q 240.90 170.21 243.36 162.43
  Q 245.49 155.70 245.60 148.72
  Q 245.61 147.85 246.33 148.34
  Q 246.90 148.72 247.54 148.94
  Z
  M 265.98 166.10
  A 1.12 1.11 43.2 0 0 265.95 165.23
  C 264.44 161.88 262.37 157.60 259.03 155.88
  C 252.48 152.52 247.61 164.34 246.08 168.69
  Q 242.20 179.69 241.51 190.01
  C 241.35 192.35 241.70 194.96 242.67 197.12
  A 1.90 1.90 0.0 0 0 244.76 198.22
  C 248.56 197.53 252.32 191.68 254.38 188.47
  Q 261.63 177.22 265.98 166.10
  Z"
/>
<path fill="#fa8b7b" d="
  M 265.98 166.10
  Q 261.63 177.22 254.38 188.47
  C 252.32 191.68 248.56 197.53 244.76 198.22
  A 1.90 1.90 0.0 0 1 242.67 197.12
  C 241.70 194.96 241.35 192.35 241.51 190.01
  Q 242.20 179.69 246.08 168.69
  C 247.61 164.34 252.48 152.52 259.03 155.88
  C 262.37 157.60 264.44 161.88 265.95 165.23
  A 1.12 1.11 43.2 0 1 265.98 166.10
  Z"
/>
<path fill="#512912" d="
  M 314.13 159.98
  C 321.96 163.91 329.91 166.52 337.74 170.49
  Q 338.26 170.76 338.39 171.33
  Q 338.99 173.93 337.15 175.42
  C 334.64 177.44 332.06 177.04 329.15 176.67
  Q 318.91 175.39 311.76 169.89
  C 306.99 166.21 308.13 162.09 313.27 159.95
  Q 313.71 159.76 314.13 159.98
  Z"
/>
<ellipse fill="#f8e0d7" cx="0.00" cy="0.00" transform="translate(348.85,194.22) rotate(23.5)" rx="14.39" ry="12.18"/>
<path fill="#f8e0d7" d="
  M 427.88 208.48
  Q 425.61 233.41 416.46 256.46
  Q 413.02 265.11 409.20 271.21
  Q 404.39 278.89 395.39 287.40
  Q 380.03 301.90 359.51 303.60
  Q 349.33 304.45 338.31 302.31
  Q 346.88 299.00 355.27 295.62
  Q 365.31 291.57 371.42 288.28
  Q 380.55 283.35 387.49 277.24
  Q 398.71 267.34 404.84 254.32
  Q 410.46 242.41 415.85 230.42
  Q 418.69 224.12 424.40 213.16
  Q 425.86 210.36 427.88 208.48
  Z"
/>
<path fill="#935e3d" d="
  M 124.04 251.82
  Q 125.04 251.84 125.93 253.06
  C 130.07 258.73 109.98 270.25 104.14 263.14
  Q 103.08 261.85 103.39 260.16
  Q 113.32 255.31 124.04 251.82
  Z"
/>
<path fill="#f8e0d7" d="
  M 141.24 321.85
  Q 139.24 327.54 137.06 331.50
  Q 134.61 335.96 129.52 334.44
  C 125.00 333.08 120.67 330.54 116.05 329.12
  Q 102.60 324.99 88.81 317.08
  Q 69.44 305.99 59.32 286.43
  Q 58.33 284.53 56.92 280.57
  Q 59.33 279.97 59.99 277.54
  C 60.36 276.17 60.87 275.36 61.92 274.47
  Q 62.47 274.01 62.79 274.65
  C 72.43 294.06 93.02 304.65 112.53 311.61
  Q 126.90 316.73 141.24 321.85
  Z"
/>
<path fill="#935e3d" d="
  M 50.50 282.37
  Q 51.70 285.74 51.14 289.61
  Q 50.20 289.94 50.33 290.64
  Q 37.90 295.49 28.94 302.13
  Q 26.90 303.63 24.83 306.85
  C 22.04 311.17 27.54 315.37 30.87 316.80
  C 41.11 321.22 52.42 323.29 63.49 325.15
  Q 78.12 327.60 96.92 330.36
  Q 97.09 330.39 97.20 330.53
  Q 97.28 330.64 97.37 330.75
  Q 97.31 331.04 97.41 331.25
  Q 97.49 331.44 97.77 331.54
  Q 105.78 334.63 113.64 337.92
  Q 115.52 338.71 117.50 339.27
  C 121.92 340.52 126.52 340.59 130.73 342.08
  Q 133.03 342.89 133.69 345.31
  Q 134.07 346.70 133.25 350.65
  Q 124.76 348.00 116.16 345.38
  Q 99.30 340.26 82.51 334.90
  C 79.81 334.03 77.09 333.68 74.34 333.04
  C 62.25 330.26 58.55 337.59 57.56 348.14
  Q 56.60 358.42 56.77 370.25
  Q 57.10 392.19 57.69 414.41
  Q 57.75 421.06 58.79 424.50
  C 62.04 435.27 77.09 440.58 86.69 444.26
  Q 92.58 446.51 99.64 449.59
  C 107.00 452.79 114.65 455.30 122.12 458.30
  C 150.01 469.51 173.94 479.33 199.26 486.17
  Q 210.16 489.12 225.50 491.27
  Q 228.70 491.72 232.39 491.93
  Q 233.01 491.96 233.00 491.34
  L 232.66 477.08
  Q 232.64 476.55 232.41 476.07
  L 232.17 475.54
  Q 232.43 475.02 232.43 474.75
  Q 231.79 439.50 231.22 404.25
  Q 231.05 394.05 229.67 384.84
  Q 228.84 379.29 225.46 376.81
  Q 223.64 375.47 217.91 374.29
  Q 209.42 372.54 201.29 368.73
  L 204.38 362.85
  Q 216.14 370.19 229.50 368.69
  C 240.62 367.45 250.69 362.96 260.79 358.77
  Q 268.13 355.72 277.56 352.76
  C 302.39 344.98 326.72 336.01 351.04 326.91
  Q 352.90 329.23 356.23 330.76
  L 352.58 332.73
  Q 342.42 337.13 332.20 341.44
  Q 322.31 345.62 293.66 355.08
  Q 266.95 363.90 237.43 373.38
  A 0.56 0.55 -29.7 0 0 237.18 374.28
  C 249.95 388.23 261.93 404.35 273.80 417.45
  Q 282.41 426.94 294.12 435.46
  Q 294.53 435.76 295.04 435.73
  Q 296.56 435.63 298.02 435.04
  Q 303.91 432.67 309.73 429.94
  C 343.39 414.17 375.70 396.63 406.60 375.90
  Q 406.99 375.64 407.42 375.80
  Q 408.78 376.32 409.96 375.45
  Q 425.54 363.99 440.90 350.52
  Q 448.49 343.86 455.19 336.72
  Q 455.58 336.31 455.25 335.85
  Q 442.88 318.56 438.13 312.15
  Q 432.67 304.78 423.90 298.32
  Q 425.51 295.59 426.17 291.28
  C 437.37 302.24 448.74 313.42 457.87 325.77
  C 461.45 330.60 466.15 338.47 461.58 343.87
  Q 459.12 346.79 455.43 348.87
  Q 448.18 352.96 441.50 357.60
  Q 428.97 366.32 423.04 378.65
  Q 421.44 381.97 421.83 388.38
  Q 422.36 396.87 422.90 404.67
  C 423.27 410.00 422.12 415.91 419.22 420.14
  Q 417.24 423.03 412.99 425.45
  Q 407.65 428.50 402.45 431.33
  Q 362.47 453.09 340.82 462.76
  Q 297.81 481.97 277.67 489.70
  Q 257.57 497.41 238.91 498.34
  Q 223.78 499.10 207.87 495.61
  Q 187.72 491.18 164.49 482.18
  C 146.76 475.30 128.97 469.12 111.02 462.49
  Q 101.47 458.96 89.15 453.65
  Q 75.70 447.86 63.29 439.51
  C 58.87 436.54 53.38 431.30 51.61 426.08
  Q 51.04 424.40 50.96 421.34
  Q 50.69 411.03 50.39 401.75
  Q 49.48 373.14 52.58 346.18
  C 53.36 339.36 53.21 333.49 46.22 330.13
  C 42.75 328.46 39.36 326.68 35.84 325.11
  Q 25.11 320.30 16.80 315.66
  C 14.52 314.38 11.37 310.44 12.71 307.51
  Q 14.04 304.58 17.13 302.43
  Q 24.89 297.04 33.27 292.55
  C 39.16 289.40 44.76 285.89 50.50 282.37
  Z
  M 237.62 409.10
  Q 237.16 440.40 240.26 472.03
  L 238.60 493.11
  Q 238.55 493.73 239.16 493.59
  Q 245.65 492.08 253.79 489.55
  Q 284.58 479.98 313.01 467.09
  Q 339.15 455.24 364.99 442.76
  C 374.18 438.31 383.48 433.36 393.28 429.10
  Q 403.82 424.51 410.15 418.14
  Q 416.93 411.32 415.15 401.42
  Q 415.08 401.02 414.33 400.66
  Q 414.45 399.78 415.39 396.65
  Q 416.50 392.91 415.22 387.86
  C 415.33 385.15 416.26 380.95 413.67 378.98
  A 1.25 1.23 45.4 0 0 412.19 378.96
  C 375.31 405.73 335.32 428.50 292.12 442.46
  A 1.68 1.67 -41.5 0 1 290.91 442.39
  Q 288.24 441.15 285.99 439.26
  C 274.76 429.88 265.34 417.80 255.44 405.36
  C 249.90 398.42 243.78 391.69 237.19 385.37
  A 0.18 0.18 0.0 0 0 236.88 385.49
  Q 236.22 397.18 237.62 409.10
  Z"
/>
<path fill="#f9c899" d="
  M 52.77 290.22
  C 61.76 309.54 78.52 322.34 97.87 330.37
  Q 98.63 330.68 97.81 330.73
  L 97.37 330.75
  Q 97.28 330.64 97.20 330.53
  Q 97.09 330.39 96.92 330.36
  Q 78.12 327.60 63.49 325.15
  C 52.42 323.29 41.11 321.22 30.87 316.80
  C 27.54 315.37 22.04 311.17 24.83 306.85
  Q 26.90 303.63 28.94 302.13
  Q 37.90 295.49 50.33 290.64
  Q 51.90 289.71 52.77 290.22
  Z"
/>
<path fill="#f9c899" d="
  M 423.90 298.32
  Q 432.67 304.78 438.13 312.15
  Q 442.88 318.56 455.25 335.85
  Q 455.58 336.31 455.19 336.72
  Q 448.49 343.86 440.90 350.52
  Q 425.54 363.99 409.96 375.45
  Q 408.78 376.32 407.42 375.80
  Q 406.99 375.64 406.60 375.90
  C 375.70 396.63 343.39 414.17 309.73 429.94
  Q 303.91 432.67 298.02 435.04
  Q 296.56 435.63 295.04 435.73
  Q 294.53 435.76 294.12 435.46
  Q 282.41 426.94 273.80 417.45
  C 261.93 404.35 249.95 388.23 237.18 374.28
  A 0.56 0.55 -29.7 0 1 237.43 373.38
  Q 266.95 363.90 293.66 355.08
  Q 322.31 345.62 332.20 341.44
  Q 342.42 337.13 352.58 332.73
  L 358.50 331.28
  Q 378.81 332.46 398.01 325.53
  Q 408.39 321.79 415.19 315.20
  Q 421.43 309.15 423.90 298.32
  Z"
/>
<path fill="#935e3d" d="
  M 348.33 311.83
  Q 344.98 313.03 341.00 312.75
  Q 337.63 312.52 335.75 310.45
  Q 338.90 309.24 342.04 309.19
  Q 343.57 309.16 345.27 310.16
  Q 346.72 311.01 348.33 311.83
  Z"
/>
<path fill="#935e3d" d="
  M 365.76 309.53
  C 363.65 313.41 358.81 313.07 354.96 312.51
  Q 356.01 309.50 358.75 309.21
  Q 361.04 308.96 365.76 309.53
  Z"
/>
<path fill="#f9c899" d="
  M 133.25 350.65
  Q 132.80 374.26 147.52 390.70
  Q 151.14 394.73 156.65 397.66
  C 165.81 402.53 176.44 401.36 185.13 395.59
  C 189.59 392.63 191.97 388.84 193.52 383.98
  Q 195.05 379.18 197.03 373.78
  Q 197.93 371.34 201.29 368.73
  Q 209.42 372.54 217.91 374.29
  Q 223.64 375.47 225.46 376.81
  Q 228.84 379.29 229.67 384.84
  Q 231.05 394.05 231.22 404.25
  Q 231.79 439.50 232.43 474.75
  Q 232.43 475.02 232.17 475.54
  C 194.65 466.64 158.37 455.35 123.06 441.62
  Q 92.23 429.62 59.78 412.72
  Q 59.35 412.50 59.03 412.86
  L 57.69 414.41
  Q 57.10 392.19 56.77 370.25
  Q 56.60 358.42 57.56 348.14
  C 58.55 337.59 62.25 330.26 74.34 333.04
  C 77.09 333.68 79.81 334.03 82.51 334.90
  Q 99.30 340.26 116.16 345.38
  Q 124.76 348.00 133.25 350.65
  Z
  M 92.45 404.92
  Q 95.57 396.61 89.13 391.99
  Q 85.38 389.29 80.29 389.88
  C 74.90 390.50 71.88 395.17 73.78 400.36
  Q 73.95 400.83 74.44 400.71
  C 76.34 400.24 77.10 397.40 77.92 395.92
  Q 78.39 395.06 79.29 395.10
  A 0.98 0.98 0.0 0 1 80.23 396.09
  L 80.18 402.48
  A 1.24 1.24 0.0 0 0 81.62 403.71
  C 83.06 403.47 84.11 402.61 84.50 401.18
  Q 85.17 398.71 86.19 396.57
  A 0.53 0.53 0.0 0 1 87.01 396.39
  Q 87.51 396.81 87.59 397.47
  Q 88.04 401.33 89.00 404.93
  Q 89.47 406.71 91.16 406.50
  Q 92.35 406.35 92.58 407.53
  Q 93.04 409.86 94.94 410.04
  A 1.02 1.01 21.6 0 0 95.83 409.66
  Q 97.63 407.42 98.93 404.48
  Q 99.17 403.93 99.75 404.10
  C 103.04 405.11 103.35 408.07 102.65 410.90
  C 101.33 416.23 105.87 417.65 110.08 417.54
  A 0.35 0.35 0.0 0 0 110.34 416.96
  C 108.22 414.46 105.67 409.75 109.35 407.20
  C 114.09 403.91 111.56 398.30 109.23 394.59
  A 0.71 0.70 53.3 0 0 108.18 394.43
  L 102.72 399.13
  A 0.78 0.78 0.0 0 1 101.47 398.80
  L 99.70 393.68
  A 0.41 0.41 0.0 0 0 99.03 393.52
  C 95.68 396.66 96.04 402.05 92.80 405.15
  Q 92.12 405.81 92.45 404.92
  Z
  M 209.61 450.78
  Q 210.67 449.95 211.72 449.16
  C 221.53 441.73 221.53 429.72 215.94 419.74
  Q 210.88 410.71 201.30 403.52
  C 196.94 400.25 189.40 402.23 184.97 404.41
  C 174.96 409.34 157.60 424.28 167.67 436.84
  A 1.49 1.45 -64.9 0 1 167.99 437.76
  C 167.99 440.65 166.68 444.07 165.86 446.85
  A 2.37 2.37 0.0 0 0 167.74 449.85
  Q 171.77 450.54 175.61 451.09
  Q 177.37 451.34 179.31 450.88
  C 184.78 449.55 188.24 454.34 191.72 457.60
  Q 198.34 463.81 206.76 461.49
  C 208.87 460.91 211.78 460.52 211.28 457.43
  Q 210.81 454.43 209.41 451.70
  Q 209.13 451.16 209.61 450.78
  Z
  M 131.75 416.41
  Q 130.73 410.62 127.95 406.38
  C 123.61 399.76 115.86 403.83 114.77 410.31
  C 113.20 419.66 124.30 422.41 131.31 422.65
  Q 133.27 422.72 135.00 423.65
  Q 140.62 426.66 145.53 426.94
  C 155.63 427.52 154.16 415.15 148.34 411.03
  C 142.16 406.64 136.22 411.21 132.65 416.59
  Q 131.97 417.63 131.75 416.41
  Z"
/>
<path fill="#f8e0d7" d="
  M 201.05 357.81
  Q 194.59 362.69 191.39 370.07
  Q 188.46 376.82 185.15 383.92
  C 182.34 389.92 177.74 393.53 170.75 393.20
  Q 166.85 393.01 163.47 391.69
  Q 173.63 384.93 178.45 374.24
  Q 181.53 367.39 184.24 360.02
  C 185.94 355.40 189.34 350.47 194.70 353.37
  Q 199.18 355.79 201.05 357.81
  Z"
/>
<path fill="#f7b780" d="
  M 415.22 387.86
  Q 403.00 394.40 379.27 407.52
  Q 357.12 419.78 325.99 435.93
  Q 311.10 443.66 298.28 448.16
  Q 293.30 449.91 287.92 450.64
  C 279.34 451.82 274.21 447.02 270.22 440.41
  Q 264.56 431.05 259.19 423.17
  Q 251.39 411.74 239.96 401.22
  A 0.52 0.52 0.0 0 0 239.09 401.62
  Q 239.22 405.70 237.62 409.10
  Q 236.22 397.18 236.88 385.49
  A 0.18 0.18 0.0 0 1 237.19 385.37
  C 243.78 391.69 249.90 398.42 255.44 405.36
  C 265.34 417.80 274.76 429.88 285.99 439.26
  Q 288.24 441.15 290.91 442.39
  A 1.68 1.67 -41.5 0 0 292.12 442.46
  C 335.32 428.50 375.31 405.73 412.19 378.96
  A 1.25 1.23 45.4 0 1 413.67 378.98
  C 416.26 380.95 415.33 385.15 415.22 387.86
  Z"
/>
<path fill="#f9c899" d="
  M 415.22 387.86
  Q 416.50 392.91 415.39 396.65
  Q 414.45 399.78 414.33 400.66
  Q 414.58 400.73 414.06 401.01
  Q 401.12 408.22 387.85 415.35
  Q 348.04 436.76 305.98 453.23
  Q 284.53 461.63 255.25 469.03
  Q 246.41 471.26 240.26 472.03
  Q 237.16 440.40 237.62 409.10
  Q 239.22 405.70 239.09 401.62
  A 0.52 0.52 0.0 0 1 239.96 401.22
  Q 251.39 411.74 259.19 423.17
  Q 264.56 431.05 270.22 440.41
  C 274.21 447.02 279.34 451.82 287.92 450.64
  Q 293.30 449.91 298.28 448.16
  Q 311.10 443.66 325.99 435.93
  Q 357.12 419.78 379.27 407.52
  Q 403.00 394.40 415.22 387.86
  Z"
/>
<path fill="#f7b780" d="
  M 92.80 405.15
  C 96.04 402.05 95.68 396.66 99.03 393.52
  A 0.41 0.41 0.0 0 1 99.70 393.68
  L 101.47 398.80
  A 0.78 0.78 0.0 0 0 102.72 399.13
  L 108.18 394.43
  A 0.71 0.70 53.3 0 1 109.23 394.59
  C 111.56 398.30 114.09 403.91 109.35 407.20
  C 105.67 409.75 108.22 414.46 110.34 416.96
  A 0.35 0.35 0.0 0 1 110.08 417.54
  C 105.87 417.65 101.33 416.23 102.65 410.90
  C 103.35 408.07 103.04 405.11 99.75 404.10
  Q 99.17 403.93 98.93 404.48
  Q 97.63 407.42 95.83 409.66
  A 1.02 1.01 21.6 0 1 94.94 410.04
  Q 93.04 409.86 92.58 407.53
  Q 92.35 406.35 91.16 406.50
  Q 89.47 406.71 89.00 404.93
  Q 88.04 401.33 87.59 397.47
  Q 87.51 396.81 87.01 396.39
  A 0.53 0.53 0.0 0 0 86.19 396.57
  Q 85.17 398.71 84.50 401.18
  C 84.11 402.61 83.06 403.47 81.62 403.71
  A 1.24 1.24 0.0 0 1 80.18 402.48
  L 80.23 396.09
  A 0.98 0.98 0.0 0 0 79.29 395.10
  Q 78.39 395.06 77.92 395.92
  C 77.10 397.40 76.34 400.24 74.44 400.71
  Q 73.95 400.83 73.78 400.36
  C 71.88 395.17 74.90 390.50 80.29 389.88
  Q 85.38 389.29 89.13 391.99
  Q 95.57 396.61 92.45 404.92
  Q 92.12 405.81 92.80 405.15
  Z"
/>
<path fill="#fad9b6" d="
  M 414.33 400.66
  Q 415.08 401.02 415.15 401.42
  Q 416.93 411.32 410.15 418.14
  Q 403.82 424.51 393.28 429.10
  C 383.48 433.36 374.18 438.31 364.99 442.76
  Q 339.15 455.24 313.01 467.09
  Q 284.58 479.98 253.79 489.55
  Q 245.65 492.08 239.16 493.59
  Q 238.55 493.73 238.60 493.11
  L 240.26 472.03
  Q 246.41 471.26 255.25 469.03
  Q 284.53 461.63 305.98 453.23
  Q 348.04 436.76 387.85 415.35
  Q 401.12 408.22 414.06 401.01
  Q 414.58 400.73 414.33 400.66
  Z"
/>
<path fill="#f1aa93" d="
  M 209.41 451.70
  Q 210.81 454.43 211.28 457.43
  C 211.78 460.52 208.87 460.91 206.76 461.49
  Q 198.34 463.81 191.72 457.60
  C 188.24 454.34 184.78 449.55 179.31 450.88
  Q 177.37 451.34 175.61 451.09
  Q 171.77 450.54 167.74 449.85
  A 2.37 2.37 0.0 0 1 165.86 446.85
  C 166.68 444.07 167.99 440.65 167.99 437.76
  A 1.49 1.45 -64.9 0 0 167.67 436.84
  C 157.60 424.28 174.96 409.34 184.97 404.41
  C 189.40 402.23 196.94 400.25 201.30 403.52
  Q 210.88 410.71 215.94 419.74
  C 221.53 429.72 221.53 441.73 211.72 449.16
  Q 210.67 449.95 209.61 450.78
  Q 209.13 451.16 209.41 451.70
  Z
  M 204.76 432.94
  Q 195.14 429.59 185.02 427.09
  C 181.02 426.11 177.03 424.77 173.00 423.71
  Q 172.53 423.59 172.11 423.81
  C 167.38 426.29 165.26 430.75 169.85 434.85
  Q 173.50 438.11 178.61 440.55
  Q 188.90 445.46 200.65 447.23
  Q 203.12 447.60 205.33 446.82
  Q 208.66 445.65 212.16 444.43
  Q 215.23 443.36 216.15 440.81
  Q 216.34 440.31 216.10 439.82
  C 214.44 436.47 207.84 434.01 204.76 432.94
  Z"
/>
<path fill="#f7b780" d="
  M 131.75 416.41
  Q 131.97 417.63 132.65 416.59
  C 136.22 411.21 142.16 406.64 148.34 411.03
  C 154.16 415.15 155.63 427.52 145.53 426.94
  Q 140.62 426.66 135.00 423.65
  Q 133.27 422.72 131.31 422.65
  C 124.30 422.41 113.20 419.66 114.77 410.31
  C 115.86 403.83 123.61 399.76 127.95 406.38
  Q 130.73 410.62 131.75 416.41
  Z"
/>
<path fill="#fad9b6" d="
  M 232.17 475.54
  L 232.41 476.07
  Q 232.64 476.55 232.66 477.08
  L 233.00 491.34
  Q 233.01 491.96 232.39 491.93
  Q 228.70 491.72 225.50 491.27
  Q 210.16 489.12 199.26 486.17
  C 173.94 479.33 150.01 469.51 122.12 458.30
  C 114.65 455.30 107.00 452.79 99.64 449.59
  Q 92.58 446.51 86.69 444.26
  C 77.09 440.58 62.04 435.27 58.79 424.50
  Q 57.75 421.06 57.69 414.41
  L 59.03 412.86
  Q 59.35 412.50 59.78 412.72
  Q 92.23 429.62 123.06 441.62
  C 158.37 455.35 194.65 466.64 232.17 475.54
  Z"
/>
<path fill="#f9c899" d="
  M 204.76 432.94
  C 207.84 434.01 214.44 436.47 216.10 439.82
  Q 216.34 440.31 216.15 440.81
  Q 215.23 443.36 212.16 444.43
  Q 208.66 445.65 205.33 446.82
  Q 203.12 447.60 200.65 447.23
  Q 188.90 445.46 178.61 440.55
  Q 173.50 438.11 169.85 434.85
  C 165.26 430.75 167.38 426.29 172.11 423.81
  Q 172.53 423.59 173.00 423.71
  C 177.03 424.77 181.02 426.11 185.02 427.09
  Q 195.14 429.59 204.76 432.94
  Z"
/>
</svg>
