<svg xmlns="http://www.w3.org/2000/svg" version="1.2" baseProfile="tiny" viewBox="0 0 308 275"><g stroke-width="2" fill="none"><path stroke="#371709" vector-effect="non-scaling-stroke" d="M267.84 275c-.21-5.54 1.54-11.6.74-18.28q-2.83-23.66-13.77-44.79-3.44-6.65-7.5-10.5-.46-.43-1.08-.43l-13.2-.08a.66.66 0 0 1-.29-1.25q1.01-.5 1.48-1.9"/><path stroke="#a89488" vector-effect="non-scaling-stroke" d="m234.22 197.77 11.34.01"/><path stroke="#371709" vector-effect="non-scaling-stroke" d="M245.56 197.78q-.82 1.34-.02 1.32 8.02-.22 15.71-2.29.46-.13.5-.61.07-.71-.35-.78"/><path stroke="#a89488" vector-effect="non-scaling-stroke" d="M261.4 195.42c27.69-8.15 31.61-34.73 30.14-59.65"/><path stroke="#371709" vector-effect="non-scaling-stroke" d="M291.54 135.77q.99 1.27 1.36-.64.1-.55.01-1.27-1.31-10.49-3.58-19.42-.43-1.71-1.78-1.42"/><path stroke="#a89488" vector-effect="non-scaling-stroke" d="M287.55 113.02q-.56-.09-.97.16"/><path stroke="#371709" vector-effect="non-scaling-stroke" d="M286.58 113.18q-.75-1.07-1.98.33-.4.46-.83.02l-.51-.51q-.47-.46-.12-1.01 10.49-17.07 13.76-36.91.12-.74-.48-.29l-.92.67"/><path stroke="#a89488" vector-effect="non-scaling-stroke" d="m295.5 75.48.75-7.47q.06-.57-.5-.74l-4.26-1.26"/><path stroke="#371709" vector-effect="non-scaling-stroke" d="M291.49 66.01q-.16-1.54-.95-1.52-.53.01-.58 0-20.83-3.65-40.93 2.52a1.28 1.28 0 0 1-1.29-2.12q1.5-1.52.54-2.03"/><path stroke="#a89488" vector-effect="non-scaling-stroke" d="M248.28 62.86q-.02-.22-.05-.43"/><path stroke="#371709" vector-effect="non-scaling-stroke" d="M248.23 62.43q-21.57-13.57-47.56-16.01c-1.84-.17-4.58.03-6.79-.42q-4.34-.89-4.96-.93-7.16-.47-13.5 1.55"/><path stroke="#a89488" vector-effect="non-scaling-stroke" d="M175.42 46.62q-.72.63-2.95.44"/><path stroke="#371709" vector-effect="non-scaling-stroke" d="M172.47 47.06c-6.56-2.3-15.88.41-22.62 1.69-29.06 5.52-53.53 23.73-62.95 52.43-2.73 8.34-5.34 17.89-5.67 27.02-.16 4.51-1.1 8.49-.7 13.16q.38 4.32-.94 8.92c-2.75 9.55-1.93 19.98 2.61 28.86 7.95 15.53 24.37 21.63 41.33 21.71"/><path stroke="#451a09" vector-effect="non-scaling-stroke" d="M123.53 200.85q2.31-.31 2.75 2.36.07.45-.37.53l-12.79 2.19q-.47.08-.82.4-.78.75-1.87.58-.47-.07-.93.08c-6.6 2.15-12.47 3.23-16.23 10.13q-.22.42.05.81l2.68 3.75q.32.45-.11.79c-1.33 1.04-1.84 1.76-1.5 3.55q2.02 10.54 9.26 18.61"/><path stroke="#371709" vector-effect="non-scaling-stroke" d="M103.65 244.63q1.68.5 1.9 1.59a.68.68 0 0 1-.41.76c-2.86 1.17-2.48 2.93-3.4 5.3q-.16.43-.04.87c1.66 6.07 7.84 12.55 14.65 11.07 3.9-.85 7.98-4.47 6.05-8.91q-2.94-6.75-10.29-8.63a.69.68-60.8 0 1-.32-1.14c2.99-3.09 10.36 3.92 11.67 6.44 1.1 2.13 1.04 5.34 3.72 7.41q.45.35 1.02.35 2.01-.01 3.54 1.28a1.08 1.05 60.3 0 0 .84.24l2.43-.33q.73-.1.2.42-.76.73-.42 2.1"/><path stroke="#a89488" vector-effect="non-scaling-stroke" d="m134.79 263.45-2.36-.2q-.6-.05-.67.55-.06.56.25 1.42"/><path stroke="#a58574" vector-effect="non-scaling-stroke" d="m132.01 265.22-.48 9.78"/><path stroke="#a89488" vector-effect="non-scaling-stroke" d="M109.07 63.03q-.16-.25-.59-.44"/><path stroke="#371709" vector-effect="non-scaling-stroke" d="M108.48 62.59q.32-.15.45-.43a.47.47 0 0 0-.36-.67c-6.15-.84-35.04 1.54-34.35 8.24q1.5 14.77 8.32 27.91a.85.78 4.5 0 0 .29.31c1.81 1.13 2.92.29 3.58-1.52q7.12-19.58 23.2-32.45a.59.59 0 0 0-.15-1.01q-.09-.03-.39.06"/><path stroke="#8d817f" vector-effect="non-scaling-stroke" d="M108.48 62.59c-10.17.3-20.26.87-30.01 4.09-7.08 2.35 2.91 26.53 5.29 31q.35.66.64-.03l2.64-6.39"/><path stroke="#8d564b" vector-effect="non-scaling-stroke" d="M87.04 91.26q6.3-12.99 15.53-22.49"/><path stroke="#8d817f" vector-effect="non-scaling-stroke" d="m102.57 68.77 6.5-5.74"/><path stroke="#fed3ca" vector-effect="non-scaling-stroke" d="M102.57 68.77q-9.81-.84-18.06 3.77-2.15 1.2-1.76 4.18 1.16 8.69 4.29 14.54"/><path stroke="#371709" vector-effect="non-scaling-stroke" d="M281.83 232.12q-.96-1.63-1.66.77-.13.45-.57.61-.61.23-.79.57-3.36 6.35-9.07 10.76-.39.3-.44.79c-.42 4.5.95 9.18.86 13.62q-.08 3.46 3 1.87 13.68-7.09 18.63-21.72.36-1.05-.74-.92l-.51.06"/><path stroke="#a89488" vector-effect="non-scaling-stroke" d="M290.54 238.53c1.04-5.73-3.07-12.64-8.71-6.41"/><path stroke="#8d817f" vector-effect="non-scaling-stroke" d="M290.54 238.53c-1.78 9.56-10.06 17.53-18.5 21.78q-.53.27-.52-.32.1-6.71-1.3-13.3a1 .99-24.7 0 1 .37-.98c5.45-4.13 7.66-8.5 11.24-13.59M248.23 62.43q-24.07-12.56-49.98-14.93-10.12-.92-22.83-.88M172.47 47.06c-44 2.57-79.66 21.56-87.93 68.5q-2.49 14.09-2.24 24.73.07 2.95-.68 5.67c-6.78 24.67 1.81 45.03 26.85 51.58q3.86 1.01 12.51 1.76"/><path stroke="#2a0801" vector-effect="non-scaling-stroke" d="m120.98 199.3 3.71.18q.35.02.31.38l-.04.28q-.06.46-.53.55l-.9.16"/><path stroke="#8d817f" vector-effect="non-scaling-stroke" d="M248.28 62.86c-1.07.93-2.27 1.88-1.98 3.39.4 2.06 1.98 2.17 3.76 1.66q20.42-5.89 41.43-1.9M295.5 75.48q-3.13 19.97-13.95 36.8-.32.5.07.94l1.66 1.91a.84.83 60.1 0 0 .9.25q1.63-.56 2.4-2.2M287.55 113.02q3.34 11.12 3.99 22.75M261.4 195.42q-8.08 2.06-15.84 2.36M234.22 197.77c-1.74-.29-4.15 1.26-3.21 3.23 1.2 2.53 4.04 1.66 6.28 1.82"/><path stroke="#fbefea" vector-effect="non-scaling-stroke" d="M237.29 202.82c13.59 21.85 20.62 46.86 17.78 72.18M136.18 275l.28-9.23a.66.66 0 0 0-.48-.66q-1.94-.53-3.97.11"/><path stroke="#8d817f" vector-effect="non-scaling-stroke" d="m134.79 263.45 7.93 1.23"/><path stroke="#9b8580" vector-effect="non-scaling-stroke" d="M142.72 264.68q17.66 1.79 35.29-.13"/><path stroke="#8d817f" vector-effect="non-scaling-stroke" d="M178.01 264.55c4.62-.3 21.63-2.14 24.72-5.1"/><path stroke="#a89488" vector-effect="non-scaling-stroke" d="M202.73 259.45q.52.03.69.38"/><path stroke="#8d817f" vector-effect="non-scaling-stroke" d="M203.42 259.83c2.39 6.54 9.25 8.35 15.59 7.19q13.59-2.48 23.18-12.17c1.32-1.33 1.67-3.12-.03-4.28a2.04 2.04 0 0 0-2.62.28c-5.51 5.74-25.49 18.53-31.66 7.49-2.97-5.3 4.21-8.35 8-9.75 5.76-2.11 14.54-5.94 18.06-11.25a2.43 2.43 0 0 0-.57-3.3q-1.11-.82-2.09-.24"/><path stroke="#a89488" vector-effect="non-scaling-stroke" d="M231.28 233.8q-.5-.02-.58-.28"/><path stroke="#8d817f" vector-effect="non-scaling-stroke" d="M230.7 233.52q3.18-8.49 3.65-17.47.03-.5-.25-.91c-4.01-5.98-14.24-9.17-21.4-10.46"/><path stroke="#9b8580" vector-effect="non-scaling-stroke" d="m212.7 204.68-7.1-1.21"/><path stroke="#a5e5fa" vector-effect="non-scaling-stroke" d="M205.6 203.47q1.73-4.23-1.9-6.33-.46-.26-.96-.1-3.26 1.04-3.53 5.14"/><path stroke="#9b8580" vector-effect="non-scaling-stroke" d="M199.21 202.18q-23.99-3.11-48.15-1.93-6.68.32-13.48.55-.51.02-.74-.42-.97-1.85-2.95-1.67"/><path stroke="#a5e5fa" vector-effect="non-scaling-stroke" d="M133.89 198.71q-1.42-2.09-5.06-1.21"/><path stroke="#fbefea" vector-effect="non-scaling-stroke" d="M128.83 197.5q-1.27-.61-4.06-1.05-8.1-1.3-16.85-5.06c-18.64-8.02-24.67-23.11-24.58-42.58q0-.45-.43-.32l-.41.13a.48.47-9.4 0 0-.33.45c.04 2.93-1 5.72-1.04 8.4q-.05 2.94-.11 5.88c-.05 2.95.79 5.57 1.4 8.43 2.47 11.45 11.03 19.58 22.15 22.91 1.19.36 2.44 1.05 4.18 1.32q9.11 1.39 14.39 1.81.5.03.76.46l.6.96"/><path stroke="#9b8580" vector-effect="non-scaling-stroke" d="m124.5 199.24-3.52.06"/><path stroke="#fed3ca" vector-effect="non-scaling-stroke" d="M268.31 81.25q-5.22-1.09-10.48-.68a.16.16 0 0 0-.04.31q8.38 2.9 15.91 7.55a.6.59-21.6 0 1-.47 1.08l-9.44-2.54a.33.33 0 0 0-.32.55q8.56 8.87 14.16 19.88.21.42.29.45a.59.5 27.2 0 0 .74-.17q8.24-15.5 12.86-32.43.47-1.71-1.27-2.02-18.71-3.26-37.08 1.38a.76.76 0 0 0 .07 1.48q7.93 1.24 15.39 4.06a.57.57 0 0 1-.32 1.1"/><path stroke="#fbefea" vector-effect="non-scaling-stroke" d="M251.06 195.91c1.29.04 3.27-.72 4.23-.86 23.02-3.39 33.09-19.35 34.32-41.55.73-13.21.88-25.81-2.77-37.14q-.18-.57-.72-.31-1.48.71-3.02.23-.63-.2-.54.45c4.57 33.77-4.08 69.7-41.68 78.95a.17.17 0 0 0 .04.34c3.41.07 6.84-.23 10.14-.11"/><path stroke="#9b8580" vector-effect="non-scaling-stroke" d="M141.75 125.15a1.34 1.34 0 0 0-2.52.9q1 2.82-1.74 4.21a.75.74-32.9 0 0-.25 1.13l.86 1.06q.42.52 1 .17 4.37-2.7 2.65-7.47M193.25 131.26q-5.14.6-4.78-4.51a1.28 1.28 0 0 0-2.5-.44c-1.35 4.78 1.91 7.66 6.49 7.91 1.5.08 2.56-.7 1.86-2.34a1.04 1.03 74.7 0 0-1.07-.62"/><path stroke="#a5e5fa" vector-effect="non-scaling-stroke" d="M199.85 153.8c.91 10.53 23.37 4.19 12.67-2.96"/><path stroke="#8d817f" vector-effect="non-scaling-stroke" d="M212.52 150.84c8.06-17.2-18.94-20.16-17.11-4.22q.49 4.26 4.44 7.18"/><path stroke="#33687b" vector-effect="non-scaling-stroke" d="M212.52 150.84q-2.99-2.18-7.28-.87"/><path stroke="#787776" vector-effect="non-scaling-stroke" d="m205.24 149.97-2.98 1.23"/><path stroke="#33687b" vector-effect="non-scaling-stroke" d="M202.26 151.2q-1.78.99-2.41 2.6"/><path stroke="#90dbf1" vector-effect="non-scaling-stroke" d="M202.26 151.2q.49.22.17.75-1.25 2.09.43 3.46a1.42 1.4-24.1 0 0 .88.33c6.75.22 5.68-5.97 1.5-5.77"/><path stroke="#a5e5fa" vector-effect="non-scaling-stroke" d="M119.54 151.12c-.8 1.33-2.29 2.82-1.99 4.44.86 4.68 14.21 5.64 15.24-.62"/><path stroke="#9b8580" vector-effect="non-scaling-stroke" d="M132.79 154.94c10.82-8.33-.18-23.52-10.55-15.88q-5.46 4.02-2.7 12.06"/><path stroke="#426c7b" vector-effect="non-scaling-stroke" d="M132.79 154.94c-.94-4.47-6.05-4.97-9.78-4.59"/><path stroke="#877b77" vector-effect="non-scaling-stroke" d="M123.01 150.35q-1.9.1-2.26.93"/><path stroke="#426c7b" vector-effect="non-scaling-stroke" d="m120.75 151.28-1.21-.16"/><path stroke="#90dbf1" vector-effect="non-scaling-stroke" d="M120.75 151.28c-3.53 2.71.03 6.89 3.1 4.02q2.31-2.14-.84-4.95"/><path stroke="#fbefea" vector-effect="non-scaling-stroke" d="M239.579 151.77a10.74 8.04-.8 0 0-10.851-7.89 10.74 8.04-.8 0 0-10.627 8.19 10.74 8.04-.8 0 0 10.851 7.89 10.74 8.04-.8 0 0 10.627-8.19M112.963 153.117a10.15 7.53-4.2 0 0-10.674-6.767 10.15 7.53-4.2 0 0-9.572 8.253 10.15 7.53-4.2 0 0 10.674 6.767 10.15 7.53-4.2 0 0 9.572-8.253"/><path stroke="#9b8580" vector-effect="non-scaling-stroke" d="M163.22 154.05q3.75 4.37 9 3.4c3.92-.72 5.15-5.21 2.64-8.22a1.36 1.36 0 0 0-2.21 1.58l.87 1.42a.72.71-45.6 0 1 0 .75c-2.56 4.3-7.04.39-9.9-2.15a.9.89-38.4 0 0-1.03-.11l-6.24 3.42a1.96 1.95 79.1 0 1-2.88-1.95q.16-1.35 1.22-1.91a.75.74-36.3 0 0 .18-1.18l-1.02-1.04q-.58-.59-1.15 0-3.21 3.33-1.39 6.28c2.45 3.99 8.24 2.12 11.08-.35q.44-.39.83.06"/><path stroke="#a5e5fa" vector-effect="non-scaling-stroke" d="M206.54 184.542a4.36 4.07 118.5 0 0 5.657-1.89 4.36 4.07 118.5 0 0-1.497-5.774 4.36 4.07 118.5 0 0-5.657 1.89 4.36 4.07 118.5 0 0 1.497 5.774M125.924 185.027a4.25 3.86 78 0 0 2.892-4.96 4.25 3.86 78 0 0-4.66-3.354 4.25 3.86 78 0 0-2.892 4.96 4.25 3.86 78 0 0 4.66 3.354"/><path stroke="#371709" vector-effect="non-scaling-stroke" d="M211.91 148.47c4.91-13.32-18.98-16.97-14.23 1.7a1.76 1.75 62.5 0 0 2.84.9q4.83-4.12 10.96-2.38a.36.35-71.3 0 0 .43-.22"/><path stroke="#451a09" vector-effect="non-scaling-stroke" d="M134.14 151.45c6.56-6.8-4.59-17.85-11.85-10.67q-2.86 2.83-2.1 7.51.08.49.58.46 3.87-.23 7.7.38c1.85.3 3.13 1.65 4.85 2.47q.46.22.82-.15"/><path stroke="#a2d6e6" vector-effect="non-scaling-stroke" d="m128.83 197.5-1.25 1.8"/><path stroke="#98766c" vector-effect="non-scaling-stroke" d="m127.58 199.3-3.08-.06"/><path stroke="#90dbf1" vector-effect="non-scaling-stroke" d="M210.462 181.213a1.7 1.61 66 0 0 .779-2.208 1.7 1.61 66 0 0-2.163-.898 1.7 1.61 66 0 0-.779 2.208 1.7 1.61 66 0 0 2.162.898M126.02 180.27l-1.75.04a.45.45 0 0 0-.45.46l.02.6a1.33 1.23 88.8 0 0 1.25 1.3h.2a1.33 1.23 88.8 0 0 1.21-1.36l-.02-.6a.45.45 0 0 0-.46-.44"/><path stroke="#426c7b" vector-effect="non-scaling-stroke" d="M205.6 203.47q-4.09 2.87-6.39-1.29"/><path stroke="#a5e5fa" vector-effect="non-scaling-stroke" d="M203.35 200.1q-.84-.07-1.29.68a1.24 1.23-63.2 0 0 .58 1.78q2.74 1.16 1.69-1.72-.25-.69-.98-.74"/><path stroke="#426c7b" vector-effect="non-scaling-stroke" d="M133.89 198.71q.71 3.78-1.13 4.76"/><path stroke="#90dbf1" vector-effect="non-scaling-stroke" d="M132.76 203.47q.77-1.58-.33-2.67-.57-.56-1.24-.1-1.26.87-.69 2.27.18.43.65.47l1.18.1"/><path stroke="#426c7b" vector-effect="non-scaling-stroke" d="M132.33 203.54c-3.71 1.11-5.42-.74-4.75-4.24"/><path stroke="#8a726b" vector-effect="non-scaling-stroke" d="M266.19 275q.22-.22.3-.55"/><path stroke="#8d817f" vector-effect="non-scaling-stroke" d="M266.49 274.45c2.05-23.15-3.9-52.36-19.05-71.53a1.06 1.06 0 0 0-.89-.4l-4.77.25"/><path stroke="#8a726b" vector-effect="non-scaling-stroke" d="m241.78 202.77-4.49.05"/><path stroke="#2a0801" vector-effect="non-scaling-stroke" d="M212.7 204.68q-2.31.77-.75 2.75"/><path stroke="#9b8580" vector-effect="non-scaling-stroke" d="M211.95 207.43q-40.25-7.8-81.2-2.9c-8.21.98-31.63 4.46-35.9 12.34a1.06 1.04-43.1 0 0-.04.91c1.49 3.43 5.81 5.3 8.98 6.66"/><path stroke="#426c7b" vector-effect="non-scaling-stroke" d="M103.79 224.44c31.44 9.66 68 9.7 99.95 4.52q8.76-1.42 18.42-4.8"/><path stroke="#9b8580" vector-effect="non-scaling-stroke" d="m222.16 224.16 6.19-3.17"/><path stroke="#2a0801" vector-effect="non-scaling-stroke" d="M228.35 220.99q1.55 1.24 3.99-3.01a.14.14 0 0 1 .26.09l-.96 8.14q-.07.55-.61.66l-1.89.37"/><path stroke="#9b8580" vector-effect="non-scaling-stroke" d="M229.14 227.24q.68-1.23.56-2.27-.07-.6-.61-.33-8.6 4.35-15.58 5.72-44.61 8.71-91.77 1.68c-8.23-1.23-18.85-3.28-25.82-8.02a.39.39 0 0 0-.6.39q1.85 10.87 8.88 19.28"/><path stroke="#2a0801" vector-effect="non-scaling-stroke" d="m104.2 243.69-.55.94"/><path stroke="#877b77" vector-effect="non-scaling-stroke" d="m132.33 203.54.43-.07"/><path stroke="#fbefea" vector-effect="non-scaling-stroke" d="M266.49 274.45q-.47.15-.97.03a.71.7 7.1 0 1-.55-.7c.07-3.44.7-6.7.45-10.03q-.43-5.68-.45-11.37a1.31.14 67.7 0 0-.26-.9q-.29-.73-.46-1.98c-2.05-15.15-8.16-32.8-17.44-45.09q-.35-.46-.92-.39l-3.49.41q-.48.06-.63-.4-.16-.49.01-1.26"/><path stroke="#8d817f" vector-effect="non-scaling-stroke" d="M211.95 207.43c5.61 1.4 16.27 4.33 18.8 9.57a1.14 1.12 44.7 0 1 .01.94q-.79 1.78-2.41 3.05"/><path stroke="#a5e5fa" vector-effect="non-scaling-stroke" d="M222.16 224.16q-10.74-4.86-18.97-5.58c-11.63-1.02-25.99-.9-40.69-1.44q-5.21-.2-10.41.68c-6.75 1.14-13.07-.06-19.91 1.03-5.24.84-10.64.07-15.58 1.43q-6.35 1.74-12.81 4.16"/><path stroke="#371709" vector-effect="non-scaling-stroke" d="m230.7 233.52-2.22.37a.81.8 2.3 0 0-.64.59c-3.13 12.7-23.48 8.71-23.86 20.84a1 .99-16.4 0 1-.45.81q-1.48.97-.68 2.34.17.3.15.49-.04.27-.27.49"/><path stroke="#2a0801" vector-effect="non-scaling-stroke" d="M178.01 264.55q.34-.89.26-1.74a.21.21 0 0 1 .24-.23q1.27.19 1.81.02a.18.18 0 0 0-.07-.36q-.15.01-.31.01-.46-.01-.54-.46-.06-.36.09-.82"/><path stroke="#8d817f" vector-effect="non-scaling-stroke" d="M179.49 260.97q11.54-1.03 22.42-4.63.45-.15.51-.62c1.18-9.55 13.45-12.31 20.89-15.66a1.68 1.61 2.6 0 0 .72-.63q3.59-5.72 5.11-12.19"/><path stroke="#371709" vector-effect="non-scaling-stroke" d="M232.205 215.394a2.17.32 44.6 0 0-1.32-1.752 2.17.32 44.6 0 0-1.77-1.296 2.17.32 44.6 0 0 1.32 1.752 2.17.32 44.6 0 0 1.77 1.296M201.926 258.204a.25.25 0 0 0-.31-.17l-9.272 2.712a.25.25 0 0 0-.17.31.25.25 0 0 0 .31.17l9.272-2.712a.25.25 0 0 0 .17-.31"/><path stroke="#9b8580" vector-effect="non-scaling-stroke" d="M179.49 260.97c-12.45.96-26.1 1.69-38.5-.12"/><path stroke="#8d817f" vector-effect="non-scaling-stroke" d="M140.99 260.85q-6.85-.89-13.51-2.8-.96-.27-1.22-1.79c-1.8-10.18-12.51-15.06-22.06-12.57"/><path stroke="#eaf4f5" vector-effect="non-scaling-stroke" d="M178.2 259.55c6.2-.63 15.08-1.59 21.8-4.25a1.13 1.13 0 0 0 .66-.69c3.13-9.44 12.25-11.57 20.37-15.11 3.38-1.47 5.37-8.19 5.96-11.31a.39.38-3.6 0 0-.5-.44l-9.93 3.36a1.6 1.54-80.7 0 0-.78.58c-18.42 26.43-61.78 27.37-89.05 18.89a.67.67 0 0 0-.81.93l2.2 4.71q.21.44.68.57c16.95 4.65 32.44 3.13 49.02 3.22q.09 0 .12-.07.04-.13.08-.25.04-.13.18-.14"/><path stroke="#fbefea" vector-effect="non-scaling-stroke" d="M274.08 257.39c7.6-3.69 13.26-11.14 14.96-19.39q1.04-5-2.47-6.51a2.55 2.54 31.4 0 0-2.96.71c-3.95 4.75-5.7 8.98-11.04 13.79a1.47 1.47 0 0 0-.45.81c-.63 3.26 1.18 6.36.85 9.82a.78.77-10.1 0 0 1.11.77"/><path stroke="#371709" vector-effect="non-scaling-stroke" d="M231.28 233.8q-.23.85 1.08 1.32a1.01 1-59.9 0 1 .42 1.6c-5.55 6.53-14.19 9.2-21.85 12.65-4.77 2.15-6.37 6.86-2.98 11.11 7.45 9.3 26.08-2.54 32.14-8.46a1.09 1.09 0 0 1 1.75 1.23q-.7 1.54-2.4 2.94-9.27 7.62-21.13 9.58-9.66 1.6-13.92-5.96-.24-.42-.66-.19-.14.08-.31.21"/><path stroke="#2a0801" vector-effect="non-scaling-stroke" d="M140.99 260.85q.73 1.79-2.87 1.48-.43-.03-.07.2.21.13.45.15 2.23.22 4.22-.13a1.21 1.2 68.1 0 1 1.22.53q.86 1.31-1.22 1.6"/><path stroke="#8d817f" vector-effect="non-scaling-stroke" d="M120.926 260.223a10.04 6.9 29.3 0 0-5.38-10.93 10.04 6.9 29.3 0 0-12.132 1.104 10.04 6.9 29.3 0 0 5.38 10.93 10.04 6.9 29.3 0 0 12.132-1.104"/></g><path fill="#522911" d="M270.7 275h-2.86c-.21-5.54 1.54-11.6.74-18.28q-2.83-23.66-13.77-44.79-3.44-6.65-7.5-10.5-.46-.43-1.08-.43l-13.2-.08a.66.66 0 0 1-.29-1.25q1.01-.5 1.48-1.9l11.34.01q-.82 1.34-.02 1.32 8.02-.22 15.71-2.29.46-.13.5-.61.07-.71-.35-.78c27.69-8.15 31.61-34.73 30.14-59.65q.99 1.27 1.36-.64.1-.55.01-1.27-1.31-10.49-3.58-19.42-.43-1.71-1.78-1.42-.56-.09-.97.16-.75-1.07-1.98.33-.4.46-.83.02l-.51-.51q-.47-.46-.12-1.01 10.49-17.07 13.76-36.91.12-.74-.48-.29l-.92.67.75-7.47q.06-.57-.5-.74l-4.26-1.26q-.16-1.54-.95-1.52-.53.01-.58 0-20.83-3.65-40.93 2.52a1.28 1.28 0 0 1-1.29-2.12q1.5-1.52.54-2.03-.02-.22-.05-.43-21.57-13.57-47.56-16.01c-1.84-.17-4.58.03-6.79-.42q-4.34-.89-4.96-.93-7.16-.47-13.5 1.55-.72.63-2.95.44c-6.56-2.3-15.88.41-22.62 1.69-29.06 5.52-53.53 23.73-62.95 52.43-2.73 8.34-5.34 17.89-5.67 27.02-.16 4.51-1.1 8.49-.7 13.16q.38 4.32-.94 8.92c-2.75 9.55-1.93 19.98 2.61 28.86 7.95 15.53 24.37 21.63 41.33 21.71q2.31-.31 2.75 2.36.07.45-.37.53l-12.79 2.19q-.47.08-.82.4-.78.75-1.87.58-.47-.07-.93.08c-6.6 2.15-12.47 3.23-16.23 10.13q-.22.42.05.81l2.68 3.75q.32.45-.11.79c-1.33 1.04-1.84 1.76-1.5 3.55q2.02 10.54 9.26 18.61 1.68.5 1.9 1.59a.68.68 0 0 1-.41.76c-2.86 1.17-2.48 2.93-3.4 5.3q-.16.43-.04.87c1.66 6.07 7.84 12.55 14.65 11.07 3.9-.85 7.98-4.47 6.05-8.91q-2.94-6.75-10.29-8.63a.69.68-60.8 0 1-.32-1.14c2.99-3.09 10.36 3.92 11.67 6.44 1.1 2.13 1.04 5.34 3.72 7.41q.45.35 1.02.35 2.01-.01 3.54 1.28a1.08 1.05 60.3 0 0 .84.24l2.43-.33q.73-.1.2.42-.76.73-.42 2.1l-2.36-.2q-.6-.05-.67.55-.06.56.25 1.42l-.48 9.78h-4.41l-.08-12.07a1.04 1.03-41.1 0 0-2.06-.14q-.03.18-.03.43-.01.49-.41.77c-2.85 1.94-5.51 4.13-9.09 4.09-9.49-.13-16.82-6.87-17.43-16.36-.28-4.48 4.13-4.9.67-9.76-5.31-7.46-7.13-16.25-7.77-25.23q-.04-.48.24-.88 4.24-6.08 10.31-7.86c4.06-1.2 8.59-3.59 11.99-2.89q.66.13.66-.55l.01-.79q0-.58-.59-.59-4.01-.04-9.94-2c-23.6-7.77-31.8-27.08-28.05-50.49 1.52-9.45 1.96-16.89 2.49-25.51.15-2.39 1.16-4.9.95-7.68q-.04-.59.29-1.07 1.21-1.72.63-3.96a1.09 1.08 61.9 0 1 .31-1.05q1.11-1.05.76-2.64-.14-.61.2-1.13 2.23-3.4-.71-5.81-.38-.31-.43-.8-.12-.98-.91-1.56-.41-.31-.64-.77-6.21-12.94-7.93-27.17c-.77-6.43 4.94-9.83 10.36-10.67q.55-.08 1.03-.38 1.26-.79 2.85-.43a1.06 1.05 28.8 0 0 .98-.28c1.55-1.52 4.59-.42 6.68-1.05 6.33-1.91 16.96-.71 23.79-.73a1.03 1.02-71.3 0 0 .82-.41c1.62-2.11 8.57-4.9 11.22-5.8 1.78-.61 3.23-1.57 5.03-2.07q3.9-1.08 7.62-2.62a1.45 1.44 38.5 0 1 .83-.09q.99.18 1.53-.7a.86.86 0 0 1 .95-.39q2.44.64 4.33-.76.53-.39 1.16-.22 2.19.58 3.8-.78a1.27 1.26-58.1 0 1 1.11-.26q2.66.65 4.9-.63a1.94 1.94 0 0 1 .97-.26h7.71a.92.9 20.6 0 0 .68-.3c.62-.67.89-.8 1.86-.73 6.09.41 11.44-1.57 18.17-.15 2.53.54 5.21 0 8.35.77q3.28.81 6.73.31.57-.08 1.06.21 2.45 1.4 5.31.83.58-.12 1.06.24 1.69 1.28 3.9.78.63-.15 1.12.26 1.38 1.15 3.23.74a.82.82 0 0 1 .76.22q1.04 1.04 2.51.82.54-.08 1.05.1 6.59 2.42 13.13 4.96c5.14 2 9.66 4.77 14.52 7.42.58.31.83.72 1.34 1.15a1.48 1.48 0 0 0 .98.37H258q.63 0 1.06-.44l.2-.2q.34-.34.82-.34c1.93-.02 6.82.49 8.22-.68q.41-.34.93-.34h11.74q.42 0 .72.31.27.28.59.49.25.17.61.17 2.87.03 5.74.03.54 0 .99.31 1.69 1.16 3.88.61a1.07 1.05-30.8 0 1 .95.23c1.65 1.42 4.12 1.14 6.12 3.02q.34.33.38.81c.99 13.54-3.6 27.58-9.69 40.46-1.14 2.41.63 5.32 1.11 7.17q1.63 6.27 3.03 12.58c.8 3.57.63 6.84.6 10.45-.01.84.21 1.18.74 1.74q.35.37.32.88c-.27 4.11-.31 7.56-.86 12.2-.36 3.07-.06 6.16-.54 9.02-3.25 19.03-11.67 34.34-31.45 40.18-1.86.55-3.39 1.64-5.88 1.31q-.55-.07-1 .25-1.7 1.22-3.86.71a.45.45 0 0 0-.4.77c1.92 1.67 2.92 4.4 3.98 6.05 4.97 7.75 7.97 17.3 10.69 26.06.37 1.21-.07 2.45 1.03 3.64a.83.82 23.3 0 1 .23.57v1.69a.46.46 0 0 0 .8.3q4.19-4.75 7.49-10.04c2.31-3.69 6.67-7.91 11.05-5.24q.43.27.95.27h.34q.4 0 .73.21c5.19 3.37 5.67 9.38 4.42 14.85-2.38 10.48-12.86 19.71-22.26 24.13q-.47.22-.54.74L270.7 275zM109.07 63.03q-.16-.25-.59-.44.32-.15.45-.43a.47.47 0 0 0-.36-.67c-6.15-.84-35.04 1.54-34.35 8.24q1.5 14.77 8.32 27.91a.85.78 4.5 0 0 .29.31c1.81 1.13 2.92.29 3.58-1.52q7.12-19.58 23.2-32.45a.59.59 0 0 0-.15-1.01q-.09-.03-.39.06zm172.76 169.09q-.96-1.63-1.66.77-.13.45-.57.61-.61.23-.79.57-3.36 6.35-9.07 10.76-.39.3-.44.79c-.42 4.5.95 9.18.86 13.62q-.08 3.46 3 1.87 13.68-7.09 18.63-21.72.36-1.05-.74-.92l-.51.06c1.04-5.73-3.07-12.64-8.71-6.41z"/><path fill="#1b0400" d="M248.23 62.43q-24.07-12.56-49.98-14.93-10.12-.92-22.83-.88 6.34-2.02 13.5-1.55.62.04 4.96.93c2.21.45 4.95.25 6.79.42q25.99 2.44 47.56 16.01zM172.47 47.06c-44 2.57-79.66 21.56-87.93 68.5q-2.49 14.09-2.24 24.73.07 2.95-.68 5.67c-6.78 24.67 1.81 45.03 26.85 51.58q3.86 1.01 12.51 1.76l3.71.18q.35.02.31.38l-.04.28q-.06.46-.53.55l-.9.16c-16.96-.08-33.38-6.18-41.33-21.71-4.54-8.88-5.36-19.31-2.61-28.86q1.32-4.6.94-8.92c-.4-4.67.54-8.65.7-13.16.33-9.13 2.94-18.68 5.67-27.02 9.42-28.7 33.89-46.91 62.95-52.43 6.74-1.28 16.06-3.99 22.62-1.69z"/><path fill="#fefefe" d="M248.23 62.43q.03.21.05.43c-1.07.93-2.27 1.88-1.98 3.39.4 2.06 1.98 2.17 3.76 1.66q20.42-5.89 41.43-1.9l4.26 1.26q.56.17.5.74l-.75 7.47q-3.13 19.97-13.95 36.8-.32.5.07.94l1.66 1.91a.84.83 60.1 0 0 .9.25q1.63-.56 2.4-2.2.41-.25.97-.16 3.34 11.12 3.99 22.75c1.47 24.92-2.45 51.5-30.14 59.65q-8.08 2.06-15.84 2.36l-11.34-.01c-1.74-.29-4.15 1.26-3.21 3.23 1.2 2.53 4.04 1.66 6.28 1.82 13.59 21.85 20.62 46.86 17.78 72.18H136.18l.28-9.23a.66.66 0 0 0-.48-.66q-1.94-.53-3.97.11-.31-.86-.25-1.42.07-.6.67-.55l2.36.2 7.93 1.23q17.66 1.79 35.29-.13c4.62-.3 21.63-2.14 24.72-5.1q.52.03.69.38c2.39 6.54 9.25 8.35 15.59 7.19q13.59-2.48 23.18-12.17c1.32-1.33 1.67-3.12-.03-4.28a2.04 2.04 0 0 0-2.62.28c-5.51 5.74-25.49 18.53-31.66 7.49-2.97-5.3 4.21-8.35 8-9.75 5.76-2.11 14.54-5.94 18.06-11.25a2.43 2.43 0 0 0-.57-3.3q-1.11-.82-2.09-.24-.5-.02-.58-.28 3.18-8.49 3.65-17.47.03-.5-.25-.91c-4.01-5.98-14.24-9.17-21.4-10.46l-7.1-1.21q1.73-4.23-1.9-6.33-.46-.26-.96-.1-3.26 1.04-3.53 5.14-23.99-3.11-48.15-1.93-6.68.32-13.48.55-.51.02-.74-.42-.97-1.85-2.95-1.67-1.42-2.09-5.06-1.21-1.27-.61-4.06-1.05-8.1-1.3-16.85-5.06c-18.64-8.02-24.67-23.11-24.58-42.58q0-.45-.43-.32l-.41.13a.48.47-9.4 0 0-.33.45c.04 2.93-1 5.72-1.04 8.4q-.05 2.94-.11 5.88c-.05 2.95.79 5.57 1.4 8.43 2.47 11.45 11.03 19.58 22.15 22.91 1.19.36 2.44 1.05 4.18 1.32q9.11 1.39 14.39 1.81.5.03.76.46l.6.96-3.52.06q-8.65-.75-12.51-1.76c-25.04-6.55-33.63-26.91-26.85-51.58q.75-2.72.68-5.67-.25-10.64 2.24-24.73c8.27-46.94 43.93-65.93 87.93-68.5q2.23.19 2.95-.44 12.71-.04 22.83.88 25.91 2.37 49.98 14.93zm20.08 18.82q-5.22-1.09-10.48-.68a.16.16 0 0 0-.04.31q8.38 2.9 15.91 7.55a.6.59-21.6 0 1-.47 1.08l-9.44-2.54a.33.33 0 0 0-.32.55q8.56 8.87 14.16 19.88.21.42.29.45a.59.5 27.2 0 0 .74-.17q8.24-15.5 12.86-32.43.47-1.71-1.27-2.02-18.71-3.26-37.08 1.38a.76.76 0 0 0 .07 1.48q7.93 1.24 15.39 4.06a.57.57 0 0 1-.32 1.1zm-17.25 114.66c1.29.04 3.27-.72 4.23-.86 23.02-3.39 33.09-19.35 34.32-41.55.73-13.21.88-25.81-2.77-37.14q-.18-.57-.72-.31-1.48.71-3.02.23-.63-.2-.54.45c4.57 33.77-4.08 69.7-41.68 78.95a.17.17 0 0 0 .04.34c3.41.07 6.84-.23 10.14-.11zm-109.31-70.76a1.34 1.34 0 0 0-2.52.9q1 2.82-1.74 4.21a.75.74-32.9 0 0-.25 1.13l.86 1.06q.42.52 1 .17 4.37-2.7 2.65-7.47zm51.5 6.11q-5.14.6-4.78-4.51a1.28 1.28 0 0 0-2.5-.44c-1.35 4.78 1.91 7.66 6.49 7.91 1.5.08 2.56-.7 1.86-2.34a1.04 1.03 74.7 0 0-1.07-.62zm6.6 22.54c.91 10.53 23.37 4.19 12.67-2.96 8.06-17.2-18.94-20.16-17.11-4.22q.49 4.26 4.44 7.18zm-80.31-2.68c-.8 1.33-2.29 2.82-1.99 4.44.86 4.68 14.21 5.64 15.24-.62 10.82-8.33-.18-23.52-10.55-15.88q-5.46 4.02-2.7 12.06zm120.039.65a10.74 8.04-.8 0 0-10.851-7.89 10.74 8.04-.8 0 0-10.627 8.19 10.74 8.04-.8 0 0 10.851 7.89 10.74 8.04-.8 0 0 10.627-8.19zm-126.616 1.347a10.15 7.53-4.2 0 0-10.674-6.767 10.15 7.53-4.2 0 0-9.572 8.253 10.15 7.53-4.2 0 0 10.674 6.767 10.15 7.53-4.2 0 0 9.572-8.253zm50.257.933q3.75 4.37 9 3.4c3.92-.72 5.15-5.21 2.64-8.22a1.36 1.36 0 0 0-2.21 1.58l.87 1.42a.72.71-45.6 0 1 0 .75c-2.56 4.3-7.04.39-9.9-2.15a.9.89-38.4 0 0-1.03-.11l-6.24 3.42a1.96 1.95 79.1 0 1-2.88-1.95q.16-1.35 1.22-1.91a.75.74-36.3 0 0 .18-1.18l-1.02-1.04q-.58-.59-1.15 0-3.21 3.33-1.39 6.28c2.45 3.99 8.24 2.12 11.08-.35q.44-.39.83.06zm43.32 30.492a4.36 4.07 118.5 0 0 5.657-1.89 4.36 4.07 118.5 0 0-1.497-5.774 4.36 4.07 118.5 0 0-5.657 1.89 4.36 4.07 118.5 0 0 1.497 5.774zm-80.616.485a4.25 3.86 78 0 0 2.892-4.96 4.25 3.86 78 0 0-4.66-3.354 4.25 3.86 78 0 0-2.892 4.96 4.25 3.86 78 0 0 4.66 3.354z"/><path fill="#1b0400" d="M108.48 62.59c-10.17.3-20.26.87-30.01 4.09-7.08 2.35 2.91 26.53 5.29 31q.35.66.64-.03l2.64-6.39q6.3-12.99 15.53-22.49l6.5-5.74q.3-.09.39-.06a.59.59 0 0 1 .15 1.01q-16.08 12.87-23.2 32.45c-.66 1.81-1.77 2.65-3.58 1.52a.85.78 4.5 0 1-.29-.31q-6.82-13.14-8.32-27.91c-.69-6.7 28.2-9.08 34.35-8.24a.47.47 0 0 1 .36.67q-.13.28-.45.43z"/><path fill="#fefefe" d="M108.48 62.59q.43.19.59.44l-6.5 5.74q-9.81-.84-18.06 3.77-2.15 1.2-1.76 4.18 1.16 8.69 4.29 14.54l-2.64 6.39q-.29.69-.64.03c-2.38-4.47-12.37-28.65-5.29-31 9.75-3.22 19.84-3.79 30.01-4.09z"/><path fill="#1b0400" d="M291.49 66.01q-21.01-3.99-41.43 1.9c-1.78.51-3.36.4-3.76-1.66-.29-1.51.91-2.46 1.98-3.39q.96.51-.54 2.03a1.28 1.28 0 0 0 1.29 2.12q20.1-6.17 40.93-2.52.05.01.58 0 .79-.02.95 1.52z"/><path fill="#fea796" d="M102.57 68.77q-9.23 9.5-15.53 22.49-3.13-5.85-4.29-14.54-.39-2.98 1.76-4.18 8.25-4.61 18.06-3.77zM268.31 81.25a.57.57 0 0 0 .32-1.1q-7.46-2.82-15.39-4.06a.76.76 0 0 1-.07-1.48q18.37-4.64 37.08-1.38 1.74.31 1.27 2.02-4.62 16.93-12.86 32.43a.59.5 27.2 0 1-.74.17q-.08-.03-.29-.45-5.6-11.01-14.16-19.88a.33.33 0 0 1 .32-.55l9.44 2.54a.6.59-21.6 0 0 .47-1.08q-7.53-4.65-15.91-7.55a.16.16 0 0 1 .04-.31q5.26-.41 10.48.68z"/><path fill="#1b0400" d="M286.58 113.18q-.77 1.64-2.4 2.2a.84.83 60.1 0 1-.9-.25l-1.66-1.91q-.39-.44-.07-.94 10.82-16.83 13.95-36.8l.92-.67q.6-.45.48.29-3.27 19.84-13.76 36.91-.35.55.12 1.01l.51.51q.43.44.83-.02 1.23-1.4 1.98-.33zM287.55 113.02q1.35-.29 1.78 1.42 2.27 8.93 3.58 19.42.09.72-.01 1.27-.37 1.91-1.36.64-.65-11.63-3.99-22.75z"/><path fill="#f8e0d6" d="M251.06 195.91c-3.3-.12-6.73.18-10.14.11a.17.17 0 0 1-.04-.34c37.6-9.25 46.25-45.18 41.68-78.95q-.09-.65.54-.45 1.54.48 3.02-.23.54-.26.72.31c3.65 11.33 3.5 23.93 2.77 37.14-1.23 22.2-11.3 38.16-34.32 41.55-.96.14-2.94.9-4.23.86z"/><path fill="#380b01" d="M141.75 125.15q1.72 4.77-2.65 7.47-.58.35-1-.17l-.86-1.06a.75.74-32.9 0 1 .25-1.13q2.74-1.39 1.74-4.21a1.34 1.34 0 0 1 2.52-.9zM193.25 131.26a1.04 1.03 74.7 0 1 1.07.62c.7 1.64-.36 2.42-1.86 2.34-4.58-.25-7.84-3.13-6.49-7.91a1.28 1.28 0 0 1 2.5.44q-.36 5.11 4.78 4.51z"/><path fill="#1b0400" d="M212.52 150.84q-2.99-2.18-7.28-.87l-2.98 1.23q-1.78.99-2.41 2.6-3.95-2.92-4.44-7.18c-1.83-15.94 25.17-12.98 17.11 4.22zm-.61-2.37c4.91-13.32-18.98-16.97-14.23 1.7a1.76 1.75 62.5 0 0 2.84.9q4.83-4.12 10.96-2.38a.36.35-71.3 0 0 .43-.22z"/><path fill="#380b01" d="M132.79 154.94c-.94-4.47-6.05-4.97-9.78-4.59q-1.9.1-2.26.93l-1.21-.16q-2.76-8.04 2.7-12.06c10.37-7.64 21.37 7.55 10.55 15.88zm1.35-3.49c6.56-6.8-4.59-17.85-11.85-10.67q-2.86 2.83-2.1 7.51.08.49.58.46 3.87-.23 7.7.38c1.85.3 3.13 1.65 4.85 2.47q.46.22.82-.15z"/><path fill="#522911" d="M197.68 150.17c-4.75-18.67 19.14-15.02 14.23-1.7a.36.35-71.3 0 1-.43.22q-6.13-1.74-10.96 2.38a1.76 1.75 62.5 0 1-2.84-.9zM122.29 140.78c7.26-7.18 18.41 3.87 11.85 10.67q-.36.37-.82.15c-1.72-.82-3-2.17-4.85-2.47q-3.83-.61-7.7-.38-.5.03-.58-.46-.76-4.68 2.1-7.51z"/><ellipse fill="#f8e0d6" transform="rotate(-.8 10994.712 -16313.231)" rx="10.74" ry="8.04"/><ellipse fill="#f8e0d6" transform="rotate(-4.2 2149.415 -1325.37)" rx="10.15" ry="7.53"/><path fill="#380b01" d="M162.39 153.99c-2.84 2.47-8.63 4.34-11.08.35q-1.82-2.95 1.39-6.28.57-.59 1.15 0l1.02 1.04a.75.74-36.3 0 1-.18 1.18q-1.06.56-1.22 1.91a1.96 1.95 79.1 0 0 2.88 1.95l6.24-3.42a.9.89-38.4 0 1 1.03.11c2.86 2.54 7.34 6.45 9.9 2.15a.72.71-45.6 0 0 0-.75l-.87-1.42a1.36 1.36 0 0 1 2.21-1.58c2.51 3.01 1.28 7.5-2.64 8.22q-5.25.97-9-3.4-.39-.45-.83-.06z"/><path fill="#f8e0d6" d="m128.83 197.5-1.25 1.8-3.08-.06-.6-.96q-.26-.43-.76-.46-5.28-.42-14.39-1.81c-1.74-.27-2.99-.96-4.18-1.32-11.12-3.33-19.68-11.46-22.15-22.91-.61-2.86-1.45-5.48-1.4-8.43q.06-2.94.11-5.88c.04-2.68 1.08-5.47 1.04-8.4a.48.47-9.4 0 1 .33-.45l.41-.13q.43-.13.43.32c-.09 19.47 5.94 34.56 24.58 42.58q8.75 3.76 16.85 5.06 2.79.44 4.06 1.05z"/><path fill="#4bccf5" d="M212.52 150.84c10.7 7.15-11.76 13.49-12.67 2.96q.63-1.61 2.41-2.6.49.22.17.75-1.25 2.09.43 3.46a1.42 1.4-24.1 0 0 .88.33c6.75.22 5.68-5.97 1.5-5.77q4.29-1.31 7.28.87z"/><path fill="#d5eaec" d="M205.24 149.97c4.18-.2 5.25 5.99-1.5 5.77a1.42 1.4-24.1 0 1-.88-.33q-1.68-1.37-.43-3.46.32-.53-.17-.75l2.98-1.23z"/><path fill="#4bccf5" d="M132.79 154.94c-1.03 6.26-14.38 5.3-15.24.62-.3-1.62 1.19-3.11 1.99-4.44l1.21.16c-3.53 2.71.03 6.89 3.1 4.02q2.31-2.14-.84-4.95c3.73-.38 8.84.12 9.78 4.59z"/><path fill="#d5eaec" d="M123.01 150.35q3.15 2.81.84 4.95c-3.07 2.87-6.63-1.31-3.1-4.02q.36-.83 2.26-.93z"/><path fill="#4bccf5" d="M206.54 184.542a4.36 4.07 118.5 0 1-1.497-5.774 4.36 4.07 118.5 0 1 5.657-1.89 4.36 4.07 118.5 0 1 1.497 5.774 4.36 4.07 118.5 0 1-5.657 1.89zm3.922-3.329a1.7 1.61 66 0 0 .779-2.208 1.7 1.61 66 0 0-2.163-.898 1.7 1.61 66 0 0-.779 2.208 1.7 1.61 66 0 0 2.162.898zM125.924 185.027a4.25 3.86 78 0 1-4.66-3.354 4.25 3.86 78 0 1 2.892-4.96 4.25 3.86 78 0 1 4.66 3.355 4.25 3.86 78 0 1-2.892 4.96zm.096-4.757-1.75.04a.45.45 0 0 0-.45.46l.02.6a1.33 1.23 88.8 0 0 1.25 1.3h.2a1.33 1.23 88.8 0 0 1.21-1.36l-.02-.6a.45.45 0 0 0-.46-.44z"/><ellipse fill="#d5eaec" transform="rotate(66 -33.441 251.339)" rx="1.7" ry="1.61"/><path fill="#d5eaec" d="M126.02 180.27a.45.45 0 0 1 .46.44l.02.6a1.33 1.23 88.8 0 1-1.21 1.36h-.2a1.33 1.23 88.8 0 1-1.25-1.3l-.02-.6a.45.45 0 0 1 .45-.46l1.75-.04z"/><path fill="#1b0400" d="M261.4 195.42q.42.07.35.78-.04.48-.5.61-7.69 2.07-15.71 2.29-.8.02.02-1.32 7.76-.3 15.84-2.36z"/><path fill="#4bccf5" d="M205.6 203.47q-4.09 2.87-6.39-1.29.27-4.1 3.53-5.14.5-.16.96.1 3.63 2.1 1.9 6.33zm-2.25-3.37q-.84-.07-1.29.68a1.24 1.23-63.2 0 0 .58 1.78q2.74 1.16 1.69-1.72-.25-.69-.98-.74zM133.89 198.71q.71 3.78-1.13 4.76.77-1.58-.33-2.67-.57-.56-1.24-.1-1.26.87-.69 2.27.18.43.65.47l1.18.1c-3.71 1.11-5.42-.74-4.75-4.24l1.25-1.8q3.64-.88 5.06 1.21z"/><path fill="#1b0400" d="M234.22 197.77q-.47 1.4-1.48 1.9a.66.66 0 0 0 .29 1.25l13.2.08q.62 0 1.08.43 4.06 3.85 7.5 10.5 10.94 21.13 13.77 44.79c.8 6.68-.95 12.74-.74 18.28h-1.65q.22-.22.3-.55c2.05-23.15-3.9-52.36-19.05-71.53a1.06 1.06 0 0 0-.89-.4l-4.77.25-4.49.05c-2.24-.16-5.08.71-6.28-1.82-.94-1.97 1.47-3.52 3.21-3.23z"/><path fill="#380b01" d="M133.89 198.71q1.98-.18 2.95 1.67.23.44.74.42 6.8-.23 13.48-.55 24.16-1.18 48.15 1.93 2.3 4.16 6.39 1.29l7.1 1.21q-2.31.77-.75 2.75-40.25-7.8-81.2-2.9c-8.21.98-31.63 4.46-35.9 12.34a1.06 1.04-43.1 0 0-.04.91c1.49 3.43 5.81 5.3 8.98 6.66 31.44 9.66 68 9.7 99.95 4.52q8.76-1.42 18.42-4.8l6.19-3.17q1.55 1.24 3.99-3.01a.14.14 0 0 1 .26.09l-.96 8.14q-.07.55-.61.66l-1.89.37q.68-1.23.56-2.27-.07-.6-.61-.33-8.6 4.35-15.58 5.72-44.61 8.71-91.77 1.68c-8.23-1.23-18.85-3.28-25.82-8.02a.39.39 0 0 0-.6.39q1.85 10.87 8.88 19.28l-.55.94q-7.24-8.07-9.26-18.61c-.34-1.79.17-2.51 1.5-3.55q.43-.34.11-.79l-2.68-3.75q-.27-.39-.05-.81c3.76-6.9 9.63-7.98 16.23-10.13q.46-.15.93-.08 1.09.17 1.87-.58.35-.32.82-.4l12.79-2.19q.44-.08.37-.53-.44-2.67-2.75-2.36l.9-.16q.47-.09.53-.55l.04-.28q.04-.36-.31-.38l-3.71-.18 3.52-.06 3.08.06c-.67 3.5 1.04 5.35 4.75 4.24l.43-.07q1.84-.98 1.13-4.76z"/><path fill="#fefefe" d="M203.35 200.1q.73.05.98.74 1.05 2.88-1.69 1.72a1.24 1.23-63.2 0 1-.58-1.78q.45-.75 1.29-.68z"/><path fill="#d5eaec" d="m132.76 203.47-.43.07-1.18-.1q-.47-.04-.65-.47-.57-1.4.69-2.27.67-.46 1.24.1 1.1 1.09.33 2.67z"/><path fill="#fefefe" d="M266.49 274.45q-.47.15-.97.03a.71.7 7.1 0 1-.55-.7c.07-3.44.7-6.7.45-10.03q-.43-5.68-.45-11.37a1.31.14 67.7 0 0-.26-.9q-.29-.73-.46-1.98c-2.05-15.15-8.16-32.8-17.44-45.09q-.35-.46-.92-.39l-3.49.41q-.48.06-.63-.4-.16-.49.01-1.26l4.77-.25a1.06 1.06 0 0 1 .89.4c15.15 19.17 21.1 48.38 19.05 71.53zM211.95 207.43c5.61 1.4 16.27 4.33 18.8 9.57a1.14 1.12 44.7 0 1 .01.94q-.79 1.78-2.41 3.05l-6.19 3.17q-10.74-4.86-18.97-5.58c-11.63-1.02-25.99-.9-40.69-1.44q-5.21-.2-10.41.68c-6.75 1.14-13.07-.06-19.91 1.03-5.24.84-10.64.07-15.58 1.43q-6.35 1.74-12.81 4.16c-3.17-1.36-7.49-3.23-8.98-6.66a1.06 1.04-43.1 0 1 .04-.91c4.27-7.88 27.69-11.36 35.9-12.34q40.95-4.9 81.2 2.9z"/><path fill="#f8e0d6" d="m237.29 202.82 4.49-.05q-.17.77-.01 1.26.15.46.63.4l3.49-.41q.57-.07.92.39c9.28 12.29 15.39 29.94 17.44 45.09q.17 1.25.46 1.98a1.31.14 67.7 0 1 .26.9q.02 5.69.45 11.37c.25 3.33-.38 6.59-.45 10.03a.71.7 7.1 0 0 .55.7q.5.12.97-.03-.08.33-.3.55h-11.12c2.84-25.32-4.19-50.33-17.78-72.18z"/><path fill="#1b0400" d="M212.7 204.68c7.16 1.29 17.39 4.48 21.4 10.46q.28.41.25.91-.47 8.98-3.65 17.47l-2.22.37a.81.8 2.3 0 0-.64.59c-3.13 12.7-23.48 8.71-23.86 20.84a1 .99-16.4 0 1-.45.81q-1.48.97-.68 2.34.17.3.15.49-.04.27-.27.49c-3.09 2.96-20.1 4.8-24.72 5.1q.34-.89.26-1.74a.21.21 0 0 1 .24-.23q1.27.19 1.81.02a.18.18 0 0 0-.07-.36q-.15.01-.31.01-.46-.01-.54-.46-.06-.36.09-.82 11.54-1.03 22.42-4.63.45-.15.51-.62c1.18-9.55 13.45-12.31 20.89-15.66a1.68 1.61 2.6 0 0 .72-.63q3.59-5.72 5.11-12.19l1.89-.37q.54-.11.61-.66l.96-8.14a.14.14 0 0 0-.26-.09q-2.44 4.25-3.99 3.01 1.62-1.27 2.41-3.05a1.14 1.12 44.7 0 0-.01-.94c-2.53-5.24-13.19-8.17-18.8-9.57q-1.56-1.98.75-2.75zm19.505 10.714a2.17.32 44.6 0 0-1.32-1.752 2.17.32 44.6 0 0-1.77-1.296 2.17.32 44.6 0 0 1.32 1.752 2.17.32 44.6 0 0 1.77 1.296zm-30.28 42.81a.25.25 0 0 1-.169.31l-9.272 2.712a.25.25 0 0 1-.31-.17.25.25 0 0 1 .17-.31l9.272-2.712a.25.25 0 0 1 .31.17z"/><ellipse fill="#522911" transform="rotate(44.6 -145.404 388.139)" rx="2.17" ry=".32"/><path fill="#4bccf5" d="M222.16 224.16q-9.66 3.38-18.42 4.8c-31.95 5.18-68.51 5.14-99.95-4.52q6.46-2.42 12.81-4.16c4.94-1.36 10.34-.59 15.58-1.43 6.84-1.09 13.16.11 19.91-1.03q5.2-.88 10.41-.68c14.7.54 29.06.42 40.69 1.44q8.23.72 18.97 5.58z"/><path fill="#fefefe" d="M229.14 227.24q-1.52 6.47-5.11 12.19a1.68 1.61 2.6 0 1-.72.63c-7.44 3.35-19.71 6.11-20.89 15.66q-.06.47-.51.62-10.88 3.6-22.42 4.63c-12.45.96-26.1 1.69-38.5-.12q-6.85-.89-13.51-2.8-.96-.27-1.22-1.79c-1.8-10.18-12.51-15.06-22.06-12.57q-7.03-8.41-8.88-19.28a.39.39 0 0 1 .6-.39c6.97 4.74 17.59 6.79 25.82 8.02q47.16 7.03 91.77-1.68 6.98-1.37 15.58-5.72.54-.27.61.33.12 1.04-.56 2.27zm-50.94 32.31c6.2-.63 15.08-1.59 21.8-4.25a1.13 1.13 0 0 0 .66-.69c3.13-9.44 12.25-11.57 20.37-15.11 3.38-1.47 5.37-8.19 5.96-11.31a.39.38-3.6 0 0-.5-.44l-9.93 3.36a1.6 1.54-80.7 0 0-.78.58c-18.42 26.43-61.78 27.37-89.05 18.89a.67.67 0 0 0-.81.93l2.2 4.71q.21.44.68.57c16.95 4.65 32.44 3.13 49.02 3.22q.09 0 .12-.07.04-.13.08-.25.04-.13.18-.14z"/><path fill="#d5eaec" d="M178.02 259.69q-.04.12-.08.25-.03.07-.12.07c-16.58-.09-32.07 1.43-49.02-3.22q-.47-.13-.68-.57l-2.2-4.71a.67.67 0 0 1 .81-.93c27.27 8.48 70.63 7.54 89.05-18.89a1.6 1.54-80.7 0 1 .78-.58l9.93-3.36a.39.38-3.6 0 1 .5.44c-.59 3.12-2.58 9.84-5.96 11.31-8.12 3.54-17.24 5.67-20.37 15.11a1.13 1.13 0 0 1-.66.69c-6.72 2.66-15.6 3.62-21.8 4.25q-.14.01-.18.14z"/><path fill="#fefefe" d="M290.54 238.53c-1.78 9.56-10.06 17.53-18.5 21.78q-.53.27-.52-.32.1-6.71-1.3-13.3a1 .99-24.7 0 1 .37-.98c5.45-4.13 7.66-8.5 11.24-13.59 5.64-6.23 9.75.68 8.71 6.41zm-16.46 18.86c7.6-3.69 13.26-11.14 14.96-19.39q1.04-5-2.47-6.51a2.55 2.54 31.4 0 0-2.96.71c-3.95 4.75-5.7 8.98-11.04 13.79a1.47 1.47 0 0 0-.45.81c-.63 3.26 1.18 6.36.85 9.82a.78.77-10.1 0 0 1.11.77z"/><path fill="#f8e0d6" d="M289.04 238c-1.7 8.25-7.36 15.7-14.96 19.39a.78.77-10.1 0 1-1.11-.77c.33-3.46-1.48-6.56-.85-9.82a1.47 1.47 0 0 1 .45-.81c5.34-4.81 7.09-9.04 11.04-13.79a2.55 2.54 31.4 0 1 2.96-.71q3.51 1.51 2.47 6.51z"/><path fill="#1b0400" d="M281.83 232.12c-3.58 5.09-5.79 9.46-11.24 13.59a1 .99-24.7 0 0-.37.98q1.4 6.59 1.3 13.3-.01.59.52.32c8.44-4.25 16.72-12.22 18.5-21.78l.51-.06q1.1-.13.74.92-4.95 14.63-18.63 21.72-3.08 1.59-3-1.87c.09-4.44-1.28-9.12-.86-13.62q.05-.49.44-.79 5.71-4.41 9.07-10.76.18-.34.79-.57.44-.16.57-.61.7-2.4 1.66-.77z"/><path fill="#522911" d="M230.7 233.52q.08.26.58.28-.23.85 1.08 1.32a1.01 1-59.9 0 1 .42 1.6c-5.55 6.53-14.19 9.2-21.85 12.65-4.77 2.15-6.37 6.86-2.98 11.11 7.45 9.3 26.08-2.54 32.14-8.46a1.09 1.09 0 0 1 1.75 1.23q-.7 1.54-2.4 2.94-9.27 7.62-21.13 9.58-9.66 1.6-13.92-5.96-.24-.42-.66-.19-.14.08-.31.21-.17-.35-.69-.38.23-.22.27-.49.02-.19-.15-.49-.8-1.37.68-2.34a1 .99-16.4 0 0 .45-.81c.38-12.13 20.73-8.14 23.86-20.84a.81.8 2.3 0 1 .64-.59l2.22-.37z"/><path fill="#1b0400" d="M203.42 259.83q.17-.13.31-.21.42-.23.66.19 4.26 7.56 13.92 5.96 11.86-1.96 21.13-9.58 1.7-1.4 2.4-2.94a1.09 1.09 0 0 0-1.75-1.23c-6.06 5.92-24.69 17.76-32.14 8.46-3.39-4.25-1.79-8.96 2.98-11.11 7.66-3.45 16.3-6.12 21.85-12.65a1.01 1-59.9 0 0-.42-1.6q-1.31-.47-1.08-1.32.98-.58 2.09.24a2.43 2.43 0 0 1 .57 3.3c-3.52 5.31-12.3 9.14-18.06 11.25-3.79 1.4-10.97 4.45-8 9.75 6.17 11.04 26.15-1.75 31.66-7.49a2.04 2.04 0 0 1 2.62-.28c1.7 1.16 1.35 2.95.03 4.28q-9.59 9.69-23.18 12.17c-6.34 1.16-13.2-.65-15.59-7.19zM140.99 260.85q.73 1.79-2.87 1.48-.43-.03-.07.2.21.13.45.15 2.23.22 4.22-.13a1.21 1.2 68.1 0 1 1.22.53q.86 1.31-1.22 1.6l-7.93-1.23q-.34-1.37.42-2.1.53-.52-.2-.42l-2.43.33a1.08 1.05 60.3 0 1-.84-.24q-1.53-1.29-3.54-1.28-.57 0-1.02-.35c-2.68-2.07-2.62-5.28-3.72-7.41-1.31-2.52-8.68-9.53-11.67-6.44a.69.68-60.8 0 0 .32 1.14q7.35 1.88 10.29 8.63c1.93 4.44-2.15 8.06-6.05 8.91-6.81 1.48-12.99-5-14.65-11.07q-.12-.44.04-.87c.92-2.37.54-4.13 3.4-5.3a.68.68 0 0 0 .41-.76q-.22-1.09-1.9-1.59l.55-.94c9.55-2.49 20.26 2.39 22.06 12.57q.26 1.52 1.22 1.79 6.66 1.91 13.51 2.8zm-20.064-.627a10.04 6.9 29.3 0 0-5.38-10.93 10.04 6.9 29.3 0 0-12.132 1.104 10.04 6.9 29.3 0 0 5.38 10.93 10.04 6.9 29.3 0 0 12.132-1.104z"/><ellipse fill="#fefefe" transform="rotate(29.3 -432.243 342.2)" rx="10.04" ry="6.9"/><rect fill="#522911" x="-5.08" y="-.25" transform="rotate(-16.3 1004.981 -558.153)" width="10.16" height=".5" rx=".25"/><path fill="#380b01" d="M140.99 260.85c12.4 1.81 26.05 1.08 38.5.12q-.15.46-.09.82.08.45.54.46.16 0 .31-.01a.18.18 0 0 1 .07.36q-.54.17-1.81-.02a.21.21 0 0 0-.24.23q.08.85-.26 1.74-17.63 1.92-35.29.13 2.08-.29 1.22-1.6a1.21 1.2 68.1 0 0-1.22-.53q-1.99.35-4.22.13-.24-.02-.45-.15-.36-.23.07-.2 3.6.31 2.87-1.48z"/><path fill="#f8e0d6" d="M136.18 275h-4.65l.48-9.78q2.03-.64 3.97-.11a.66.66 0 0 1 .48.66l-.28 9.23z"/></svg>