<?xml version="1.0" encoding="UTF-8" standalone="no"?>
<svg xmlns="http://www.w3.org/2000/svg" version="1.2" baseProfile="tiny" viewBox="0.00 0.00 512.00 512.00">
<g stroke-width="2.00" fill="none" stroke-linecap="butt">
<path stroke="#a79488" vector-effect="non-scaling-stroke" d="
  M 345.91 189.18
  Q 343.03 178.14 334.51 167.36
  A 0.87 0.86 42.3 0 1 334.46 166.37
  C 342.34 153.62 344.52 136.56 344.22 121.79
  C 344.20 120.55 343.62 118.95 342.41 118.42
  C 321.16 109.03 297.49 109.38 274.97 115.38
  Q 274.52 115.50 274.11 115.30
  C 227.86 93.39 174.16 90.97 126.85 110.88
  A 1.05 1.04 -45.3 0 1 126.03 110.89
  Q 101.45 100.81 73.41 103.51
  C 67.78 104.06 66.74 109.13 66.36 113.75
  Q 65.85 120.04 64.38 140.50
  C 63.74 149.44 64.50 159.38 68.75 167.26
  Q 69.13 167.96 68.77 168.68
  Q 60.72 184.82 57.99 208.39
  Q 56.31 222.97 56.60 233.75
  Q 56.62 234.46 56.15 234.99
  Q 46.75 245.82 47.00 260.18
  Q 47.01 260.76 46.53 261.07
  C 10.57 284.27 8.26 332.30 39.79 360.33
  C 54.01 372.98 71.27 382.20 89.29 389.12
  Q 115.40 399.14 142.97 404.55
  Q 234.03 422.43 327.66 408.27
  Q 353.80 404.32 380.92 396.21
  C 424.49 383.19 476.97 357.26 491.06 309.95
  C 496.88 290.45 494.96 267.66 482.37 251.38
  C 469.93 235.29 451.53 224.66 430.97 224.44
  A 1.42 1.41 68.5 0 1 429.97 224.00
  Q 421.01 214.37 410.13 205.86
  A 0.31 0.30 -49.8 0 1 410.10 205.41
  Q 426.92 187.94 429.13 161.69
  C 430.17 149.21 427.42 135.99 418.65 127.01
  C 412.41 120.63 402.42 117.97 395.91 125.59
  C 389.90 132.63 391.51 140.60 395.59 148.01
  C 398.64 153.54 402.97 162.11 402.12 168.38
  C 400.85 177.70 393.31 187.12 386.50 193.73
  A 0.49 0.48 33.3 0 1 385.99 193.83
  Q 370.54 188.00 352.61 189.37
  Q 349.55 189.60 346.64 189.73
  Q 346.06 189.75 345.91 189.18"
/>
<path stroke="#a3836f" vector-effect="non-scaling-stroke" d="
  M 185.44 320.50
  Q 192.50 321.71 195.76 321.80
  Q 222.68 322.47 249.27 317.89
  Q 249.76 317.81 249.76 317.30
  L 249.80 307.36"
/>
<path stroke="#a38d80" vector-effect="non-scaling-stroke" d="
  M 249.80 307.36
  Q 250.13 305.49 250.44 302.49
  C 251.37 293.76 255.53 283.26 263.11 278.72
  Q 273.54 272.47 285.28 277.74
  Q 292.16 280.82 294.97 288.97"
/>
<path stroke="#a3836f" vector-effect="non-scaling-stroke" d="
  M 294.97 288.97
  C 297.89 297.19 297.10 307.80 295.26 316.15
  A 0.34 0.34 0.0 0 0 295.72 316.54
  C 313.56 309.20 327.21 297.05 335.22 279.88
  C 340.99 267.53 343.66 253.71 344.19 240.50
  Q 344.99 220.19 340.42 200.37"
/>
<path stroke="#a38d80" vector-effect="non-scaling-stroke" d="
  M 340.42 200.37
  Q 339.40 193.22 337.57 186.57
  Q 336.08 181.12 333.92 177.62
  Q 331.25 173.30 327.88 169.17
  Q 326.09 166.98 327.73 164.76
  C 335.90 153.70 337.82 137.53 337.75 123.89
  A 0.82 0.81 11.4 0 0 337.25 123.14
  C 317.79 115.21 295.33 116.40 274.89 122.05
  Q 273.82 122.35 272.82 121.86
  C 226.86 99.60 173.57 97.19 127.14 117.79
  A 2.21 2.18 45.5 0 1 125.30 117.76
  C 110.20 110.41 91.38 108.23 74.51 109.78
  Q 74.03 109.83 73.76 110.23
  Q 72.98 111.40 72.86 112.87
  Q 71.63 127.59 70.67 141.72
  C 70.10 149.93 70.98 159.56 75.71 166.35
  A 2.38 2.37 41.9 0 1 75.85 168.83
  Q 70.06 179.48 67.27 191.72
  Q 62.46 212.85 62.90 235.67
  Q 62.93 237.02 61.93 238.08
  C 58.21 242.00 54.56 247.86 54.16 253.47
  Q 52.91 271.15 62.75 287.79
  C 65.83 293.02 69.66 295.79 74.71 299.79
  Q 75.37 300.31 75.22 299.48
  C 74.09 293.39 73.40 286.82 73.50 280.50
  C 73.59 274.33 75.93 270.91 81.80 268.88
  Q 86.68 267.19 91.21 266.52
  Q 116.74 262.78 141.14 265.67
  C 147.74 266.45 151.50 270.25 151.90 276.92
  C 152.69 290.04 152.06 302.88 151.47 315.86
  Q 151.45 316.46 152.05 316.44
  Q 169.03 316.11 185.44 320.50"
/>
<path stroke="#f7e8df" vector-effect="non-scaling-stroke" d="
  M 340.42 200.37
  Q 337.84 193.42 335.99 186.45
  Q 334.65 181.41 333.32 179.00
  Q 331.27 175.30 328.49 172.14
  Q 327.37 170.86 327.46 172.56
  Q 330.14 218.94 312.62 261.88
  Q 309.62 269.22 306.40 274.66
  Q 302.03 282.02 294.97 288.97"
/>
<path stroke="#f7e8df" vector-effect="non-scaling-stroke" d="
  M 249.80 307.36
  Q 241.32 311.76 234.49 313.69
  Q 220.56 317.62 204.83 319.23
  Q 203.01 319.42 195.14 319.51
  Q 190.27 319.57 185.44 320.50"
/>
<path stroke="#a38d80" vector-effect="non-scaling-stroke" d="
  M 393.37 196.88
  C 396.67 198.56 400.07 199.93 403.47 201.89
  Q 404.15 202.29 404.71 201.73
  Q 415.99 190.62 420.32 174.76
  C 424.19 160.56 424.63 143.82 415.11 132.60
  C 411.54 128.39 404.62 124.39 400.21 130.39
  Q 396.53 135.39 400.08 142.50
  Q 403.55 149.45 406.34 155.90
  Q 411.55 167.99 404.63 180.61
  Q 400.03 188.99 393.22 195.98
  Q 392.69 196.54 393.37 196.88"
/>
<path stroke="#a3836f" vector-effect="non-scaling-stroke" d="
  M 257.61 328.84
  Q 257.84 330.75 258.95 332.02
  Q 264.88 338.84 272.85 341.01
  Q 284.92 344.30 294.81 340.62
  Q 301.60 338.09 307.53 334.61
  Q 322.56 325.80 336.39 313.76
  A 3.21 3.17 26.7 0 1 338.77 312.99
  Q 343.31 313.41 347.49 313.15
  Q 365.44 312.02 387.93 307.80
  Q 391.58 307.11 395.18 305.53
  C 402.48 302.34 410.55 301.18 418.39 299.28
  Q 431.00 296.23 447.10 297.16
  C 454.87 297.60 466.74 295.37 471.96 288.81
  C 474.58 285.51 474.74 280.17 471.55 277.03
  C 468.24 273.77 463.04 272.32 458.23 271.65"
/>
<path stroke="#a38d80" vector-effect="non-scaling-stroke" d="
  M 458.23 271.65
  Q 452.52 270.70 445.50 270.88
  Q 442.25 270.96 441.89 267.78
  C 440.12 252.20 432.09 236.10 421.88 225.09
  C 413.32 215.85 403.18 207.80 391.14 202.86
  C 386.02 200.77 380.73 198.58 375.44 197.34
  Q 362.49 194.31 346.84 196.30
  A 0.45 0.45 0.0 0 0 346.46 196.84
  C 351.67 220.89 352.77 248.04 345.40 271.27
  Q 332.96 310.47 292.79 324.38
  C 289.96 325.36 286.59 324.24 287.66 320.58
  Q 290.94 309.29 290.45 298.87
  C 290.06 290.61 286.95 283.50 277.74 282.05
  C 262.21 279.59 256.78 295.33 256.34 308.01
  Q 255.92 320.14 257.61 328.84"
/>
<path stroke="#f7e8df" vector-effect="non-scaling-stroke" d="
  M 458.23 271.65
  Q 460.01 280.40 453.62 284.62
  Q 450.19 286.89 445.98 287.99
  C 431.57 291.75 416.50 292.92 401.30 293.94
  C 385.30 295.02 369.68 297.35 354.63 302.59
  Q 345.16 305.88 335.96 305.32
  C 334.71 305.24 333.73 305.96 332.85 306.75
  Q 326.59 312.38 320.48 317.91
  Q 311.65 325.88 299.18 329.78
  Q 278.75 336.18 257.61 328.84"
/>
<path stroke="#a16225" vector-effect="non-scaling-stroke" d="
  M 445.69 254.49
  L 447.90 264.01
  Q 448.02 264.52 448.54 264.51
  C 459.06 264.39 476.61 266.74 479.79 279.22
  Q 481.63 286.45 476.87 293.26"
/>
<path stroke="#a17037" vector-effect="non-scaling-stroke" d="
  M 476.87 293.26
  Q 471.02 298.81 464.70 300.77
  Q 463.71 301.08 464.64 301.53
  L 470.57 304.47"
/>
<path stroke="#a16225" vector-effect="non-scaling-stroke" d="
  M 470.57 304.47
  Q 472.86 310.28 466.74 309.55"
/>
<path stroke="#a17037" vector-effect="non-scaling-stroke" d="
  M 466.74 309.55
  Q 455.38 303.61 444.99 303.62
  Q 437.10 303.63 420.47 305.81
  C 405.00 307.84 389.11 316.70 379.50 327.88
  C 376.64 331.20 372.07 327.34 374.66 323.80"
/>
<path stroke="#a16225" vector-effect="non-scaling-stroke" d="
  M 374.66 323.80
  L 382.69 315.96
  Q 383.77 314.90 382.28 315.17
  Q 369.19 317.53 355.37 318.94
  Q 347.56 319.73 339.96 319.46
  A 1.31 1.31 0.0 0 0 339.06 319.77
  Q 323.59 333.11 306.92 342.15
  Q 298.67 346.62 292.58 347.86
  Q 274.82 351.46 260.84 342.32
  Q 252.42 336.82 249.37 326.93
  Q 249.21 326.41 249.24 325.86
  Q 249.26 325.34 249.05 324.90
  Q 248.82 324.42 248.30 324.50
  Q 233.46 326.85 215.93 328.02
  Q 194.39 329.46 176.78 325.18
  Q 165.13 322.34 151.86 322.89
  Q 151.17 322.92 151.15 323.61
  C 150.81 332.66 150.58 342.12 149.06 351.26
  Q 148.14 356.82 143.15 357.42
  Q 121.73 359.99 98.27 359.81
  Q 96.70 359.79 95.36 359.21
  Q 94.11 358.66 92.73 357.80"
/>
<path stroke="#a17037" vector-effect="non-scaling-stroke" d="
  M 92.73 357.80
  L 90.13 352.97"
/>
<path stroke="#a16225" vector-effect="non-scaling-stroke" d="
  M 90.13 352.97
  L 87.96 346.87
  Q 87.80 346.41 87.31 346.43
  Q 77.51 346.88 67.57 343.75"
/>
<path stroke="#a17037" vector-effect="non-scaling-stroke" d="
  M 67.57 343.75
  Q 52.55 336.55 54.86 319.46
  Q 56.41 308.00 61.70 298.63
  A 1.34 1.34 0.0 0 0 61.58 297.13
  Q 51.59 284.62 48.56 267.89
  A 0.37 0.37 0.0 0 0 47.99 267.66
  Q 37.87 274.62 31.42 285.19
  Q 21.87 300.84 24.80 320.21"
/>
<path stroke="#a16225" vector-effect="non-scaling-stroke" d="
  M 24.80 320.21
  Q 27.92 341.50 44.00 355.53
  C 64.41 373.34 90.63 384.15 116.57 391.47
  Q 146.05 399.79 177.57 403.75
  Q 249.35 412.76 320.08 402.90
  C 356.48 397.83 393.81 387.79 425.58 371.36
  C 453.62 356.86 480.90 332.91 486.74 300.25
  Q 489.66 283.95 484.60 268.98"
/>
<path stroke="#a17037" vector-effect="non-scaling-stroke" d="
  M 484.60 268.98
  Q 480.42 257.11 469.88 247.37
  Q 453.97 232.67 435.30 231.03
  Q 434.77 230.98 435.02 231.45
  Q 436.61 234.37 438.43 237.32
  Q 442.37 243.67 445.69 254.49"
/>
<path stroke="#f3a94b" vector-effect="non-scaling-stroke" d="
  M 484.60 268.98
  Q 482.98 267.98 481.63 266.84
  C 472.51 259.19 457.51 255.24 445.69 254.49"
/>
<path stroke="#f3a94b" vector-effect="non-scaling-stroke" d="
  M 24.80 320.21
  Q 30.33 329.68 31.93 332.08
  C 46.03 353.26 71.56 363.63 95.87 369.52
  Q 149.53 382.51 202.64 386.20
  C 271.50 390.98 341.23 381.50 403.08 352.84
  Q 426.44 342.03 445.56 328.59
  Q 456.70 320.77 466.74 309.55"
/>
<path stroke="#f3a94b" vector-effect="non-scaling-stroke" d="
  M 470.57 304.47
  Q 475.44 299.34 476.87 293.26"
/>
<path stroke="#f3a94b" vector-effect="non-scaling-stroke" d="
  M 67.57 343.75
  Q 76.03 353.82 90.13 352.97"
/>
<path stroke="#f3a94b" vector-effect="non-scaling-stroke" d="
  M 92.73 357.80
  Q 95.12 365.44 103.52 367.63
  Q 108.33 368.89 113.10 369.11
  Q 129.99 369.91 147.85 366.65
  Q 153.54 365.61 154.42 359.45
  Q 155.86 349.45 157.17 339.73
  C 158.07 333.01 164.46 333.50 169.50 334.02
  Q 206.87 337.86 242.77 341.42
  Q 243.35 341.48 243.77 341.88
  C 245.06 343.11 246.01 344.68 247.28 345.96
  C 258.16 356.93 274.51 360.73 289.52 358.27
  C 310.05 354.90 326.02 342.64 342.24 330.62
  C 349.93 324.91 360.61 320.55 370.48 322.83
  Q 372.58 323.31 374.66 323.80"
/>
<path stroke="#867e82" vector-effect="non-scaling-stroke" d="
  M 84.01 307.06
  C 98.38 299.67 111.93 310.68 109.47 325.91
  Q 107.43 338.61 94.41 344.20
  Q 93.99 344.38 94.10 344.83
  Q 95.09 348.84 97.02 352.42
  Q 97.61 353.50 98.78 353.51
  Q 121.15 353.58 141.96 351.20
  Q 142.47 351.14 142.58 350.65
  Q 143.48 346.81 143.74 343.00
  Q 144.24 335.56 144.58 327.56
  C 145.25 311.74 146.03 296.06 145.65 280.25
  Q 145.60 278.01 145.36 275.71
  C 145.02 272.37 140.39 271.84 137.89 271.63
  Q 120.10 270.13 102.00 271.56
  Q 93.70 272.22 86.24 274.10
  Q 83.54 274.78 81.18 276.27
  A 2.21 2.21 0.0 0 0 80.17 277.84
  Q 79.57 282.39 80.06 287.43
  Q 81.03 297.34 82.80 306.48
  A 0.84 0.83 -19.2 0 0 84.01 307.06"
/>
<path stroke="#a38d80" vector-effect="non-scaling-stroke" d="
  M 83.32 315.37
  C 81.29 317.41 78.08 316.45 77.64 313.56
  Q 77.45 312.30 77.24 311.05
  A 2.77 2.72 -75.4 0 0 76.28 309.38
  L 67.53 302.15
  Q 67.17 301.85 66.95 302.27
  Q 61.77 312.36 60.79 321.59
  C 59.18 336.81 74.00 340.77 85.86 339.66
  Q 92.98 339.00 97.86 334.72
  C 102.70 330.49 105.04 323.00 102.33 316.88
  C 98.87 309.05 88.63 310.06 83.32 315.37"
/>
<path stroke="#f6cdc4" vector-effect="non-scaling-stroke" d="
  M 97.54 129.56
  Q 95.84 129.19 97.49 128.65
  Q 103.84 126.59 110.95 126.39
  Q 111.54 126.38 111.95 125.96
  L 118.06 119.83
  A 0.57 0.56 -58.1 0 0 117.85 118.90
  Q 99.01 112.32 80.15 116.29
  Q 78.91 116.56 78.63 117.82
  Q 74.09 138.56 78.88 158.85
  A 0.49 0.49 0.0 0 0 79.74 159.05
  Q 87.29 149.51 95.16 141.58
  A 0.34 0.34 0.0 0 0 95.00 141.01
  L 89.48 139.62
  A 0.42 0.42 0.0 0 1 89.33 138.87
  Q 96.30 133.80 103.15 132.29
  Q 106.44 131.57 103.16 130.81
  Q 100.22 130.13 97.54 129.56"
/>
<path stroke="#f6cdc4" vector-effect="non-scaling-stroke" d="
  M 305.80 134.20
  Q 299.97 133.65 294.21 135.07
  Q 292.45 135.50 294.09 136.25
  Q 297.58 137.85 300.82 140.04
  C 302.48 141.16 304.12 140.91 305.97 140.92
  Q 310.52 140.92 314.02 144.45
  A 0.38 0.38 0.0 0 1 313.79 145.09
  Q 310.87 145.39 308.31 146.66
  A 0.44 0.43 -41.5 0 0 308.26 147.41
  Q 310.02 148.56 311.36 150.02
  Q 316.18 155.21 321.46 160.61
  Q 321.83 160.99 322.19 160.59
  C 325.69 156.66 328.21 152.97 328.91 147.46
  Q 329.96 139.17 330.35 131.30
  A 1.21 1.21 0.0 0 0 329.50 130.08
  Q 319.08 126.81 308.62 124.87
  C 300.01 123.27 290.70 122.99 282.51 126.14
  A 0.45 0.45 0.0 0 0 282.45 126.95
  C 284.47 128.13 286.36 129.34 288.86 129.11
  Q 298.41 128.24 306.03 133.55
  Q 307.13 134.32 305.80 134.20"
/>
<path stroke="#a38d80" vector-effect="non-scaling-stroke" d="
  M 142.46 241.31
  A 12.87 12.87 0.0 0 0 129.59 228.44
  A 12.87 12.87 0.0 0 0 116.72 241.31
  A 12.87 12.87 0.0 0 0 129.59 254.18
  A 12.87 12.87 0.0 0 0 142.46 241.31"
/>
<path stroke="#a38d80" vector-effect="non-scaling-stroke" d="
  M 249.01 249.45
  A 12.85 12.85 0.0 0 0 236.16 236.60
  A 12.85 12.85 0.0 0 0 223.31 249.45
  A 12.85 12.85 0.0 0 0 236.16 262.30
  A 12.85 12.85 0.0 0 0 249.01 249.45"
/>
<path stroke="#a38d80" vector-effect="non-scaling-stroke" d="
  M 274.20 246.11
  C 259.29 251.19 245.91 261.14 236.15 273.41
  Q 234.28 275.77 236.32 277.97
  Q 236.73 278.41 237.32 278.58
  Q 239.63 279.25 241.12 277.37
  Q 255.18 259.69 276.38 252.09
  Q 279.33 251.03 278.52 248.00
  Q 278.40 247.56 278.10 247.19
  Q 276.52 245.31 274.20 246.11"
/>
<path stroke="#a38d80" vector-effect="non-scaling-stroke" d="
  M 167.52 263.12
  Q 167.24 270.54 168.87 277.88
  C 170.01 282.97 174.23 288.71 179.91 284.65
  C 184.72 281.21 186.22 269.75 186.70 263.84
  Q 186.76 263.13 187.45 262.96
  L 188.92 262.59
  Q 190.26 262.25 191.09 261.15
  Q 192.40 259.42 191.84 258.18
  Q 190.54 255.32 187.53 256.38
  C 182.94 257.99 180.81 254.00 179.27 250.55
  A 1.91 1.91 0.0 0 0 178.49 249.68
  C 176.48 248.54 174.26 249.28 173.55 251.51
  Q 171.71 257.34 165.72 255.64
  A 1.82 1.79 -48.2 0 0 164.50 255.72
  C 160.13 257.65 162.42 262.39 166.67 262.27
  Q 167.56 262.24 167.52 263.12"
/>
<path stroke="#a26954" vector-effect="non-scaling-stroke" d="
  M 176.80 278.76
  C 179.26 274.55 180.09 267.55 180.44 262.61
  Q 180.47 262.14 180.11 261.82
  L 176.97 259.11
  A 0.46 0.46 0.0 0 0 176.38 259.10
  L 174.08 260.92
  A 0.80 0.77 -19.1 0 0 173.78 261.51
  Q 173.50 270.82 175.69 278.62
  A 0.61 0.61 0.0 0 0 176.80 278.76"
/>
<path stroke="#867e82" vector-effect="non-scaling-stroke" d="
  M 94.83 282.82
  A 4.77 4.77 0.0 0 0 90.06 278.05
  A 4.77 4.77 0.0 0 0 85.29 282.82
  A 4.77 4.77 0.0 0 0 90.06 287.59
  A 4.77 4.77 0.0 0 0 94.83 282.82"
/>
<path stroke="#867e82" vector-effect="non-scaling-stroke" d="
  M 102.28 281.47
  A 2.37 2.37 0.0 0 0 99.91 279.10
  A 2.37 2.37 0.0 0 0 97.54 281.47
  A 2.37 2.37 0.0 0 0 99.91 283.84
  A 2.37 2.37 0.0 0 0 102.28 281.47"
/>
<path stroke="#d69aa2" vector-effect="non-scaling-stroke" d="
  M 114.67 297.74
  Q 111.36 294.89 107.44 296.80
  C 106.16 297.42 105.19 298.84 105.76 300.28
  Q 108.32 306.67 115.29 308.72
  Q 116.00 308.93 116.48 308.35
  Q 118.87 305.41 121.38 302.36
  C 125.59 297.25 119.30 292.83 115.56 297.65
  Q 115.16 298.17 114.67 297.74"
/>
</g>
<path fill="#ffffff" d="
  M 381.11 173.62
  Q 383.42 170.50 384.68 167.15
  Q 384.89 166.58 384.71 165.99
  Q 383.59 162.47 382.57 160.58
  C 375.59 147.60 371.01 134.51 378.43 120.68
  C 386.18 106.22 401.75 99.94 417.18 105.78
  C 432.15 111.46 441.87 126.31 445.17 141.94
  C 449.44 162.16 444.48 184.96 433.99 202.72
  Q 433.71 203.19 434.11 203.58
  L 437.64 206.98
  Q 438.15 207.47 438.85 207.55
  C 460.74 209.97 479.52 221.23 493.95 238.16
  C 513.63 261.24 515.76 294.75 505.05 322.57
  C 491.74 357.13 460.83 381.11 428.16 396.61
  C 377.20 420.81 319.60 429.35 263.26 431.66
  Q 253.22 432.08 243.27 431.96
  Q 205.53 431.51 168.99 426.56
  C 131.99 421.54 93.95 412.10 60.92 395.24
  C 42.47 385.82 23.86 372.74 12.98 355.39
  C -7.64 322.49 -2.58 280.52 26.65 254.39
  Q 28.32 252.90 29.91 251.41
  Q 30.29 251.05 30.38 250.54
  Q 32.26 238.83 38.92 228.90
  Q 39.24 228.42 39.25 227.85
  C 39.44 207.86 42.78 186.42 49.85 168.27
  Q 50.04 167.78 49.90 167.28
  Q 46.19 153.91 46.98 141.55
  Q 47.90 127.13 49.01 113.42
  C 50.10 100.09 55.59 88.96 70.01 86.62
  Q 76.95 85.49 85.01 85.58
  Q 106.23 85.81 125.78 92.29
  Q 126.27 92.45 126.75 92.28
  C 175.63 74.41 228.12 76.34 275.82 97.05
  A 1.43 1.41 -39.3 0 0 276.69 97.13
  C 297.24 92.64 317.75 92.28 337.77 98.23
  Q 349.22 101.64 354.02 105.57
  C 362.24 112.29 361.98 121.85 361.36 132.02
  Q 360.24 150.49 354.61 165.00
  A 1.34 1.34 0.0 0 0 354.69 166.16
  L 357.52 171.26
  Q 357.82 171.79 358.42 171.78
  Q 369.26 171.71 380.10 174.00
  Q 380.73 174.13 381.11 173.62
  Z
  M 345.91 189.18
  Q 343.03 178.14 334.51 167.36
  A 0.87 0.86 42.3 0 1 334.46 166.37
  C 342.34 153.62 344.52 136.56 344.22 121.79
  C 344.20 120.55 343.62 118.95 342.41 118.42
  C 321.16 109.03 297.49 109.38 274.97 115.38
  Q 274.52 115.50 274.11 115.30
  C 227.86 93.39 174.16 90.97 126.85 110.88
  A 1.05 1.04 -45.3 0 1 126.03 110.89
  Q 101.45 100.81 73.41 103.51
  C 67.78 104.06 66.74 109.13 66.36 113.75
  Q 65.85 120.04 64.38 140.50
  C 63.74 149.44 64.50 159.38 68.75 167.26
  Q 69.13 167.96 68.77 168.68
  Q 60.72 184.82 57.99 208.39
  Q 56.31 222.97 56.60 233.75
  Q 56.62 234.46 56.15 234.99
  Q 46.75 245.82 47.00 260.18
  Q 47.01 260.76 46.53 261.07
  C 10.57 284.27 8.26 332.30 39.79 360.33
  C 54.01 372.98 71.27 382.20 89.29 389.12
  Q 115.40 399.14 142.97 404.55
  Q 234.03 422.43 327.66 408.27
  Q 353.80 404.32 380.92 396.21
  C 424.49 383.19 476.97 357.26 491.06 309.95
  C 496.88 290.45 494.96 267.66 482.37 251.38
  C 469.93 235.29 451.53 224.66 430.97 224.44
  A 1.42 1.41 68.5 0 1 429.97 224.00
  Q 421.01 214.37 410.13 205.86
  A 0.31 0.30 -49.8 0 1 410.10 205.41
  Q 426.92 187.94 429.13 161.69
  C 430.17 149.21 427.42 135.99 418.65 127.01
  C 412.41 120.63 402.42 117.97 395.91 125.59
  C 389.90 132.63 391.51 140.60 395.59 148.01
  C 398.64 153.54 402.97 162.11 402.12 168.38
  C 400.85 177.70 393.31 187.12 386.50 193.73
  A 0.49 0.48 33.3 0 1 385.99 193.83
  Q 370.54 188.00 352.61 189.37
  Q 349.55 189.60 346.64 189.73
  Q 346.06 189.75 345.91 189.18
  Z"
/>
<path fill="#4f2810" d="
  M 346.64 189.73
  Q 349.55 189.60 352.61 189.37
  Q 370.54 188.00 385.99 193.83
  A 0.49 0.48 33.3 0 0 386.50 193.73
  C 393.31 187.12 400.85 177.70 402.12 168.38
  C 402.97 162.11 398.64 153.54 395.59 148.01
  C 391.51 140.60 389.90 132.63 395.91 125.59
  C 402.42 117.97 412.41 120.63 418.65 127.01
  C 427.42 135.99 430.17 149.21 429.13 161.69
  Q 426.92 187.94 410.10 205.41
  A 0.31 0.30 -49.8 0 0 410.13 205.86
  Q 421.01 214.37 429.97 224.00
  A 1.42 1.41 68.5 0 0 430.97 224.44
  C 451.53 224.66 469.93 235.29 482.37 251.38
  C 494.96 267.66 496.88 290.45 491.06 309.95
  C 476.97 357.26 424.49 383.19 380.92 396.21
  Q 353.80 404.32 327.66 408.27
  Q 234.03 422.43 142.97 404.55
  Q 115.40 399.14 89.29 389.12
  C 71.27 382.20 54.01 372.98 39.79 360.33
  C 8.26 332.30 10.57 284.27 46.53 261.07
  Q 47.01 260.76 47.00 260.18
  Q 46.75 245.82 56.15 234.99
  Q 56.62 234.46 56.60 233.75
  Q 56.31 222.97 57.99 208.39
  Q 60.72 184.82 68.77 168.68
  Q 69.13 167.96 68.75 167.26
  C 64.50 159.38 63.74 149.44 64.38 140.50
  Q 65.85 120.04 66.36 113.75
  C 66.74 109.13 67.78 104.06 73.41 103.51
  Q 101.45 100.81 126.03 110.89
  A 1.05 1.04 -45.3 0 0 126.85 110.88
  C 174.16 90.97 227.86 93.39 274.11 115.30
  Q 274.52 115.50 274.97 115.38
  C 297.49 109.38 321.16 109.03 342.41 118.42
  C 343.62 118.95 344.20 120.55 344.22 121.79
  C 344.52 136.56 342.34 153.62 334.46 166.37
  A 0.87 0.86 42.3 0 0 334.51 167.36
  Q 343.03 178.14 345.91 189.18
  Q 346.06 189.75 346.64 189.73
  Z
  M 185.44 320.50
  Q 192.50 321.71 195.76 321.80
  Q 222.68 322.47 249.27 317.89
  Q 249.76 317.81 249.76 317.30
  L 249.80 307.36
  Q 250.13 305.49 250.44 302.49
  C 251.37 293.76 255.53 283.26 263.11 278.72
  Q 273.54 272.47 285.28 277.74
  Q 292.16 280.82 294.97 288.97
  C 297.89 297.19 297.10 307.80 295.26 316.15
  A 0.34 0.34 0.0 0 0 295.72 316.54
  C 313.56 309.20 327.21 297.05 335.22 279.88
  C 340.99 267.53 343.66 253.71 344.19 240.50
  Q 344.99 220.19 340.42 200.37
  Q 339.40 193.22 337.57 186.57
  Q 336.08 181.12 333.92 177.62
  Q 331.25 173.30 327.88 169.17
  Q 326.09 166.98 327.73 164.76
  C 335.90 153.70 337.82 137.53 337.75 123.89
  A 0.82 0.81 11.4 0 0 337.25 123.14
  C 317.79 115.21 295.33 116.40 274.89 122.05
  Q 273.82 122.35 272.82 121.86
  C 226.86 99.60 173.57 97.19 127.14 117.79
  A 2.21 2.18 45.5 0 1 125.30 117.76
  C 110.20 110.41 91.38 108.23 74.51 109.78
  Q 74.03 109.83 73.76 110.23
  Q 72.98 111.40 72.86 112.87
  Q 71.63 127.59 70.67 141.72
  C 70.10 149.93 70.98 159.56 75.71 166.35
  A 2.38 2.37 41.9 0 1 75.85 168.83
  Q 70.06 179.48 67.27 191.72
  Q 62.46 212.85 62.90 235.67
  Q 62.93 237.02 61.93 238.08
  C 58.21 242.00 54.56 247.86 54.16 253.47
  Q 52.91 271.15 62.75 287.79
  C 65.83 293.02 69.66 295.79 74.71 299.79
  Q 75.37 300.31 75.22 299.48
  C 74.09 293.39 73.40 286.82 73.50 280.50
  C 73.59 274.33 75.93 270.91 81.80 268.88
  Q 86.68 267.19 91.21 266.52
  Q 116.74 262.78 141.14 265.67
  C 147.74 266.45 151.50 270.25 151.90 276.92
  C 152.69 290.04 152.06 302.88 151.47 315.86
  Q 151.45 316.46 152.05 316.44
  Q 169.03 316.11 185.44 320.50
  Z
  M 393.37 196.88
  C 396.67 198.56 400.07 199.93 403.47 201.89
  Q 404.15 202.29 404.71 201.73
  Q 415.99 190.62 420.32 174.76
  C 424.19 160.56 424.63 143.82 415.11 132.60
  C 411.54 128.39 404.62 124.39 400.21 130.39
  Q 396.53 135.39 400.08 142.50
  Q 403.55 149.45 406.34 155.90
  Q 411.55 167.99 404.63 180.61
  Q 400.03 188.99 393.22 195.98
  Q 392.69 196.54 393.37 196.88
  Z
  M 257.61 328.84
  Q 257.84 330.75 258.95 332.02
  Q 264.88 338.84 272.85 341.01
  Q 284.92 344.30 294.81 340.62
  Q 301.60 338.09 307.53 334.61
  Q 322.56 325.80 336.39 313.76
  A 3.21 3.17 26.7 0 1 338.77 312.99
  Q 343.31 313.41 347.49 313.15
  Q 365.44 312.02 387.93 307.80
  Q 391.58 307.11 395.18 305.53
  C 402.48 302.34 410.55 301.18 418.39 299.28
  Q 431.00 296.23 447.10 297.16
  C 454.87 297.60 466.74 295.37 471.96 288.81
  C 474.58 285.51 474.74 280.17 471.55 277.03
  C 468.24 273.77 463.04 272.32 458.23 271.65
  Q 452.52 270.70 445.50 270.88
  Q 442.25 270.96 441.89 267.78
  C 440.12 252.20 432.09 236.10 421.88 225.09
  C 413.32 215.85 403.18 207.80 391.14 202.86
  C 386.02 200.77 380.73 198.58 375.44 197.34
  Q 362.49 194.31 346.84 196.30
  A 0.45 0.45 0.0 0 0 346.46 196.84
  C 351.67 220.89 352.77 248.04 345.40 271.27
  Q 332.96 310.47 292.79 324.38
  C 289.96 325.36 286.59 324.24 287.66 320.58
  Q 290.94 309.29 290.45 298.87
  C 290.06 290.61 286.95 283.50 277.74 282.05
  C 262.21 279.59 256.78 295.33 256.34 308.01
  Q 255.92 320.14 257.61 328.84
  Z
  M 445.69 254.49
  L 447.90 264.01
  Q 448.02 264.52 448.54 264.51
  C 459.06 264.39 476.61 266.74 479.79 279.22
  Q 481.63 286.45 476.87 293.26
  Q 471.02 298.81 464.70 300.77
  Q 463.71 301.08 464.64 301.53
  L 470.57 304.47
  Q 472.86 310.28 466.74 309.55
  Q 455.38 303.61 444.99 303.62
  Q 437.10 303.63 420.47 305.81
  C 405.00 307.84 389.11 316.70 379.50 327.88
  C 376.64 331.20 372.07 327.34 374.66 323.80
  L 382.69 315.96
  Q 383.77 314.90 382.28 315.17
  Q 369.19 317.53 355.37 318.94
  Q 347.56 319.73 339.96 319.46
  A 1.31 1.31 0.0 0 0 339.06 319.77
  Q 323.59 333.11 306.92 342.15
  Q 298.67 346.62 292.58 347.86
  Q 274.82 351.46 260.84 342.32
  Q 252.42 336.82 249.37 326.93
  Q 249.21 326.41 249.24 325.86
  Q 249.26 325.34 249.05 324.90
  Q 248.82 324.42 248.30 324.50
  Q 233.46 326.85 215.93 328.02
  Q 194.39 329.46 176.78 325.18
  Q 165.13 322.34 151.86 322.89
  Q 151.17 322.92 151.15 323.61
  C 150.81 332.66 150.58 342.12 149.06 351.26
  Q 148.14 356.82 143.15 357.42
  Q 121.73 359.99 98.27 359.81
  Q 96.70 359.79 95.36 359.21
  Q 94.11 358.66 92.73 357.80
  L 90.13 352.97
  L 87.96 346.87
  Q 87.80 346.41 87.31 346.43
  Q 77.51 346.88 67.57 343.75
  Q 52.55 336.55 54.86 319.46
  Q 56.41 308.00 61.70 298.63
  A 1.34 1.34 0.0 0 0 61.58 297.13
  Q 51.59 284.62 48.56 267.89
  A 0.37 0.37 0.0 0 0 47.99 267.66
  Q 37.87 274.62 31.42 285.19
  Q 21.87 300.84 24.80 320.21
  Q 27.92 341.50 44.00 355.53
  C 64.41 373.34 90.63 384.15 116.57 391.47
  Q 146.05 399.79 177.57 403.75
  Q 249.35 412.76 320.08 402.90
  C 356.48 397.83 393.81 387.79 425.58 371.36
  C 453.62 356.86 480.90 332.91 486.74 300.25
  Q 489.66 283.95 484.60 268.98
  Q 480.42 257.11 469.88 247.37
  Q 453.97 232.67 435.30 231.03
  Q 434.77 230.98 435.02 231.45
  Q 436.61 234.37 438.43 237.32
  Q 442.37 243.67 445.69 254.49
  Z
  M 84.01 307.06
  C 98.38 299.67 111.93 310.68 109.47 325.91
  Q 107.43 338.61 94.41 344.20
  Q 93.99 344.38 94.10 344.83
  Q 95.09 348.84 97.02 352.42
  Q 97.61 353.50 98.78 353.51
  Q 121.15 353.58 141.96 351.20
  Q 142.47 351.14 142.58 350.65
  Q 143.48 346.81 143.74 343.00
  Q 144.24 335.56 144.58 327.56
  C 145.25 311.74 146.03 296.06 145.65 280.25
  Q 145.60 278.01 145.36 275.71
  C 145.02 272.37 140.39 271.84 137.89 271.63
  Q 120.10 270.13 102.00 271.56
  Q 93.70 272.22 86.24 274.10
  Q 83.54 274.78 81.18 276.27
  A 2.21 2.21 0.0 0 0 80.17 277.84
  Q 79.57 282.39 80.06 287.43
  Q 81.03 297.34 82.80 306.48
  A 0.84 0.83 -19.2 0 0 84.01 307.06
  Z
  M 83.32 315.37
  C 81.29 317.41 78.08 316.45 77.64 313.56
  Q 77.45 312.30 77.24 311.05
  A 2.77 2.72 -75.4 0 0 76.28 309.38
  L 67.53 302.15
  Q 67.17 301.85 66.95 302.27
  Q 61.77 312.36 60.79 321.59
  C 59.18 336.81 74.00 340.77 85.86 339.66
  Q 92.98 339.00 97.86 334.72
  C 102.70 330.49 105.04 323.00 102.33 316.88
  C 98.87 309.05 88.63 310.06 83.32 315.37
  Z"
/>
<path fill="#f7f1f0" d="
  M 340.42 200.37
  Q 337.84 193.42 335.99 186.45
  Q 334.65 181.41 333.32 179.00
  Q 331.27 175.30 328.49 172.14
  Q 327.37 170.86 327.46 172.56
  Q 330.14 218.94 312.62 261.88
  Q 309.62 269.22 306.40 274.66
  Q 302.03 282.02 294.97 288.97
  Q 292.16 280.82 285.28 277.74
  Q 273.54 272.47 263.11 278.72
  C 255.53 283.26 251.37 293.76 250.44 302.49
  Q 250.13 305.49 249.80 307.36
  Q 241.32 311.76 234.49 313.69
  Q 220.56 317.62 204.83 319.23
  Q 203.01 319.42 195.14 319.51
  Q 190.27 319.57 185.44 320.50
  Q 169.03 316.11 152.05 316.44
  Q 151.45 316.46 151.47 315.86
  C 152.06 302.88 152.69 290.04 151.90 276.92
  C 151.50 270.25 147.74 266.45 141.14 265.67
  Q 116.74 262.78 91.21 266.52
  Q 86.68 267.19 81.80 268.88
  C 75.93 270.91 73.59 274.33 73.50 280.50
  C 73.40 286.82 74.09 293.39 75.22 299.48
  Q 75.37 300.31 74.71 299.79
  C 69.66 295.79 65.83 293.02 62.75 287.79
  Q 52.91 271.15 54.16 253.47
  C 54.56 247.86 58.21 242.00 61.93 238.08
  Q 62.93 237.02 62.90 235.67
  Q 62.46 212.85 67.27 191.72
  Q 70.06 179.48 75.85 168.83
  A 2.38 2.37 41.9 0 0 75.71 166.35
  C 70.98 159.56 70.10 149.93 70.67 141.72
  Q 71.63 127.59 72.86 112.87
  Q 72.98 111.40 73.76 110.23
  Q 74.03 109.83 74.51 109.78
  C 91.38 108.23 110.20 110.41 125.30 117.76
  A 2.21 2.18 45.5 0 0 127.14 117.79
  C 173.57 97.19 226.86 99.60 272.82 121.86
  Q 273.82 122.35 274.89 122.05
  C 295.33 116.40 317.79 115.21 337.25 123.14
  A 0.82 0.81 11.4 0 1 337.75 123.89
  C 337.82 137.53 335.90 153.70 327.73 164.76
  Q 326.09 166.98 327.88 169.17
  Q 331.25 173.30 333.92 177.62
  Q 336.08 181.12 337.57 186.57
  Q 339.40 193.22 340.42 200.37
  Z
  M 97.54 129.56
  Q 95.84 129.19 97.49 128.65
  Q 103.84 126.59 110.95 126.39
  Q 111.54 126.38 111.95 125.96
  L 118.06 119.83
  A 0.57 0.56 -58.1 0 0 117.85 118.90
  Q 99.01 112.32 80.15 116.29
  Q 78.91 116.56 78.63 117.82
  Q 74.09 138.56 78.88 158.85
  A 0.49 0.49 0.0 0 0 79.74 159.05
  Q 87.29 149.51 95.16 141.58
  A 0.34 0.34 0.0 0 0 95.00 141.01
  L 89.48 139.62
  A 0.42 0.42 0.0 0 1 89.33 138.87
  Q 96.30 133.80 103.15 132.29
  Q 106.44 131.57 103.16 130.81
  Q 100.22 130.13 97.54 129.56
  Z
  M 305.80 134.20
  Q 299.97 133.65 294.21 135.07
  Q 292.45 135.50 294.09 136.25
  Q 297.58 137.85 300.82 140.04
  C 302.48 141.16 304.12 140.91 305.97 140.92
  Q 310.52 140.92 314.02 144.45
  A 0.38 0.38 0.0 0 1 313.79 145.09
  Q 310.87 145.39 308.31 146.66
  A 0.44 0.43 -41.5 0 0 308.26 147.41
  Q 310.02 148.56 311.36 150.02
  Q 316.18 155.21 321.46 160.61
  Q 321.83 160.99 322.19 160.59
  C 325.69 156.66 328.21 152.97 328.91 147.46
  Q 329.96 139.17 330.35 131.30
  A 1.21 1.21 0.0 0 0 329.50 130.08
  Q 319.08 126.81 308.62 124.87
  C 300.01 123.27 290.70 122.99 282.51 126.14
  A 0.45 0.45 0.0 0 0 282.45 126.95
  C 284.47 128.13 286.36 129.34 288.86 129.11
  Q 298.41 128.24 306.03 133.55
  Q 307.13 134.32 305.80 134.20
  Z
  M 142.46 241.31
  A 12.87 12.87 0.0 0 0 129.59 228.44
  A 12.87 12.87 0.0 0 0 116.72 241.31
  A 12.87 12.87 0.0 0 0 129.59 254.18
  A 12.87 12.87 0.0 0 0 142.46 241.31
  Z
  M 249.01 249.45
  A 12.85 12.85 0.0 0 0 236.16 236.60
  A 12.85 12.85 0.0 0 0 223.31 249.45
  A 12.85 12.85 0.0 0 0 236.16 262.30
  A 12.85 12.85 0.0 0 0 249.01 249.45
  Z
  M 274.20 246.11
  C 259.29 251.19 245.91 261.14 236.15 273.41
  Q 234.28 275.77 236.32 277.97
  Q 236.73 278.41 237.32 278.58
  Q 239.63 279.25 241.12 277.37
  Q 255.18 259.69 276.38 252.09
  Q 279.33 251.03 278.52 248.00
  Q 278.40 247.56 278.10 247.19
  Q 276.52 245.31 274.20 246.11
  Z
  M 167.52 263.12
  Q 167.24 270.54 168.87 277.88
  C 170.01 282.97 174.23 288.71 179.91 284.65
  C 184.72 281.21 186.22 269.75 186.70 263.84
  Q 186.76 263.13 187.45 262.96
  L 188.92 262.59
  Q 190.26 262.25 191.09 261.15
  Q 192.40 259.42 191.84 258.18
  Q 190.54 255.32 187.53 256.38
  C 182.94 257.99 180.81 254.00 179.27 250.55
  A 1.91 1.91 0.0 0 0 178.49 249.68
  C 176.48 248.54 174.26 249.28 173.55 251.51
  Q 171.71 257.34 165.72 255.64
  A 1.82 1.79 -48.2 0 0 164.50 255.72
  C 160.13 257.65 162.42 262.39 166.67 262.27
  Q 167.56 262.24 167.52 263.12
  Z"
/>
<path fill="#f5a998" d="
  M 97.54 129.56
  Q 100.22 130.13 103.16 130.81
  Q 106.44 131.57 103.15 132.29
  Q 96.30 133.80 89.33 138.87
  A 0.42 0.42 0.0 0 0 89.48 139.62
  L 95.00 141.01
  A 0.34 0.34 0.0 0 1 95.16 141.58
  Q 87.29 149.51 79.74 159.05
  A 0.49 0.49 0.0 0 1 78.88 158.85
  Q 74.09 138.56 78.63 117.82
  Q 78.91 116.56 80.15 116.29
  Q 99.01 112.32 117.85 118.90
  A 0.57 0.56 -58.1 0 1 118.06 119.83
  L 111.95 125.96
  Q 111.54 126.38 110.95 126.39
  Q 103.84 126.59 97.49 128.65
  Q 95.84 129.19 97.54 129.56
  Z"
/>
<path fill="#f5a998" d="
  M 305.80 134.20
  Q 307.13 134.32 306.03 133.55
  Q 298.41 128.24 288.86 129.11
  C 286.36 129.34 284.47 128.13 282.45 126.95
  A 0.45 0.45 0.0 0 1 282.51 126.14
  C 290.70 122.99 300.01 123.27 308.62 124.87
  Q 319.08 126.81 329.50 130.08
  A 1.21 1.21 0.0 0 1 330.35 131.30
  Q 329.96 139.17 328.91 147.46
  C 328.21 152.97 325.69 156.66 322.19 160.59
  Q 321.83 160.99 321.46 160.61
  Q 316.18 155.21 311.36 150.02
  Q 310.02 148.56 308.26 147.41
  A 0.44 0.43 -41.5 0 1 308.31 146.66
  Q 310.87 145.39 313.79 145.09
  A 0.38 0.38 0.0 0 0 314.02 144.45
  Q 310.52 140.92 305.97 140.92
  C 304.12 140.91 302.48 141.16 300.82 140.04
  Q 297.58 137.85 294.09 136.25
  Q 292.45 135.50 294.21 135.07
  Q 299.97 133.65 305.80 134.20
  Z"
/>
<path fill="#f7f1f0" d="
  M 403.47 201.89
  C 400.07 199.93 396.67 198.56 393.37 196.88
  Q 392.69 196.54 393.22 195.98
  Q 400.03 188.99 404.63 180.61
  Q 411.55 167.99 406.34 155.90
  Q 403.55 149.45 400.08 142.50
  Q 396.53 135.39 400.21 130.39
  C 404.62 124.39 411.54 128.39 415.11 132.60
  C 424.63 143.82 424.19 160.56 420.32 174.76
  Q 415.99 190.62 404.71 201.73
  Q 404.15 202.29 403.47 201.89
  Z"
/>
<path fill="#f7dece" d="
  M 340.42 200.37
  Q 344.99 220.19 344.19 240.50
  C 343.66 253.71 340.99 267.53 335.22 279.88
  C 327.21 297.05 313.56 309.20 295.72 316.54
  A 0.34 0.34 0.0 0 1 295.26 316.15
  C 297.10 307.80 297.89 297.19 294.97 288.97
  Q 302.03 282.02 306.40 274.66
  Q 309.62 269.22 312.62 261.88
  Q 330.14 218.94 327.46 172.56
  Q 327.37 170.86 328.49 172.14
  Q 331.27 175.30 333.32 179.00
  Q 334.65 181.41 335.99 186.45
  Q 337.84 193.42 340.42 200.37
  Z"
/>
<path fill="#f7f1f0" d="
  M 458.23 271.65
  Q 460.01 280.40 453.62 284.62
  Q 450.19 286.89 445.98 287.99
  C 431.57 291.75 416.50 292.92 401.30 293.94
  C 385.30 295.02 369.68 297.35 354.63 302.59
  Q 345.16 305.88 335.96 305.32
  C 334.71 305.24 333.73 305.96 332.85 306.75
  Q 326.59 312.38 320.48 317.91
  Q 311.65 325.88 299.18 329.78
  Q 278.75 336.18 257.61 328.84
  Q 255.92 320.14 256.34 308.01
  C 256.78 295.33 262.21 279.59 277.74 282.05
  C 286.95 283.50 290.06 290.61 290.45 298.87
  Q 290.94 309.29 287.66 320.58
  C 286.59 324.24 289.96 325.36 292.79 324.38
  Q 332.96 310.47 345.40 271.27
  C 352.77 248.04 351.67 220.89 346.46 196.84
  A 0.45 0.45 0.0 0 1 346.84 196.30
  Q 362.49 194.31 375.44 197.34
  C 380.73 198.58 386.02 200.77 391.14 202.86
  C 403.18 207.80 413.32 215.85 421.88 225.09
  C 432.09 236.10 440.12 252.20 441.89 267.78
  Q 442.25 270.96 445.50 270.88
  Q 452.52 270.70 458.23 271.65
  Z"
/>
<circle fill="#4f2810" cx="129.59" cy="241.31" r="12.87"/>
<path fill="#f3b75d" d="
  M 484.60 268.98
  Q 482.98 267.98 481.63 266.84
  C 472.51 259.19 457.51 255.24 445.69 254.49
  Q 442.37 243.67 438.43 237.32
  Q 436.61 234.37 435.02 231.45
  Q 434.77 230.98 435.30 231.03
  Q 453.97 232.67 469.88 247.37
  Q 480.42 257.11 484.60 268.98
  Z"
/>
<circle fill="#4f2810" cx="236.16" cy="249.45" r="12.85"/>
<path fill="#4f2810" d="
  M 236.15 273.41
  C 245.91 261.14 259.29 251.19 274.20 246.11
  Q 276.52 245.31 278.10 247.19
  Q 278.40 247.56 278.52 248.00
  Q 279.33 251.03 276.38 252.09
  Q 255.18 259.69 241.12 277.37
  Q 239.63 279.25 237.32 278.58
  Q 236.73 278.41 236.32 277.97
  Q 234.28 275.77 236.15 273.41
  Z"
/>
<path fill="#4f2810" d="
  M 166.67 262.27
  C 162.42 262.39 160.13 257.65 164.50 255.72
  A 1.82 1.79 -48.2 0 1 165.72 255.64
  Q 171.71 257.34 173.55 251.51
  C 174.26 249.28 176.48 248.54 178.49 249.68
  A 1.91 1.91 0.0 0 1 179.27 250.55
  C 180.81 254.00 182.94 257.99 187.53 256.38
  Q 190.54 255.32 191.84 258.18
  Q 192.40 259.42 191.09 261.15
  Q 190.26 262.25 188.92 262.59
  L 187.45 262.96
  Q 186.76 263.13 186.70 263.84
  C 186.22 269.75 184.72 281.21 179.91 284.65
  C 174.23 288.71 170.01 282.97 168.87 277.88
  Q 167.24 270.54 167.52 263.12
  Q 167.56 262.24 166.67 262.27
  Z
  M 176.80 278.76
  C 179.26 274.55 180.09 267.55 180.44 262.61
  Q 180.47 262.14 180.11 261.82
  L 176.97 259.11
  A 0.46 0.46 0.0 0 0 176.38 259.10
  L 174.08 260.92
  A 0.80 0.77 -19.1 0 0 173.78 261.51
  Q 173.50 270.82 175.69 278.62
  A 0.61 0.61 0.0 0 0 176.80 278.76
  Z"
/>
<path fill="#f39b39" d="
  M 445.69 254.49
  C 457.51 255.24 472.51 259.19 481.63 266.84
  Q 482.98 267.98 484.60 268.98
  Q 489.66 283.95 486.74 300.25
  C 480.90 332.91 453.62 356.86 425.58 371.36
  C 393.81 387.79 356.48 397.83 320.08 402.90
  Q 249.35 412.76 177.57 403.75
  Q 146.05 399.79 116.57 391.47
  C 90.63 384.15 64.41 373.34 44.00 355.53
  Q 27.92 341.50 24.80 320.21
  Q 30.33 329.68 31.93 332.08
  C 46.03 353.26 71.56 363.63 95.87 369.52
  Q 149.53 382.51 202.64 386.20
  C 271.50 390.98 341.23 381.50 403.08 352.84
  Q 426.44 342.03 445.56 328.59
  Q 456.70 320.77 466.74 309.55
  Q 472.86 310.28 470.57 304.47
  Q 475.44 299.34 476.87 293.26
  Q 481.63 286.45 479.79 279.22
  C 476.61 266.74 459.06 264.39 448.54 264.51
  Q 448.02 264.52 447.90 264.01
  L 445.69 254.49
  Z"
/>
<path fill="#f5a998" d="
  M 180.44 262.61
  C 180.09 267.55 179.26 274.55 176.80 278.76
  A 0.61 0.61 0.0 0 1 175.69 278.62
  Q 173.50 270.82 173.78 261.51
  A 0.80 0.77 -19.1 0 1 174.08 260.92
  L 176.38 259.10
  A 0.46 0.46 0.0 0 1 176.97 259.11
  L 180.11 261.82
  Q 180.47 262.14 180.44 262.61
  Z"
/>
<path fill="#f3b75d" d="
  M 67.57 343.75
  Q 76.03 353.82 90.13 352.97
  L 92.73 357.80
  Q 95.12 365.44 103.52 367.63
  Q 108.33 368.89 113.10 369.11
  Q 129.99 369.91 147.85 366.65
  Q 153.54 365.61 154.42 359.45
  Q 155.86 349.45 157.17 339.73
  C 158.07 333.01 164.46 333.50 169.50 334.02
  Q 206.87 337.86 242.77 341.42
  Q 243.35 341.48 243.77 341.88
  C 245.06 343.11 246.01 344.68 247.28 345.96
  C 258.16 356.93 274.51 360.73 289.52 358.27
  C 310.05 354.90 326.02 342.64 342.24 330.62
  C 349.93 324.91 360.61 320.55 370.48 322.83
  Q 372.58 323.31 374.66 323.80
  C 372.07 327.34 376.64 331.20 379.50 327.88
  C 389.11 316.70 405.00 307.84 420.47 305.81
  Q 437.10 303.63 444.99 303.62
  Q 455.38 303.61 466.74 309.55
  Q 456.70 320.77 445.56 328.59
  Q 426.44 342.03 403.08 352.84
  C 341.23 381.50 271.50 390.98 202.64 386.20
  Q 149.53 382.51 95.87 369.52
  C 71.56 363.63 46.03 353.26 31.93 332.08
  Q 30.33 329.68 24.80 320.21
  Q 21.87 300.84 31.42 285.19
  Q 37.87 274.62 47.99 267.66
  A 0.37 0.37 0.0 0 1 48.56 267.89
  Q 51.59 284.62 61.58 297.13
  A 1.34 1.34 0.0 0 1 61.70 298.63
  Q 56.41 308.00 54.86 319.46
  Q 52.55 336.55 67.57 343.75
  Z"
/>
<path fill="#bdd3f3" d="
  M 109.47 325.91
  C 111.93 310.68 98.38 299.67 84.01 307.06
  A 0.84 0.83 -19.2 0 1 82.80 306.48
  Q 81.03 297.34 80.06 287.43
  Q 79.57 282.39 80.17 277.84
  A 2.21 2.21 0.0 0 1 81.18 276.27
  Q 83.54 274.78 86.24 274.10
  Q 93.70 272.22 102.00 271.56
  Q 120.10 270.13 137.89 271.63
  C 140.39 271.84 145.02 272.37 145.36 275.71
  Q 145.60 278.01 145.65 280.25
  C 146.03 296.06 145.25 311.74 144.58 327.56
  Q 144.24 335.56 143.74 343.00
  Q 143.48 346.81 142.58 350.65
  Q 142.47 351.14 141.96 351.20
  Q 121.15 353.58 98.78 353.51
  Q 97.61 353.50 97.02 352.42
  Q 95.09 348.84 94.10 344.83
  Q 93.99 344.38 94.41 344.20
  Q 107.43 338.61 109.47 325.91
  Z
  M 94.83 282.82
  A 4.77 4.77 0.0 0 0 90.06 278.05
  A 4.77 4.77 0.0 0 0 85.29 282.82
  A 4.77 4.77 0.0 0 0 90.06 287.59
  A 4.77 4.77 0.0 0 0 94.83 282.82
  Z
  M 102.28 281.47
  A 2.37 2.37 0.0 0 0 99.91 279.10
  A 2.37 2.37 0.0 0 0 97.54 281.47
  A 2.37 2.37 0.0 0 0 99.91 283.84
  A 2.37 2.37 0.0 0 0 102.28 281.47
  Z
  M 114.67 297.74
  Q 111.36 294.89 107.44 296.80
  C 106.16 297.42 105.19 298.84 105.76 300.28
  Q 108.32 306.67 115.29 308.72
  Q 116.00 308.93 116.48 308.35
  Q 118.87 305.41 121.38 302.36
  C 125.59 297.25 119.30 292.83 115.56 297.65
  Q 115.16 298.17 114.67 297.74
  Z"
/>
<path fill="#f7dece" d="
  M 458.23 271.65
  C 463.04 272.32 468.24 273.77 471.55 277.03
  C 474.74 280.17 474.58 285.51 471.96 288.81
  C 466.74 295.37 454.87 297.60 447.10 297.16
  Q 431.00 296.23 418.39 299.28
  C 410.55 301.18 402.48 302.34 395.18 305.53
  Q 391.58 307.11 387.93 307.80
  Q 365.44 312.02 347.49 313.15
  Q 343.31 313.41 338.77 312.99
  A 3.21 3.17 26.7 0 0 336.39 313.76
  Q 322.56 325.80 307.53 334.61
  Q 301.60 338.09 294.81 340.62
  Q 284.92 344.30 272.85 341.01
  Q 264.88 338.84 258.95 332.02
  Q 257.84 330.75 257.61 328.84
  Q 278.75 336.18 299.18 329.78
  Q 311.65 325.88 320.48 317.91
  Q 326.59 312.38 332.85 306.75
  C 333.73 305.96 334.71 305.24 335.96 305.32
  Q 345.16 305.88 354.63 302.59
  C 369.68 297.35 385.30 295.02 401.30 293.94
  C 416.50 292.92 431.57 291.75 445.98 287.99
  Q 450.19 286.89 453.62 284.62
  Q 460.01 280.40 458.23 271.65
  Z"
/>
<circle fill="#4f2810" cx="90.06" cy="282.82" r="4.77"/>
<circle fill="#4f2810" cx="99.91" cy="281.47" r="2.37"/>
<path fill="#f3b75d" d="
  M 476.87 293.26
  Q 475.44 299.34 470.57 304.47
  L 464.64 301.53
  Q 463.71 301.08 464.70 300.77
  Q 471.02 298.81 476.87 293.26
  Z"
/>
<path fill="#ef6050" d="
  M 115.56 297.65
  C 119.30 292.83 125.59 297.25 121.38 302.36
  Q 118.87 305.41 116.48 308.35
  Q 116.00 308.93 115.29 308.72
  Q 108.32 306.67 105.76 300.28
  C 105.19 298.84 106.16 297.42 107.44 296.80
  Q 111.36 294.89 114.67 297.74
  Q 115.16 298.17 115.56 297.65
  Z"
/>
<path fill="#f7f1f0" d="
  M 83.32 315.37
  C 88.63 310.06 98.87 309.05 102.33 316.88
  C 105.04 323.00 102.70 330.49 97.86 334.72
  Q 92.98 339.00 85.86 339.66
  C 74.00 340.77 59.18 336.81 60.79 321.59
  Q 61.77 312.36 66.95 302.27
  Q 67.17 301.85 67.53 302.15
  L 76.28 309.38
  A 2.77 2.72 -75.4 0 1 77.24 311.05
  Q 77.45 312.30 77.64 313.56
  C 78.08 316.45 81.29 317.41 83.32 315.37
  Z"
/>
<path fill="#f7dece" d="
  M 249.80 307.36
  L 249.76 317.30
  Q 249.76 317.81 249.27 317.89
  Q 222.68 322.47 195.76 321.80
  Q 192.50 321.71 185.44 320.50
  Q 190.27 319.57 195.14 319.51
  Q 203.01 319.42 204.83 319.23
  Q 220.56 317.62 234.49 313.69
  Q 241.32 311.76 249.80 307.36
  Z"
/>
<path fill="#f39b39" d="
  M 374.66 323.80
  Q 372.58 323.31 370.48 322.83
  C 360.61 320.55 349.93 324.91 342.24 330.62
  C 326.02 342.64 310.05 354.90 289.52 358.27
  C 274.51 360.73 258.16 356.93 247.28 345.96
  C 246.01 344.68 245.06 343.11 243.77 341.88
  Q 243.35 341.48 242.77 341.42
  Q 206.87 337.86 169.50 334.02
  C 164.46 333.50 158.07 333.01 157.17 339.73
  Q 155.86 349.45 154.42 359.45
  Q 153.54 365.61 147.85 366.65
  Q 129.99 369.91 113.10 369.11
  Q 108.33 368.89 103.52 367.63
  Q 95.12 365.44 92.73 357.80
  Q 94.11 358.66 95.36 359.21
  Q 96.70 359.79 98.27 359.81
  Q 121.73 359.99 143.15 357.42
  Q 148.14 356.82 149.06 351.26
  C 150.58 342.12 150.81 332.66 151.15 323.61
  Q 151.17 322.92 151.86 322.89
  Q 165.13 322.34 176.78 325.18
  Q 194.39 329.46 215.93 328.02
  Q 233.46 326.85 248.30 324.50
  Q 248.82 324.42 249.05 324.90
  Q 249.26 325.34 249.24 325.86
  Q 249.21 326.41 249.37 326.93
  Q 252.42 336.82 260.84 342.32
  Q 274.82 351.46 292.58 347.86
  Q 298.67 346.62 306.92 342.15
  Q 323.59 333.11 339.06 319.77
  A 1.31 1.31 0.0 0 1 339.96 319.46
  Q 347.56 319.73 355.37 318.94
  Q 369.19 317.53 382.28 315.17
  Q 383.77 314.90 382.69 315.96
  L 374.66 323.80
  Z"
/>
<path fill="#f39b39" d="
  M 67.57 343.75
  Q 77.51 346.88 87.31 346.43
  Q 87.80 346.41 87.96 346.87
  L 90.13 352.97
  Q 76.03 353.82 67.57 343.75
  Z"
/>
</svg>
