<svg xmlns="http://www.w3.org/2000/svg" version="1.2" baseProfile="tiny" viewBox="0 0 498 403"><g stroke-width="2" fill="none"><path stroke="#9e8475" vector-effect="non-scaling-stroke" d="M358.5 403c.15-4.56-1.28-9.24-1.79-13.38q-.54-4.33-1.94-10.13-7.21-29.72-23.36-53.61-1.63-2.41-5.87-1.17"/><path stroke="#a39189" vector-effect="non-scaling-stroke" d="M325.54 324.71c-6.86 1.34-8.05-5.8-2.46-6.45"/><path stroke="#9e8475" vector-effect="non-scaling-stroke" d="M323.08 318.26c35.5-1.58 69.3-15.46 78.81-52.69q2.09-8.22 2.67-19.78 1.31-25.99-5.03-51.29"/><path stroke="#a16654" vector-effect="non-scaling-stroke" d="M399.53 194.5q.01-2.15-1.09-2.79"/><path stroke="#9e8475" vector-effect="non-scaling-stroke" d="m398.44 191.71-3.3-10.07"/><path stroke="#a39189" vector-effect="non-scaling-stroke" d="m395.14 181.64-.94-1.82q-.23-.46-.01-.92 1.89-3.81 3.01-7.91c5.05-18.57 6.14-37.03 5.13-56.17q-.21-4.15-1.3-7.89a3.54 3.53 84.2 0 0-3.1-2.54c-3.82-.31-7.78-.83-11.6-.46q-20.7 2-38.39 13.01-.42.26-.83-.03-32.55-23.04-72.38-27.52-.81-.09-2.97 1.36-7.16 4.78-14.92 5.83a1.32 1.32 0 0 0 0 2.62q2.36.32 4.2 1.98.36.33.22.8c-.58 1.92-2.2 1.79-3.79.97q-4.02-2.09-8.01.12a1.29 1.29 0 0 1-1.9-.98q-.35-3.14 3.47-3.35.36-.02.38-.29.05-.4-.35-.36-12.36 1.35-24.73.11a.53.52 3 0 0-.58.52v1.1q0 .49.45.68l4.21 1.83a1.57 1.56 59.9 0 1-.79 2.99q-2.75-.31-5.24-1.59-.48-.25-1.02-.25-1.71.02-3.02 1.1a1.94 1.94 0 0 1-3-.66c-1.23-2.63 2.43-3.17 3.97-3.48a1.57 1.57 0 0 0 .02-3.07q-6.26-1.38-12.81-4.59-.95-.47-2.01-.23-12.34 2.82-24.18 7.29"/><path stroke="#3d1d0d" vector-effect="non-scaling-stroke" d="M182.33 99.84q-.57-1.3-1.53-.97-14.22 4.81-25.75 14.39a.86.86 0 0 1-.88.13l-12.26-5.08q-.46-.19-.96-.13-3.19.39-5.5-1.54-.42-.34-.94-.44c-9.05-1.66-16.07-3.87-26.39-3.05-3.26.26-5.93 1.92-8.54 3.53a4.91 4.9-14.5 0 0-2.33 3.95c-.48 10.18-1.01 20.28.52 30.38 1.82 12.09 3.83 22.75 8.78 34.43a.98.97 72 0 0 1.11.57q.42-.1.96-.55"/><path stroke="#a39189" vector-effect="non-scaling-stroke" d="M108.62 175.46q2.85 2.99.81 8.22"/><path stroke="#3d1d0d" vector-effect="non-scaling-stroke" d="M109.43 183.68q-2.32-1.04-2.75 1.26c-1.11 5.91-2.34 11.03-2.4 17.37-.05 5.37-1.01 11.85-1.25 15.92q-.36 5.97-.36 11.96.01 3.65-1.71 11.05-1.51 6.56-1.69 18.44c-.18 12.05 4.61 20.46 9.23 30.46 1.75 3.78 4.75 6.51 7.28 9.83.62.8 1.76 1.14 2.55.58a.5.5 0 0 0 .05-.77q-.91-.89-.35-1.01"/><path stroke="#a39189" vector-effect="non-scaling-stroke" d="M118.03 298.77c19.38 17.18 46.39 20.11 71.21 19.16 2.66-.1 4.01 1.43 3.98 3.96q-.01.51-.38.87c-2.84 2.76-11.41 1.74-15.05 1.75a2.98 2.97 18.3 0 0-2.38 1.19c-16.28 21.75-23.37 50.57-25.43 77.3"/><path stroke="#a38a50" vector-effect="non-scaling-stroke" d="M223.91 19.77c-8.13 7.66-9.21 19.74-7.79 30.52.34 2.65 4.86 8.81.09 9.7a1.02 1.01 61.6 0 1-.9-.27q-2.65-2.55-3.11-6.25a.76.74 86 0 0-.74-.66l-2.2-.01"/><path stroke="#a16654" vector-effect="non-scaling-stroke" d="M209.26 52.8q-2.8-.27-5.24 1.21M204.02 54.01q-5.7.62-9.41 4.82"/><path stroke="#a38a50" vector-effect="non-scaling-stroke" d="M194.61 58.83q-2.89 3.07-2.04 7.48c1.89 9.92 10.53 18.25 19.12 22.59 13.69 6.94 32.86 6.42 47.55 2.57 16.94-4.43 20.78-22.32 17.25-37.44q-.57-2.46-.06-3.61 3.28-7.41 1.82-15.48-.09-.5-.5-.21l-2.51 1.69a.96.95-51 0 1-.91.1q-2.5-1.02-3.32-3.6a1.12 1.1-34.9 0 1 .19-1.01q2.51-3.19 5.9-.94a.39.39 0 0 0 .59-.42q-.48-1.8-1.96-2.99"/><path stroke="#a16654" vector-effect="non-scaling-stroke" d="M275.73 27.56C274.01 17.15 261.7 11.69 252 10.85q-14.87-1.29-25.94 6.17-1.26.85-2.15 2.75"/><path stroke="#fccb90" vector-effect="non-scaling-stroke" d="M275.73 27.56Q268.87 15.3 256 12.33c-3.73-.86-8.72-.69-12.93-.87q-.49-.02-.93.2-.76.38-2.38.58-7.94 1.02-15.85 7.53M194.61 58.83l9.41-4.82M204.02 54.01l5.24-1.21"/><path stroke="#a38a50" vector-effect="non-scaling-stroke" d="m282.4 63.05-.33 4.57a.41.41 0 0 0 .38.44l.1.01a2.57 2.54-85.8 0 0 2.73-2.38l.02-.26a2.57 2.54-85.8 0 0-2.35-2.75h-.11a.41.41 0 0 0-.44.37"/><path stroke="#988249" vector-effect="non-scaling-stroke" d="M251.58 34.83a3.2 3.2 0 0 0-3.2-3.2 3.2 3.2 0 0 0-3.2 3.2 3.2 3.2 0 0 0 3.2 3.2 3.2 3.2 0 0 0 3.2-3.2"/><path stroke="#a38a50" vector-effect="non-scaling-stroke" d="M267.35 35.18c-10.53-5.39-13.57 19.83 7.49 8.23q.46-.26.61-.75c.91-2.89-6.04-6.43-8.1-7.48"/><path stroke="#988249" vector-effect="non-scaling-stroke" d="M217.68 69.39q4.11-3.46 8.1-7.02c.93-.82 1.69-2.39.95-3.41a2.39 2.39 0 0 0-3.45-.47c-2.3 1.86-10.93 8.05-10.53 11.18q1.61 12.4 13.44 12.31c3.08-.02 5.81.09 6.87-2.78a1.18 1.17-52.3 0 0-.13-1.05c-2.92-4.27-12.21 3.89-15.49-8.01q-.12-.45.24-.75"/><path stroke="#a16654" vector-effect="non-scaling-stroke" d="M262.57 38.14q-2.36 3.12.65 5.41.34.26.77.18l8.19-1.52a.46.46 0 0 0 .21-.81q-3.38-2.77-7.62-3.99a2.05 2.05 0 0 0-2.2.73"/><path stroke="#f8f0eb" vector-effect="non-scaling-stroke" d="M395.14 181.64q.23 3.26-1.68 5.58-.33.4-.28.91c3.44 35.65-1.33 74.15-26.25 101.72-3.92 4.34-7.79 8.71-12.13 11.21-8.02 4.63-15.59 10.16-24.79 12.22q-1.77.4-2.68 1.15-.45.37-.43.95.08 1.95-3.82 2.88M325.54 324.71q-1.05 3.64 2.25 5.87.42.29.62.76 5.17 12.58 10.45 25.11c3.72 8.81 5.13 18.52 7.23 27.74 1.3 5.71 1.58 10.87 1.73 16.5q.03 1.04 1.22 1.43.29.1.1.34-.21.27-.2.54"/><path stroke="#978982" vector-effect="non-scaling-stroke" d="M118.03 298.77c-15.89-15.78-19.37-38.77-13.76-59.8 1.06-3.97 1.5-8.29 1.39-12.49-.4-15.89.9-28.79 3.77-42.8M108.62 175.46q-9.91-25.25-9.14-52.72"/><path stroke="#fbd2c9" vector-effect="non-scaling-stroke" d="m99.48 122.74.59-8.93"/><path stroke="#a39189" vector-effect="non-scaling-stroke" d="m100.07 113.81.66-4.59"/><path stroke="#978982" vector-effect="non-scaling-stroke" d="M100.73 109.22q.55-1.47 1.69-1.8"/><path stroke="#fbd2c9" vector-effect="non-scaling-stroke" d="m102.42 107.42 4.8-.6"/><path stroke="#978982" vector-effect="non-scaling-stroke" d="M107.22 106.82q.66-.49 2.25-.38"/><path stroke="#a39189" vector-effect="non-scaling-stroke" d="M109.47 106.44q2.04.33 3.61-.27"/><path stroke="#978982" vector-effect="non-scaling-stroke" d="M113.08 106.17q20.56.29 39.38 9.2a1.41 1.35-36.5 0 0 .87.11q1.17-.23 1.89-.74 12.78-8.94 27.11-14.9"/><path stroke="#fbd2c9" vector-effect="non-scaling-stroke" d="M355.63 122.33a1.41 1.4-69.6 0 0 .88 1.94l18.45 5.27a.82.82 0 0 1-.08 1.59q-4.95.91-10.09.56-3.8-.25-.57 1.77 8.02 5.02 17.39 6.98a.97.97 0 0 1-.01 1.9q-4.47.89-9.08.09a.81.81 0 0 0-.79 1.28q9.7 12.92 18.03 26.75a1.33 1.32-41.4 0 0 2.17.13q.73-.92.94-2.36c1.53-10.5 3.38-20.92 3.65-31.38.15-5.89 1.09-21.18-1.29-24.16q-.3-.38-.79-.42c-11.94-.98-26.17 3.15-37.03 7.93-1.01.45-1.33 1.18-1.78 2.13M120.32 139.49c2.25-1.9 5.55-2.13 7.69-3.19q5.64-2.79 11.05-6.19a.4.39-53.9 0 0-.11-.72c-2.81-.67-6.61.42-9.78.04a.65.65 0 0 1-.15-1.26c5.75-2.13 11.75-3.47 16.62-7.29a.38.38 0 0 0-.09-.65q-15.76-6.36-32.81-6.1-2.76.04-4.76.42a.77.77 0 0 0-.62.63c-2.85 17.11.65 37.58 5.24 54.05a.84.84 0 0 0 1.58.11q6.52-14.97 16.55-27.88 1.58-2.02-.95-1.62-4.63.74-9.25.31a.38.37 27.4 0 1-.21-.66"/><path stroke="#978982" vector-effect="non-scaling-stroke" d="M207.16 200.36a1.69 1.68-80.9 0 0-2.33 1.69c.33 3.99-3.47 6.38-6.41 8.35q-.63.43-.16 1.02l1.1 1.36a1.5 1.5 0 0 0 1.88.38c2.59-1.4 11.95-10.27 5.92-12.8M288.17 209.31a1.3 1.25 52.5 0 0-.66-.1q-7.44.83-9.46-6.17a1.54 1.54 0 0 0-2.46-.77q-1.75 1.45-.97 3.52c2.26 5.93 7.09 7.59 13.18 7.66 1.34.02 2.41-.72 2.47-2.07.06-1.39-1.05-1.62-2.1-2.07M203.56 231.8a13.29 13.29 0 0 0-13.29-13.29 13.29 13.29 0 0 0-13.29 13.29 13.29 13.29 0 0 0 13.29 13.29 13.29 13.29 0 0 0 13.29-13.29"/><path stroke="#a39189" vector-effect="non-scaling-stroke" d="M310.87 240.85q6.59-8.34.56-16.92"/><path stroke="#978982" vector-effect="non-scaling-stroke" d="M311.43 223.93c-4.83-5.51-12.36-6.58-18.08-2.07-13.58 10.68 2.64 31.91 17.52 18.99"/><path stroke="#3d1d0d" vector-effect="non-scaling-stroke" d="M311.43 223.93q-.62.56-1.19.58-.42.02-1.02-.57c-9.7-9.46-24.57 3.45-16.29 15.17 4.02 5.71 11.22 5.67 16.12.98q.36-.34.84-.25.98.17.98 1.01"/><path stroke="#f8f0eb" vector-effect="non-scaling-stroke" d="M343.812 247.716a13.04 11.03-4.9 0 0-13.934-9.876 13.04 11.03-4.9 0 0-12.05 12.104 13.04 11.03-4.9 0 0 13.934 9.876 13.04 11.03-4.9 0 0 12.05-12.104M172.515 248.483a12.79 11-1.6 0 0-13.092-10.639 12.79 11-1.6 0 0-12.478 11.353 12.79 11-1.6 0 0 13.092 10.639 12.79 11-1.6 0 0 12.478-11.353"/><path stroke="#a39189" vector-effect="non-scaling-stroke" d="m252.79 246.49-3.35-.72"/><path stroke="#978982" vector-effect="non-scaling-stroke" d="m249.44 245.77-6.7-4.61a2.49 2.48-52.4 0 0-3.3.43q-3.76 4.38-9.61 4.07-.65-.04-.91-.63l-1.02-2.34q-.25-.56.29-.87c2.47-1.46-.28-4.79-2.57-2.73-2.66 2.42-1.64 6.4.7 8.7 4.16 4.09 11.1 1.33 14.56-2.28a.6.58 42.1 0 1 .81-.03c5.53 4.73 13.03 8.19 18.62 1.14q2.94-3.71.72-7.6a1.43 1.41 85.3 0 0-.71-.61c-2.62-.99-4.15 1.54-2.25 3.53q.35.38.14.84-1.81 3.96-5.42 3.71"/><path stroke="#3d1d0d" vector-effect="non-scaling-stroke" d="M249.44 245.77q2.2 2.42 3.35.72"/><path stroke="#a39189" vector-effect="non-scaling-stroke" d="M178.44 388.56c14.82 13.51 36.02 5.33 33.71-16.13-1.06-9.81-3.94-19.04-6.62-28.46-1.59-5.57-7.21-2.02-6.06 2.03 3.15 11.03 13.36 37.28-1.69 42.17-1.81.59-3.39.18-5.27.22-7.41.18-14.77-8.67-17.46-14.79-1.81-4.13-7.54-2.32-5.85 2.07q2.67 6.91 9.24 12.89M291.28 380.15c.55 11.06 9.9 19.82 20.81 17.34 13.02-2.95 19.64-18.59 21.41-30.26.41-2.73-1.15-5.13-4.06-4.4q-.51.13-.8.56c-.57.88-1.13 1.6-1.36 2.66-1.89 8.66-5.63 21.52-15.32 24.65-7.9 2.55-14.33-3.81-14.52-11.45q-.35-14.41 2.88-28.44c.76-3.3.61-6.14-3.61-6.06a1.21 1.19 18.8 0 0-.91.44q-1.02 1.23-1.53 3.57-3.7 17.21-2.99 31.39"/><path stroke="#3d1d0d" vector-effect="non-scaling-stroke" d="M113.08 106.17q-2.01-.54-3.61.27"/><path stroke="#955e4d" vector-effect="non-scaling-stroke" d="M107.22 106.82q-3.27-.55-4.8.6"/><path stroke="#3d1d0d" vector-effect="non-scaling-stroke" d="M100.73 109.22q-1.45 2.22-1.13 5.06"/><path stroke="#955e4d" vector-effect="non-scaling-stroke" d="m99.6 114.28-.12 8.46"/><path stroke="#a16654" vector-effect="non-scaling-stroke" d="M100.07 113.81q-.23-.16-.47.47"/><path stroke="#f6c4b6" vector-effect="non-scaling-stroke" d="M398.44 191.71q.34 2.88 1.09 2.79"/><path stroke="#3d1d0d" vector-effect="non-scaling-stroke" d="M200.892 226.039a11.94 11.55-29.4 0 0-16.072-4.201 11.94 11.55-29.4 0 0-4.732 15.923 11.94 11.55-29.4 0 0 16.072 4.202 11.94 11.55-29.4 0 0 4.732-15.924"/></g><path fill="#482513" d="M365.7 403h-7.2c.15-4.56-1.28-9.24-1.79-13.38q-.54-4.33-1.94-10.13-7.21-29.72-23.36-53.61-1.63-2.41-5.87-1.17c-6.86 1.34-8.05-5.8-2.46-6.45 35.5-1.58 69.3-15.46 78.81-52.69q2.09-8.22 2.67-19.78 1.31-25.99-5.03-51.29.01-2.15-1.09-2.79l-3.3-10.07-.94-1.82q-.23-.46-.01-.92 1.89-3.81 3.01-7.91c5.05-18.57 6.14-37.03 5.13-56.17q-.21-4.15-1.3-7.89a3.54 3.53 84.2 0 0-3.1-2.54c-3.82-.31-7.78-.83-11.6-.46q-20.7 2-38.39 13.01-.42.26-.83-.03-32.55-23.04-72.38-27.52-.81-.09-2.97 1.36-7.16 4.78-14.92 5.83a1.32 1.32 0 0 0 0 2.62q2.36.32 4.2 1.98.36.33.22.8c-.58 1.92-2.2 1.79-3.79.97q-4.02-2.09-8.01.12a1.29 1.29 0 0 1-1.9-.98q-.35-3.14 3.47-3.35.36-.02.38-.29.05-.4-.35-.36-12.36 1.35-24.73.11a.53.52 3 0 0-.58.52v1.1q0 .49.45.68l4.21 1.83a1.57 1.56 59.9 0 1-.79 2.99q-2.75-.31-5.24-1.59-.48-.25-1.02-.25-1.71.02-3.02 1.1a1.94 1.94 0 0 1-3-.66c-1.23-2.63 2.43-3.17 3.97-3.48a1.57 1.57 0 0 0 .02-3.07q-6.26-1.38-12.81-4.59-.95-.47-2.01-.23-12.34 2.82-24.18 7.29-.57-1.3-1.53-.97-14.22 4.81-25.75 14.39a.86.86 0 0 1-.88.13l-12.26-5.08q-.46-.19-.96-.13-3.19.39-5.5-1.54-.42-.34-.94-.44c-9.05-1.66-16.07-3.87-26.39-3.05-3.26.26-5.93 1.92-8.54 3.53a4.91 4.9-14.5 0 0-2.33 3.95c-.48 10.18-1.01 20.28.52 30.38 1.82 12.09 3.83 22.75 8.78 34.43a.98.97 72 0 0 1.11.57q.42-.1.96-.55 2.85 2.99.81 8.22-2.32-1.04-2.75 1.26c-1.11 5.91-2.34 11.03-2.4 17.37-.05 5.37-1.01 11.85-1.25 15.92q-.36 5.97-.36 11.96.01 3.65-1.71 11.05-1.51 6.56-1.69 18.44c-.18 12.05 4.61 20.46 9.23 30.46 1.75 3.78 4.75 6.51 7.28 9.83.62.8 1.76 1.14 2.55.58a.5.5 0 0 0 .05-.77q-.91-.89-.35-1.01c19.38 17.18 46.39 20.11 71.21 19.16 2.66-.1 4.01 1.43 3.98 3.96q-.01.51-.38.87c-2.84 2.76-11.41 1.74-15.05 1.75a2.98 2.97 18.3 0 0-2.38 1.19c-16.28 21.75-23.37 50.57-25.43 77.3h-6.85c2.86-28.1 8.59-54.92 24.24-77.75a.76.76 0 0 0-.58-1.18q-16.16-1.16-31.58-6.54c-21.84-7.63-38.25-28.91-40.33-51.95-.7-7.75-.56-19.1 2.11-27.39.91-2.83 1.91-5.24 1.68-8.34q-.37-5.06-.3-8.03c.38-16.21.87-27.01 4.69-41.13a1.65 1.56-48.8 0 0-.04-.99c-1.82-4.85-3.99-9.79-5.28-14.47-2.8-10.23-12.08-60.81 1.86-64.35 17.14-4.34 35.85-.17 51.79 6.5a2.45 2.42 38.8 0 0 2.3-.24q20.44-13.92 44.45-19.95a.74.74 0 0 0 .3-1.28c-5.81-5-15-18.17-10.97-25.84 4.36-8.3 13.47-11.74 22.57-12.23a.75.74-88.6 0 0 .69-.66c.51-4.47 0-9.5.61-13.23 3.57-21.63 22.01-29.13 41.65-27.9 1.76.11 2.58 1.18 4.64.94q.55-.07.97.3 1.1.96 2.59.73.5-.08.98.1 15.08 5.57 19.77 20.43.39 1.24.68 1.89l.38.86v16.49q0 .45-.26.82-1.3 1.88-1.84 4.1a1.15 1.15 0 0 0 .28 1.05q2.91 3.1 7.51 7.31c5.15 4.73-.98 11.23-5.63 12.82a3.08 3.08 0 0 0-1.81 1.64l-2.75 6.02a.69.68-73.9 0 0 .53.97q30.84 4.19 57.99 19.13 5.32 2.92 9.18 6.65a1.96 1.96 0 0 0 2.27.32c15.91-8.39 35.11-14.54 52.78-10.46 6.41 1.48 7.41 10.25 8.12 16.63 2.32 20.81-.85 43.68-7.02 63.47a3.93 3.87-47.2 0 0 .08 2.52c8.55 22.35 11.22 46.54 9.24 70.29-2.58 31.06-18.28 54.41-47.92 66.19q-7.14 2.84-24.58 5.91-.67.12-.34.72c2.53 4.68 5.73 9.31 7.8 13.76 4.45 9.59 8.81 19.63 11.67 29.82.85 3.04 2.41 5.27 2.77 8.54q.31 2.92 1.71 5.55.23.44.22.93c-.01 1.75-.21 2.83.51 4.59q.81 1.99.42 4.22a1.59 1.59 0 0 0 .21 1.12q1.44 2.37.76 5.27-.1.44.19.79 1.63 1.94.61 4.52zM223.91 19.77c-8.13 7.66-9.21 19.74-7.79 30.52.34 2.65 4.86 8.81.09 9.7a1.02 1.01 61.6 0 1-.9-.27q-2.65-2.55-3.11-6.25a.76.74 86 0 0-.74-.66l-2.2-.01q-2.8-.27-5.24 1.21-5.7.62-9.41 4.82-2.89 3.07-2.04 7.48c1.89 9.92 10.53 18.25 19.12 22.59 13.69 6.94 32.86 6.42 47.55 2.57 16.94-4.43 20.78-22.32 17.25-37.44q-.57-2.46-.06-3.61 3.28-7.41 1.82-15.48-.09-.5-.5-.21l-2.51 1.69a.96.95-51 0 1-.91.1q-2.5-1.02-3.32-3.6a1.12 1.1-34.9 0 1 .19-1.01q2.51-3.19 5.9-.94a.39.39 0 0 0 .59-.42q-.48-1.8-1.96-2.99C274.01 17.15 261.7 11.69 252 10.85q-14.87-1.29-25.94 6.17-1.26.85-2.15 2.75zm58.49 43.28-.33 4.57a.41.41 0 0 0 .38.44l.1.01a2.57 2.54-85.8 0 0 2.73-2.38l.02-.26a2.57 2.54-85.8 0 0-2.35-2.75h-.11a.41.41 0 0 0-.44.37z"/><path fill="#f9a694" d="M275.73 27.56Q268.87 15.3 256 12.33c-3.73-.86-8.72-.69-12.93-.87q-.49-.02-.93.2-.76.38-2.38.58-7.94 1.02-15.85 7.53.89-1.9 2.15-2.75 11.07-7.46 25.94-6.17c9.7.84 22.01 6.3 23.73 16.71z"/><path fill="#feef8c" d="M275.73 27.56q1.48 1.19 1.96 2.99a.39.39 0 0 1-.59.42q-3.39-2.25-5.9.94a1.12 1.1-34.9 0 0-.19 1.01q.82 2.58 3.32 3.6a.96.95-51 0 0 .91-.1l2.51-1.69q.41-.29.5.21 1.46 8.07-1.82 15.48-.51 1.15.06 3.61c3.53 15.12-.31 33.01-17.25 37.44-14.69 3.85-33.86 4.37-47.55-2.57-8.59-4.34-17.23-12.67-19.12-22.59q-.85-4.41 2.04-7.48l9.41-4.82 5.24-1.21 2.2.01a.76.74 86 0 1 .74.66q.46 3.7 3.11 6.25a1.02 1.01 61.6 0 0 .9.27c4.77-.89.25-7.05-.09-9.7-1.42-10.78-.34-22.86 7.79-30.52q7.91-6.51 15.85-7.53 1.62-.2 2.38-.58.44-.22.93-.2c4.21.18 9.2.01 12.93.87q12.87 2.97 19.73 15.23zm-24.15 7.27a3.2 3.2 0 0 0-3.2-3.2 3.2 3.2 0 0 0-3.2 3.2 3.2 3.2 0 0 0 3.2 3.2 3.2 3.2 0 0 0 3.2-3.2zm15.77.35c-10.53-5.39-13.57 19.83 7.49 8.23q.46-.26.61-.75c.91-2.89-6.04-6.43-8.1-7.48zm-49.67 34.21q4.11-3.46 8.1-7.02c.93-.82 1.69-2.39.95-3.41a2.39 2.39 0 0 0-3.45-.47c-2.3 1.86-10.93 8.05-10.53 11.18q1.61 12.4 13.44 12.31c3.08-.02 5.81.09 6.87-2.78a1.18 1.17-52.3 0 0-.13-1.05c-2.92-4.27-12.21 3.89-15.49-8.01q-.12-.45.24-.75z"/><circle fill="#311506" cx="248.38" cy="34.83" r="3.2"/><path fill="#482513" d="M274.84 43.41c-21.06 11.6-18.02-13.62-7.49-8.23 2.06 1.05 9.01 4.59 8.1 7.48q-.15.49-.61.75zm-12.27-5.27q-2.36 3.12.65 5.41.34.26.77.18l8.19-1.52a.46.46 0 0 0 .21-.81q-3.38-2.77-7.62-3.99a2.05 2.05 0 0 0-2.2.73z"/><path fill="#f9a694" d="M262.57 38.14a2.05 2.05 0 0 1 2.2-.73q4.24 1.22 7.62 3.99a.46.46 0 0 1-.21.81l-8.19 1.52q-.43.08-.77-.18-3.01-2.29-.65-5.41zM209.26 52.8l-5.24 1.21q2.44-1.48 5.24-1.21zM204.02 54.01l-9.41 4.82q3.71-4.2 9.41-4.82z"/><path fill="#311506" d="M217.44 70.14c3.28 11.9 12.57 3.74 15.49 8.01a1.18 1.17-52.3 0 1 .13 1.05c-1.06 2.87-3.79 2.76-6.87 2.78q-11.83.09-13.44-12.31c-.4-3.13 8.23-9.32 10.53-11.18a2.39 2.39 0 0 1 3.45.47c.74 1.02-.02 2.59-.95 3.41q-3.99 3.56-8.1 7.02-.36.3-.24.75z"/><path fill="#feef8c" d="M282.4 63.05a.41.41 0 0 1 .44-.37h.11a2.57 2.54-85.8 0 1 2.35 2.75l-.02.26a2.57 2.54-85.8 0 1-2.73 2.38l-.1-.01a.41.41 0 0 1-.38-.44l.33-4.57z"/><path fill="#fdfdfe" d="M395.14 181.64q.23 3.26-1.68 5.58-.33.4-.28.91c3.44 35.65-1.33 74.15-26.25 101.72-3.92 4.34-7.79 8.71-12.13 11.21-8.02 4.63-15.59 10.16-24.79 12.22q-1.77.4-2.68 1.15-.45.37-.43.95.08 1.95-3.82 2.88c-5.59.65-4.4 7.79 2.46 6.45q-1.05 3.64 2.25 5.87.42.29.62.76 5.17 12.58 10.45 25.11c3.72 8.81 5.13 18.52 7.23 27.74 1.3 5.71 1.58 10.87 1.73 16.5q.03 1.04 1.22 1.43.29.1.1.34-.21.27-.2.54H149.98c2.06-26.73 9.15-55.55 25.43-77.3a2.98 2.97 18.3 0 1 2.38-1.19c3.64-.01 12.21 1.01 15.05-1.75q.37-.36.38-.87c.03-2.53-1.32-4.06-3.98-3.96-24.82.95-51.83-1.98-71.21-19.16-15.89-15.78-19.37-38.77-13.76-59.8 1.06-3.97 1.5-8.29 1.39-12.49-.4-15.89.9-28.79 3.77-42.8q2.04-5.23-.81-8.22-9.91-25.25-9.14-52.72l.59-8.93.66-4.59q.55-1.47 1.69-1.8l4.8-.6q.66-.49 2.25-.38 2.04.33 3.61-.27 20.56.29 39.38 9.2a1.41 1.35-36.5 0 0 .87.11q1.17-.23 1.89-.74 12.78-8.94 27.11-14.9 11.84-4.47 24.18-7.29 1.06-.24 2.01.23 6.55 3.21 12.81 4.59a1.57 1.57 0 0 1-.02 3.07c-1.54.31-5.2.85-3.97 3.48a1.94 1.94 0 0 0 3 .66q1.31-1.08 3.02-1.1.54 0 1.02.25 2.49 1.28 5.24 1.59a1.57 1.56 59.9 0 0 .79-2.99l-4.21-1.83q-.45-.19-.45-.68v-1.1a.53.52 3 0 1 .58-.52q12.37 1.24 24.73-.11.4-.04.35.36-.02.27-.38.29-3.82.21-3.47 3.35a1.29 1.29 0 0 0 1.9.98q3.99-2.21 8.01-.12c1.59.82 3.21.95 3.79-.97q.14-.47-.22-.8-1.84-1.66-4.2-1.98a1.32 1.32 0 0 1 0-2.62q7.76-1.05 14.92-5.83 2.16-1.45 2.97-1.36 39.83 4.48 72.38 27.52.41.29.83.03 17.69-11.01 38.39-13.01c3.82-.37 7.78.15 11.6.46a3.54 3.53 84.2 0 1 3.1 2.54q1.09 3.74 1.3 7.89c1.01 19.14-.08 37.6-5.13 56.17q-1.12 4.1-3.01 7.91-.22.46.01.92l.94 1.82zm-39.51-59.31a1.41 1.4-69.6 0 0 .88 1.94l18.45 5.27a.82.82 0 0 1-.08 1.59q-4.95.91-10.09.56-3.8-.25-.57 1.77 8.02 5.02 17.39 6.98a.97.97 0 0 1-.01 1.9q-4.47.89-9.08.09a.81.81 0 0 0-.79 1.28q9.7 12.92 18.03 26.75a1.33 1.32-41.4 0 0 2.17.13q.73-.92.94-2.36c1.53-10.5 3.38-20.92 3.65-31.38.15-5.89 1.09-21.18-1.29-24.16q-.3-.38-.79-.42c-11.94-.98-26.17 3.15-37.03 7.93-1.01.45-1.33 1.18-1.78 2.13zm-235.31 17.16c2.25-1.9 5.55-2.13 7.69-3.19q5.64-2.79 11.05-6.19a.4.39-53.9 0 0-.11-.72c-2.81-.67-6.61.42-9.78.04a.65.65 0 0 1-.15-1.26c5.75-2.13 11.75-3.47 16.62-7.29a.38.38 0 0 0-.09-.65q-15.76-6.36-32.81-6.1-2.76.04-4.76.42a.77.77 0 0 0-.62.63c-2.85 17.11.65 37.58 5.24 54.05a.84.84 0 0 0 1.58.11q6.52-14.97 16.55-27.88 1.58-2.02-.95-1.62-4.63.74-9.25.31a.38.37 27.4 0 1-.21-.66zm86.84 60.87a1.69 1.68-80.9 0 0-2.33 1.69c.33 3.99-3.47 6.38-6.41 8.35q-.63.43-.16 1.02l1.1 1.36a1.5 1.5 0 0 0 1.88.38c2.59-1.4 11.95-10.27 5.92-12.8zm81.01 8.95a1.3 1.25 52.5 0 0-.66-.1q-7.44.83-9.46-6.17a1.54 1.54 0 0 0-2.46-.77q-1.75 1.45-.97 3.52c2.26 5.93 7.09 7.59 13.18 7.66 1.34.02 2.41-.72 2.47-2.07.06-1.39-1.05-1.62-2.1-2.07zm-84.61 22.49a13.29 13.29 0 0 0-13.29-13.29 13.29 13.29 0 0 0-13.29 13.29 13.29 13.29 0 0 0 13.29 13.29 13.29 13.29 0 0 0 13.29-13.29zm107.31 9.05q6.59-8.34.56-16.92c-4.83-5.51-12.36-6.58-18.08-2.07-13.58 10.68 2.64 31.91 17.52 18.99zm32.942 6.866a13.04 11.03-4.9 0 0-13.934-9.876 13.04 11.03-4.9 0 0-12.05 12.104 13.04 11.03-4.9 0 0 13.934 9.876 13.04 11.03-4.9 0 0 12.05-12.104zm-171.297.767a12.79 11-1.6 0 0-13.092-10.639 12.79 11-1.6 0 0-12.478 11.353 12.79 11-1.6 0 0 13.092 10.639 12.79 11-1.6 0 0 12.478-11.353zm80.275-1.993-3.35-.72-6.7-4.61a2.49 2.48-52.4 0 0-3.3.43q-3.76 4.38-9.61 4.07-.65-.04-.91-.63l-1.02-2.34q-.25-.56.29-.87c2.47-1.46-.28-4.79-2.57-2.73-2.66 2.42-1.64 6.4.7 8.7 4.16 4.09 11.1 1.33 14.56-2.28a.6.58 42.1 0 1 .81-.03c5.53 4.73 13.03 8.19 18.62 1.14q2.94-3.71.72-7.6a1.43 1.41 85.3 0 0-.71-.61c-2.62-.99-4.15 1.54-2.25 3.53q.35.38.14.84-1.81 3.96-5.42 3.71zm-74.35 142.07c14.82 13.51 36.02 5.33 33.71-16.13-1.06-9.81-3.94-19.04-6.62-28.46-1.59-5.57-7.21-2.02-6.06 2.03 3.15 11.03 13.36 37.28-1.69 42.17-1.81.59-3.39.18-5.27.22-7.41.18-14.77-8.67-17.46-14.79-1.81-4.13-7.54-2.32-5.85 2.07q2.67 6.91 9.24 12.89zm112.84-8.41c.55 11.06 9.9 19.82 20.81 17.34 13.02-2.95 19.64-18.59 21.41-30.26.41-2.73-1.15-5.13-4.06-4.4q-.51.13-.8.56c-.57.88-1.13 1.6-1.36 2.66-1.89 8.66-5.63 21.52-15.32 24.65-7.9 2.55-14.33-3.81-14.52-11.45q-.35-14.41 2.88-28.44c.76-3.3.61-6.14-3.61-6.06a1.21 1.19 18.8 0 0-.91.44q-1.02 1.23-1.53 3.57-3.7 17.21-2.99 31.39z"/><path fill="#311506" d="M182.33 99.84q-14.33 5.96-27.11 14.9-.72.51-1.89.74a1.41 1.35-36.5 0 1-.87-.11q-18.82-8.91-39.38-9.2-2.01-.54-3.61.27-1.59-.11-2.25.38-3.27-.55-4.8.6-1.14.33-1.69 1.8-1.45 2.22-1.13 5.06l-.12 8.46q-.77 27.47 9.14 52.72-.54.45-.96.55a.98.97 72 0 1-1.11-.57c-4.95-11.68-6.96-22.34-8.78-34.43-1.53-10.1-1-20.2-.52-30.38a4.91 4.9-14.5 0 1 2.33-3.95c2.61-1.61 5.28-3.27 8.54-3.53 10.32-.82 17.34 1.39 26.39 3.05q.52.1.94.44 2.31 1.93 5.5 1.54.5-.06.96.13l12.26 5.08a.86.86 0 0 0 .88-.13q11.53-9.58 25.75-14.39.96-.33 1.53.97z"/><path fill="#482513" d="M113.08 106.17q-1.57.6-3.61.27 1.6-.81 3.61-.27z"/><path fill="#f9a694" d="m107.22 106.82-4.8.6q1.53-1.15 4.8-.6z"/><path fill="#482513" d="m100.73 109.22-.66 4.59q-.23-.16-.47.47-.32-2.84 1.13-5.06z"/><path fill="#f9a694" d="M355.63 122.33c.45-.95.77-1.68 1.78-2.13 10.86-4.78 25.09-8.91 37.03-7.93q.49.04.79.42c2.38 2.98 1.44 18.27 1.29 24.16-.27 10.46-2.12 20.88-3.65 31.38q-.21 1.44-.94 2.36a1.33 1.32-41.4 0 1-2.17-.13q-8.33-13.83-18.03-26.75a.81.81 0 0 1 .79-1.28q4.61.8 9.08-.09a.97.97 0 0 0 .01-1.9q-9.37-1.96-17.39-6.98-3.23-2.02.57-1.77 5.14.35 10.09-.56a.82.82 0 0 0 .08-1.59l-18.45-5.27a1.41 1.4-69.6 0 1-.88-1.94zM100.07 113.81l-.59 8.93.12-8.46q.24-.63.47-.47zM120.32 139.49a.38.37 27.4 0 0 .21.66q4.62.43 9.25-.31 2.53-.4.95 1.62-10.03 12.91-16.55 27.88a.84.84 0 0 1-1.58-.11c-4.59-16.47-8.09-36.94-5.24-54.05a.77.77 0 0 1 .62-.63q2-.38 4.76-.42 17.05-.26 32.81 6.1a.38.38 0 0 1 .09.65c-4.87 3.82-10.87 5.16-16.62 7.29a.65.65 0 0 0 .15 1.26c3.17.38 6.97-.71 9.78-.04a.4.39-53.9 0 1 .11.72q-5.41 3.4-11.05 6.19c-2.14 1.06-5.44 1.29-7.69 3.19z"/><path fill="#f3e2d7" d="m395.14 181.64 3.3 10.07q.34 2.88 1.09 2.79 6.34 25.3 5.03 51.29-.58 11.56-2.67 19.78c-9.51 37.23-43.31 51.11-78.81 52.69q3.9-.93 3.82-2.88-.02-.58.43-.95.91-.75 2.68-1.15c9.2-2.06 16.77-7.59 24.79-12.22 4.34-2.5 8.21-6.87 12.13-11.21 24.92-27.57 29.69-66.07 26.25-101.72q-.05-.51.28-.91 1.91-2.32 1.68-5.58z"/><path fill="#311506" d="M109.43 183.68c-2.87 14.01-4.17 26.91-3.77 42.8.11 4.2-.33 8.52-1.39 12.49-5.61 21.03-2.13 44.02 13.76 59.8q-.56.12.35 1.01a.5.5 0 0 1-.05.77c-.79.56-1.93.22-2.55-.58-2.53-3.32-5.53-6.05-7.28-9.83-4.62-10-9.41-18.41-9.23-30.46q.18-11.88 1.69-18.44 1.72-7.4 1.71-11.05 0-5.99.36-11.96c.24-4.07 1.2-10.55 1.25-15.92.06-6.34 1.29-11.46 2.4-17.37q.43-2.3 2.75-1.26z"/><path fill="#f9a694" d="M398.44 191.71q1.1.64 1.09 2.79-.75.09-1.09-2.79z"/><path fill="#311506" d="M207.16 200.36c6.03 2.53-3.33 11.4-5.92 12.8a1.5 1.5 0 0 1-1.88-.38l-1.1-1.36q-.47-.59.16-1.02c2.94-1.97 6.74-4.36 6.41-8.35a1.69 1.68-80.9 0 1 2.33-1.69zM288.17 209.31c1.05.45 2.16.68 2.1 2.07-.06 1.35-1.13 2.09-2.47 2.07-6.09-.07-10.92-1.73-13.18-7.66q-.78-2.07.97-3.52a1.54 1.54 0 0 1 2.46.77q2.02 7 9.46 6.17a1.3 1.25 52.5 0 1 .66.1zM203.56 231.8a13.29 13.29 0 0 1-13.29 13.29 13.29 13.29 0 0 1-13.29-13.29 13.29 13.29 0 0 1 13.29-13.29 13.29 13.29 0 0 1 13.29 13.29zm-2.668-5.761a11.94 11.55-29.4 0 0-16.072-4.201 11.94 11.55-29.4 0 0-4.732 15.923 11.94 11.55-29.4 0 0 16.072 4.202 11.94 11.55-29.4 0 0 4.732-15.924zM311.43 223.93q-.62.56-1.19.58-.42.02-1.02-.57c-9.7-9.46-24.57 3.45-16.29 15.17 4.02 5.71 11.22 5.67 16.12.98q.36-.34.84-.25.98.17.98 1.01c-14.88 12.92-31.1-8.31-17.52-18.99 5.72-4.51 13.25-3.44 18.08 2.07z"/><ellipse fill="#482513" transform="rotate(-29.4 537.22 -247.102)" rx="11.94" ry="11.55"/><path fill="#482513" d="M311.43 223.93q6.03 8.58-.56 16.92 0-.84-.98-1.01-.48-.09-.84.25c-4.9 4.69-12.1 4.73-16.12-.98-8.28-11.72 6.59-24.63 16.29-15.17q.6.59 1.02.57.57-.02 1.19-.58z"/><ellipse fill="#f3e2d7" transform="rotate(-4.9 3073.21 -3741.51)" rx="13.04" ry="11.03"/><ellipse fill="#f3e2d7" transform="rotate(-1.6 8990.212 -5595.118)" rx="12.79" ry="11"/><path fill="#311506" d="M249.44 245.77q2.2 2.42 3.35.72 3.61.25 5.42-3.71.21-.46-.14-.84c-1.9-1.99-.37-4.52 2.25-3.53a1.43 1.41 85.3 0 1 .71.61q2.22 3.89-.72 7.6c-5.59 7.05-13.09 3.59-18.62-1.14a.6.58 42.1 0 0-.81.03c-3.46 3.61-10.4 6.37-14.56 2.28-2.34-2.3-3.36-6.28-.7-8.7 2.29-2.06 5.04 1.27 2.57 2.73q-.54.31-.29.87l1.02 2.34q.26.59.91.63 5.85.31 9.61-4.07a2.49 2.48-52.4 0 1 3.3-.43l6.7 4.61z"/><path fill="#482513" d="m249.44 245.77 3.35.72q-1.15 1.7-3.35-.72z"/><path fill="#f3e2d7" d="M358.5 403h-9.56q-.01-.27.2-.54.19-.24-.1-.34-1.19-.39-1.22-1.43c-.15-5.63-.43-10.79-1.73-16.5-2.1-9.22-3.51-18.93-7.23-27.74q-5.28-12.53-10.45-25.11-.2-.47-.62-.76-3.3-2.23-2.25-5.87 4.24-1.24 5.87 1.17 16.15 23.89 23.36 53.61 1.4 5.8 1.94 10.13c.51 4.14 1.94 8.82 1.79 13.38z"/><path fill="#482513" d="M178.44 388.56q-6.57-5.98-9.24-12.89c-1.69-4.39 4.04-6.2 5.85-2.07 2.69 6.12 10.05 14.97 17.46 14.79 1.88-.04 3.46.37 5.27-.22 15.05-4.89 4.84-31.14 1.69-42.17-1.15-4.05 4.47-7.6 6.06-2.03 2.68 9.42 5.56 18.65 6.62 28.46 2.31 21.46-18.89 29.64-33.71 16.13zM312.09 397.49c-10.91 2.48-20.26-6.28-20.81-17.34q-.71-14.18 2.99-31.39.51-2.34 1.53-3.57a1.21 1.19 18.8 0 1 .91-.44c4.22-.08 4.37 2.76 3.61 6.06q-3.23 14.03-2.88 28.44c.19 7.64 6.62 14 14.52 11.45 9.69-3.13 13.43-15.99 15.32-24.65.23-1.06.79-1.78 1.36-2.66q.29-.43.8-.56c2.91-.73 4.47 1.67 4.06 4.4-1.77 11.67-8.39 27.31-21.41 30.26z"/></svg>