<svg xmlns="http://www.w3.org/2000/svg" version="1.2" baseProfile="tiny" viewBox="0 0 512 512"><g stroke-width="2" fill="none"><path stroke="#9e8362" vector-effect="non-scaling-stroke" d="M471.75 391.89q-16.24-.82-32.17-.06"/><path stroke="#7e6a56" vector-effect="non-scaling-stroke" d="M439.58 391.83q-7.26 0-14.42.12c-5.34.09-15.68-2.05-20.74 1.6-4.19 3.03-8.42 6.34-12.91 7.98-10.52 3.83-20.09.69-28.4-6.25-4.85-4.06-9.39-3.66-15.36-3.67q-83.49-.12-166.98-.1c-3.14 0-7.17.12-10.13 1.11-16.52 5.52-33.6 7.23-50.71 9.83-10.53 1.61-18.02 1.65-27.93.33q-2.34-.31-5.2 1.05"/><path stroke="#9e8362" vector-effect="non-scaling-stroke" d="M86.8 403.83c-6.66-1.35-8.11-4.72-10.57-10.48a1.64 1.57-87.5 0 0-.65-.74q-2.21-1.32-4.9-1.29-13.51.14-27.03.48-.36 0-.41.36-.02.17-.02.35"/><path stroke="#d8b27b" vector-effect="non-scaling-stroke" d="M86.8 403.83q20.89 9.76 42.54 3.12c9.69-2.97 19.82-3.75 29.91-4.21 40.33-1.85 81.53-1.16 122.31-1.97q30.75-.61 61.5-.06 11.16.2 20.19 2.53c13.74 3.53 24.51 7.44 36.8.36 4.1-2.36 5.92-6.97 11.1-7.52 6.53-.71 12.82-2.48 19.17-3.11q4.61-.46 9.26-1.14"/><path stroke="#a19c9d" vector-effect="non-scaling-stroke" d="M251.21 102.39q-10.95 1.63-21.77 4.33c-4.93 1.23-10.71.21-16.37-1.58-13.93-4.4-42.58-8.43-51.25 7.93-8.39 15.83-10.43 38.28-9.79 55.92q.15 4.13-.79 6.25-10.94 24.69-16.7 55.27-7.68 40.77 14.65 71.98c15.04 21.02 35.12 30.71 60.05 35.74 4.39.89 3.49 7.5-2.46 6.89q-7.56-.76-14.71-3.19c-4.81-1.63-8.68-1.67-12.99.18q-25.28 10.87-51.1 26.65c-13.99 8.56-26.72-.64-27 23.38-.05 4.31 5.19 3.05 6.26.07 1.19-3.32 2.12-4.87 5.5-6.31 3.59-1.52 13-4.33 14.05 1.88a1.34 1.33-34 0 1-.19.95c-2.4 3.81-6.99 2.67-8.31 7.77q-.2.74.49.4c10.67-5.36 20.91-4.21 32.41-7.47q19.1-5.41 38.56-5.42 80.74-.02 161.49-.01c2.61 0 4.74-.6 4.02-3.76q-2.29-10.04-.31-19.55.33-1.62-.16-4.03-.1-.51-.6-.66c-1.4-.43-2.9-.13-4.05-.63-3.36-1.45-2.9-7.28 1.63-6.85q4.66.43 6.12-4.1c2.9-8.97 5.99-17.69 12.13-24.93 9.22-10.89 21.57-15.71 35.39-10.93q5.77 1.99 8.38 8.44"/><path stroke="#877f80" vector-effect="non-scaling-stroke" d="M413.79 317q.2 7.49-3.1 14.93a.38.38 0 0 0 .51.5c18.15-8.15 29.35-27.6 30.51-46.58.48-7.82-2.39-17.9-2-25.1.78-14.38.51-31.91-3.42-45.85"/><path stroke="#a19c9d" vector-effect="non-scaling-stroke" d="M436.29 214.9c-1.51-12.34-5.21-23.31-2.74-35.61 2.49-12.49 1.9-25.32.01-37.85-2.91-19.23-24.68-21.72-40.55-20.24q-14.22 1.33-29.95-2.78c-5.92-1.55-11.7-4.53-17.61-7.2"/><path stroke="#877f80" vector-effect="non-scaling-stroke" d="M345.45 111.22q-4.2-1.41-9.76-3.41-4.46-1.6-11.44-1.98"/><path stroke="#a19c9d" vector-effect="non-scaling-stroke" d="M324.25 105.83q-2.87-1.91-7.21-2.34"/><path stroke="#877f80" vector-effect="non-scaling-stroke" d="M317.04 103.49q-13.7-2.76-27.05-3.28"/><path stroke="#a19c9d" vector-effect="non-scaling-stroke" d="m289.99 100.21-12.16-.3"/><path stroke="#877f80" vector-effect="non-scaling-stroke" d="M277.83 99.91q-13.5-.52-26.62 2.48"/><path stroke="#e4e0e1" vector-effect="non-scaling-stroke" d="M277.83 99.91q-.54 12.94-3.86 25.08c-1.25 4.61-3.41 9.06-8.96 9.05-14.05 0-10.79-17.88-9.55-26.12.51-3.39-.7-5.48-4.25-5.53M289.99 100.21q.21 8.43-1.25 20.79c-.9 7.61.12 19.11 10.76 18.93 10.39-.18 12.63-22.58 13.06-29.67q.24-3.96 4.48-6.77M324.25 105.83q-2.11 10.69-1.21 21.15c.6 6.86 1.24 11.83 8.72 12.88 8.61 1.21 10.67-6.94 11.17-13.51q.59-7.76 2.52-15.13M436.29 214.9q-.25 7.79-.34 28.28c-.03 8.48-2.98 17.35-3.63 24.67-.6 6.88.36 14.74-.61 20.5-1.98 11.8-9.31 20.96-17.92 28.65"/><path stroke="#a19c9d" vector-effect="non-scaling-stroke" d="M369.69 391.56c11.01 8.1 26 3.26 32.49-7.89 5.8-9.97 4.75-20.94.44-30.92a.28.28 0 0 0-.54.1q-.13 4.05-.77 6.85c-.65 2.84-3.92 2.89-5.58 1.33q-.92-.87-1.21-2.87c-1.12-7.76-.09-16.57 5.08-22.77 4.09-4.92 12.23-18.48.39-20.64-11.1-2.03-17.59 1.28-24.39 10.32q-18.17 24.13-12.6 55.51 1.24 6.97 6.69 10.98"/><path stroke="#877f80" vector-effect="non-scaling-stroke" d="m92.15 391.55 1.55.05a.15.15 0 0 0 .16-.14l.03-.92a5.25.83-88.1 0 0-.66-5.27l-.2-.01a5.25.83-88.1 0 0-1 5.22l-.03.92a.15.15 0 0 0 .15.15M83.8 385.77q-1.27 4.94 1.24 9.42.6 1.07.45-.15l-1.13-9.23a.29.29 0 0 0-.56-.04"/><path stroke="#e4e0e1" vector-effect="non-scaling-stroke" d="M203.25 117.77c-7.76-2.42-16.01-1.72-23.93-1.22a1.54 1.48 21.3 0 0-.87.36c-5.14 4.37-7.8 21.88-8.38 28.48a.38.38 0 0 0 .65.29q14.67-15.5 32.65-27.04a.48.48 0 0 0-.12-.87M419.44 166.14q.83-11.39-.14-22.56c-.54-6.28-2.59-9.46-9.09-9.72q-8.69-.36-15.61.88a.7.68 87 0 0-.57.65q-.09 1.77 1.15 2.94 12.33 11.66 21.02 25.08c.68 1.04 1.89 1.95 2.71 2.9q.48.56.53-.17"/><path stroke="#a19c9d" vector-effect="non-scaling-stroke" d="M250.78 192.2a2.24 2.24 0 0 0-3.22 1.23c-2 5.9-7.59 6.2-13 6.06a1.06 1.05 22.7 0 0-.78.32q-1.94 1.92-.55 4.41a.98.98 0 0 0 .64.49q12.24 2.92 18.22-7.09c1.35-2.27.99-4.13-1.31-5.42M325.93 200.92c-2.21 1.46-1.45 4.84-.29 6.65q5.06 7.96 14.77 7.74c2.37-.06 5.16-1.71 3.94-4.47-1.34-3.02-7.02-1.45-9.59-2.98q-3.18-1.89-4.46-5.54a1.82 1.75 11.4 0 0-.54-.78q-2.1-1.77-3.83-.62M243.95 229.99a14 14 0 0 0-14-14 14 14 0 0 0-14 14 14 14 0 0 0 14 14 14 14 0 0 0 14-14M357.09 240.37a14 14 0 0 0-14-14 14 14 0 0 0-14 14 14 14 0 0 0 14 14 14 14 0 0 0 14-14"/><path stroke="#feebe9" vector-effect="non-scaling-stroke" d="M203.84 260.61a25.18 25.18 0 0 0-25.18-25.18 25.18 25.18 0 0 0-25.18 25.18 25.18 25.18 0 0 0 25.18 25.18 25.18 25.18 0 0 0 25.18-25.18"/><path stroke="#a19c9d" vector-effect="non-scaling-stroke" d="M269.3 247.12c-7.77 4.8-3.96 13.6 3.94 14.83 6.85 1.07 9.2-5.95 16.85.2 4.21 3.4 9.75.44 12.21-3.22 2.01-2.97 1.31-6.5-.22-9.49-1.31-2.57-5.3-1.54-4.55 1.58 2.61 10.91-8.72 7.18-9.6-.04-.32-2.63-1.4-4.68-4.35-3.25a1.47 1.43-.4 0 0-.68.67c-1.81 3.83-2.37 7.29-7.39 7.82q-3.08.32-4.59-1.7a.96.95-51.9 0 1-.11-.95l1.6-3.64a.65.65 0 0 0-.15-.73l-2.13-2a.69.68-39.1 0 0-.83-.08M368.35 293.6l-10.45 10.84a2.1 2.09 56.6 0 0-.45 2.21q1.02 2.68 3.83 2.83a1.43 1.42-68.6 0 0 1.18-.52c9.57-11.64 24-21.7 39.32-24.07 3.99-.62 8.69-.38 13.04-.39q.56-.01.84-.5.92-1.6.54-3.5-.11-.56-.66-.73l-5.32-1.56"/><path stroke="#feebe9" vector-effect="non-scaling-stroke" d="M410.22 278.21q2.01-12.75-6.41-21.38c-8.99-9.21-20.54-11.19-31.63-4.12-7.84 5-12.2 13.23-12.02 22.58.15 7.77 4.73 12.53 8.19 18.31"/><path stroke="#a18a88" vector-effect="non-scaling-stroke" d="M410.22 278.21c-16.57-.13-28.96 7.34-41.87 15.39"/></g><path fill="#443b3c" d="M471.75 391.89q-16.24-.82-32.17-.06-7.26 0-14.42.12c-5.34.09-15.68-2.05-20.74 1.6-4.19 3.03-8.42 6.34-12.91 7.98-10.52 3.83-20.09.69-28.4-6.25-4.85-4.06-9.39-3.66-15.36-3.67q-83.49-.12-166.98-.1c-3.14 0-7.17.12-10.13 1.11-16.52 5.52-33.6 7.23-50.71 9.83-10.53 1.61-18.02 1.65-27.93.33q-2.34-.31-5.2 1.05c-6.66-1.35-8.11-4.72-10.57-10.48a1.64 1.57-87.5 0 0-.65-.74q-2.21-1.32-4.9-1.29-13.51.14-27.03.48-.36 0-.41.36-.02.17-.02.35-.17-.45-.44-.72-.22-.23-.75-.33c-4.67-.86-4.54-7.41 1.2-7.43q14.6-.06 29.21-.03c1.02 0 3.23.68 4.24-.32 2.08-2.05 4.05-4.28 6.45-5.84 9.74-6.34 20.35-8.94 31.48-11.7 3.7-.93 7.42-2.45 10.62-4.4q24.03-14.72 49.76-25.75a.46.46 0 0 0 .09-.8c-7.47-5.35-15.79-11.02-21.95-16.86-22.01-20.87-30.85-51.92-27.34-81.58 2.41-20.28 9.21-39.2 15.54-58.48 3.1-9.44 3.07-20.59 3.78-30.51q1.37-19.14 8.33-35.08 6.97-15.99 23.8-18.14c14.58-1.86 31.09 1.66 45.76 5.24 2.83.69 6.88-.06 10.21-1.07q7.17-2.18 16.04-3.7c40.26-6.92 80.93-.1 117.78 17.03 4.32 2 10.17 2.12 15.62 1.4 13.84-1.82 28.36-1.31 41.26 4.41 18.45 8.2 18.21 26.35 18.3 44.91q.05 11.79-2.99 28.48-.18.96.76 4.19 5.21 17.9 6.64 36.51c.88 11.53.96 23.89 1.71 34.56.52 7.28 1.47 15.3.87 22.03q-2.32 26.37-23.49 43.16-5.52 4.38-11.32 8.43c-8.49 5.93-2.59 13.57-.98 20.95q2.53 11.61-3 22.37-.28.54.32.54 30.56.06 60.97.01c5.42-.01 5.96 6.77 1.55 7.38q-.98.13-1.5.52zm-220.54-289.5q-10.95 1.63-21.77 4.33c-4.93 1.23-10.71.21-16.37-1.58-13.93-4.4-42.58-8.43-51.25 7.93-8.39 15.83-10.43 38.28-9.79 55.92q.15 4.13-.79 6.25-10.94 24.69-16.7 55.27-7.68 40.77 14.65 71.98c15.04 21.02 35.12 30.71 60.05 35.74 4.39.89 3.49 7.5-2.46 6.89q-7.56-.76-14.71-3.19c-4.81-1.63-8.68-1.67-12.99.18q-25.28 10.87-51.1 26.65c-13.99 8.56-26.72-.64-27 23.38-.05 4.31 5.19 3.05 6.26.07 1.19-3.32 2.12-4.87 5.5-6.31 3.59-1.52 13-4.33 14.05 1.88a1.34 1.33-34 0 1-.19.95c-2.4 3.81-6.99 2.67-8.31 7.77q-.2.74.49.4c10.67-5.36 20.91-4.21 32.41-7.47q19.1-5.41 38.56-5.42 80.74-.02 161.49-.01c2.61 0 4.74-.6 4.02-3.76q-2.29-10.04-.31-19.55.33-1.62-.16-4.03-.1-.51-.6-.66c-1.4-.43-2.9-.13-4.05-.63-3.36-1.45-2.9-7.28 1.63-6.85q4.66.43 6.12-4.1c2.9-8.97 5.99-17.69 12.13-24.93 9.22-10.89 21.57-15.71 35.39-10.93q5.77 1.99 8.38 8.44.2 7.49-3.1 14.93a.38.38 0 0 0 .51.5c18.15-8.15 29.35-27.6 30.51-46.58.48-7.82-2.39-17.9-2-25.1.78-14.38.51-31.91-3.42-45.85-1.51-12.34-5.21-23.31-2.74-35.61 2.49-12.49 1.9-25.32.01-37.85-2.91-19.23-24.68-21.72-40.55-20.24q-14.22 1.33-29.95-2.78c-5.92-1.55-11.7-4.53-17.61-7.2q-4.2-1.41-9.76-3.41-4.46-1.6-11.44-1.98-2.87-1.91-7.21-2.34-13.7-2.76-27.05-3.28l-12.16-.3q-13.5-.52-26.62 2.48zm118.48 289.17c11.01 8.1 26 3.26 32.49-7.89 5.8-9.97 4.75-20.94.44-30.92a.28.28 0 0 0-.54.1q-.13 4.05-.77 6.85c-.65 2.84-3.92 2.89-5.58 1.33q-.92-.87-1.21-2.87c-1.12-7.76-.09-16.57 5.08-22.77 4.09-4.92 12.23-18.48.39-20.64-11.1-2.03-17.59 1.28-24.39 10.32q-18.17 24.13-12.6 55.51 1.24 6.97 6.69 10.98zm-277.54-.01 1.55.05a.15.15 0 0 0 .16-.14l.03-.92a5.25.83-88.1 0 0-.66-5.27l-.2-.01a5.25.83-88.1 0 0-1 5.22l-.03.92a.15.15 0 0 0 .15.15zm-8.35-5.78q-1.27 4.94 1.24 9.42.6 1.07.45-.15l-1.13-9.23a.29.29 0 0 0-.56-.04z"/><path fill="#cac3c3" d="M277.83 99.91q-.54 12.94-3.86 25.08c-1.25 4.61-3.41 9.06-8.96 9.05-14.05 0-10.79-17.88-9.55-26.12.51-3.39-.7-5.48-4.25-5.53q13.12-3 26.62-2.48z"/><path fill="#fefcfe" d="m277.83 99.91 12.16.3q.21 8.43-1.25 20.79c-.9 7.61.12 19.11 10.76 18.93 10.39-.18 12.63-22.58 13.06-29.67q.24-3.96 4.48-6.77 4.34.43 7.21 2.34-2.11 10.69-1.21 21.15c.6 6.86 1.24 11.83 8.72 12.88 8.61 1.21 10.67-6.94 11.17-13.51q.59-7.76 2.52-15.13c5.91 2.67 11.69 5.65 17.61 7.2q15.73 4.11 29.95 2.78c15.87-1.48 37.64 1.01 40.55 20.24 1.89 12.53 2.48 25.36-.01 37.85-2.47 12.3 1.23 23.27 2.74 35.61q-.25 7.79-.34 28.28c-.03 8.48-2.98 17.35-3.63 24.67-.6 6.88.36 14.74-.61 20.5-1.98 11.8-9.31 20.96-17.92 28.65q-2.61-6.45-8.38-8.44c-13.82-4.78-26.17.04-35.39 10.93-6.14 7.24-9.23 15.96-12.13 24.93q-1.46 4.53-6.12 4.1c-4.53-.43-4.99 5.4-1.63 6.85 1.15.5 2.65.2 4.05.63q.5.15.6.66.49 2.41.16 4.03-1.98 9.51.31 19.55c.72 3.16-1.41 3.76-4.02 3.76q-80.75-.01-161.49.01-19.46.01-38.56 5.42c-11.5 3.26-21.74 2.11-32.41 7.47q-.69.34-.49-.4c1.32-5.1 5.91-3.96 8.31-7.77a1.34 1.33-34 0 0 .19-.95c-1.05-6.21-10.46-3.4-14.05-1.88-3.38 1.44-4.31 2.99-5.5 6.31-1.07 2.98-6.31 4.24-6.26-.07.28-24.02 13.01-14.82 27-23.38q25.82-15.78 51.1-26.65c4.31-1.85 8.18-1.81 12.99-.18q7.15 2.43 14.71 3.19c5.95.61 6.85-6 2.46-6.89-24.93-5.03-45.01-14.72-60.05-35.74q-22.33-31.21-14.65-71.98 5.76-30.58 16.7-55.27.94-2.12.79-6.25c-.64-17.64 1.4-40.09 9.79-55.92 8.67-16.36 37.32-12.33 51.25-7.93 5.66 1.79 11.44 2.81 16.37 1.58q10.82-2.7 21.77-4.33c3.55.05 4.76 2.14 4.25 5.53-1.24 8.24-4.5 26.12 9.55 26.12 5.55.01 7.71-4.44 8.96-9.05q3.32-12.14 3.86-25.08zm-74.58 17.86c-7.76-2.42-16.01-1.72-23.93-1.22a1.54 1.48 21.3 0 0-.87.36c-5.14 4.37-7.8 21.88-8.38 28.48a.38.38 0 0 0 .65.29q14.67-15.5 32.65-27.04a.48.48 0 0 0-.12-.87zm216.19 48.37q.83-11.39-.14-22.56c-.54-6.28-2.59-9.46-9.09-9.72q-8.69-.36-15.61.88a.7.68 87 0 0-.57.65q-.09 1.77 1.15 2.94 12.33 11.66 21.02 25.08c.68 1.04 1.89 1.95 2.71 2.9q.48.56.53-.17zM250.78 192.2a2.24 2.24 0 0 0-3.22 1.23c-2 5.9-7.59 6.2-13 6.06a1.06 1.05 22.7 0 0-.78.32q-1.94 1.92-.55 4.41a.98.98 0 0 0 .64.49q12.24 2.92 18.22-7.09c1.35-2.27.99-4.13-1.31-5.42zm75.15 8.72c-2.21 1.46-1.45 4.84-.29 6.65q5.06 7.96 14.77 7.74c2.37-.06 5.16-1.71 3.94-4.47-1.34-3.02-7.02-1.45-9.59-2.98q-3.18-1.89-4.46-5.54a1.82 1.75 11.4 0 0-.54-.78q-2.1-1.77-3.83-.62zm-81.98 29.07a14 14 0 0 0-14-14 14 14 0 0 0-14 14 14 14 0 0 0 14 14 14 14 0 0 0 14-14zm113.14 10.38a14 14 0 0 0-14-14 14 14 0 0 0-14 14 14 14 0 0 0 14 14 14 14 0 0 0 14-14zm-153.25 20.24a25.18 25.18 0 0 0-25.18-25.18 25.18 25.18 0 0 0-25.18 25.18 25.18 25.18 0 0 0 25.18 25.18 25.18 25.18 0 0 0 25.18-25.18zm65.46-13.49c-7.77 4.8-3.96 13.6 3.94 14.83 6.85 1.07 9.2-5.95 16.85.2 4.21 3.4 9.75.44 12.21-3.22 2.01-2.97 1.31-6.5-.22-9.49-1.31-2.57-5.3-1.54-4.55 1.58 2.61 10.91-8.72 7.18-9.6-.04-.32-2.63-1.4-4.68-4.35-3.25a1.47 1.43-.4 0 0-.68.67c-1.81 3.83-2.37 7.29-7.39 7.82q-3.08.32-4.59-1.7a.96.95-51.9 0 1-.11-.95l1.6-3.64a.65.65 0 0 0-.15-.73l-2.13-2a.69.68-39.1 0 0-.83-.08zm99.05 46.48-10.45 10.84a2.1 2.09 56.6 0 0-.45 2.21q1.02 2.68 3.83 2.83a1.43 1.42-68.6 0 0 1.18-.52c9.57-11.64 24-21.7 39.32-24.07 3.99-.62 8.69-.38 13.04-.39q.56-.01.84-.5.92-1.6.54-3.5-.11-.56-.66-.73l-5.32-1.56q2.01-12.75-6.41-21.38c-8.99-9.21-20.54-11.19-31.63-4.12-7.84 5-12.2 13.23-12.02 22.58.15 7.77 4.73 12.53 8.19 18.31z"/><path fill="#cac3c3" d="M289.99 100.21q13.35.52 27.05 3.28-4.24 2.81-4.48 6.77c-.43 7.09-2.67 29.49-13.06 29.67-10.64.18-11.66-11.32-10.76-18.93q1.46-12.36 1.25-20.79zM324.25 105.83q6.98.38 11.44 1.98 5.56 2 9.76 3.41-1.93 7.37-2.52 15.13c-.5 6.57-2.56 14.72-11.17 13.51-7.48-1.05-8.12-6.02-8.72-12.88q-.9-10.46 1.21-21.15zM203.25 117.77a.48.48 0 0 1 .12.87q-17.98 11.54-32.65 27.04a.38.38 0 0 1-.65-.29c.58-6.6 3.24-24.11 8.38-28.48a1.54 1.48 21.3 0 1 .87-.36c7.92-.5 16.17-1.2 23.93 1.22zM419.44 166.14q-.05.73-.53.17c-.82-.95-2.03-1.86-2.71-2.9q-8.69-13.42-21.02-25.08-1.24-1.17-1.15-2.94a.7.68 87 0 1 .57-.65q6.92-1.24 15.61-.88c6.5.26 8.55 3.44 9.09 9.72q.97 11.17.14 22.56z"/><path fill="#443b3c" d="M250.78 192.2c2.3 1.29 2.66 3.15 1.31 5.42q-5.98 10.01-18.22 7.09a.98.98 0 0 1-.64-.49q-1.39-2.49.55-4.41a1.06 1.05 22.7 0 1 .78-.32c5.41.14 11-.16 13-6.06a2.24 2.24 0 0 1 3.22-1.23zM325.93 200.92q1.73-1.15 3.83.62a1.82 1.75 11.4 0 1 .54.78q1.28 3.65 4.46 5.54c2.57 1.53 8.25-.04 9.59 2.98 1.22 2.76-1.57 4.41-3.94 4.47q-9.71.22-14.77-7.74c-1.16-1.81-1.92-5.19.29-6.65z"/><path fill="#cac3c3" d="M436.29 214.9c3.93 13.94 4.2 31.47 3.42 45.85-.39 7.2 2.48 17.28 2 25.1-1.16 18.98-12.36 38.43-30.51 46.58a.38.38 0 0 1-.51-.5q3.3-7.44 3.1-14.93c8.61-7.69 15.94-16.85 17.92-28.65.97-5.76.01-13.62.61-20.5.65-7.32 3.6-16.19 3.63-24.67q.09-20.49.34-28.28z"/><circle fill="#443b3c" cx="229.95" cy="229.99" r="14"/><circle fill="#443b3c" cx="343.09" cy="240.37" r="14"/><circle fill="#fed9d3" cx="178.66" cy="260.61" r="25.18"/><path fill="#443b3c" d="M273.24 261.95c-7.9-1.23-11.71-10.03-3.94-14.83a.69.68-39.1 0 1 .83.08l2.13 2a.65.65 0 0 1 .15.73l-1.6 3.64a.96.95-51.9 0 0 .11.95q1.51 2.02 4.59 1.7c5.02-.53 5.58-3.99 7.39-7.82a1.47 1.43-.4 0 1 .68-.67c2.95-1.43 4.03.62 4.35 3.25.88 7.22 12.21 10.95 9.6.04-.75-3.12 3.24-4.15 4.55-1.58 1.53 2.99 2.23 6.52.22 9.49-2.46 3.66-8 6.62-12.21 3.22-7.65-6.15-10 .87-16.85-.2z"/><path fill="#fed9d3" d="M410.22 278.21c-16.57-.13-28.96 7.34-41.87 15.39-3.46-5.78-8.04-10.54-8.19-18.31-.18-9.35 4.18-17.58 12.02-22.58 11.09-7.07 22.64-5.09 31.63 4.12q8.42 8.63 6.41 21.38z"/><path fill="#443b3c" d="m410.22 278.21 5.32 1.56q.55.17.66.73.38 1.9-.54 3.5-.28.49-.84.5c-4.35.01-9.05-.23-13.04.39-15.32 2.37-29.75 12.43-39.32 24.07a1.43 1.42-68.6 0 1-1.18.52q-2.81-.15-3.83-2.83a2.1 2.09 56.6 0 1 .45-2.21l10.45-10.84c12.91-8.05 25.3-15.52 41.87-15.39z"/><path fill="#fefcfe" d="M369.69 391.56q-5.45-4.01-6.69-10.98-5.57-31.38 12.6-55.51c6.8-9.04 13.29-12.35 24.39-10.32 11.84 2.16 3.7 15.72-.39 20.64-5.17 6.2-6.2 15.01-5.08 22.77q.29 2 1.21 2.87c1.66 1.56 4.93 1.51 5.58-1.33q.64-2.8.77-6.85a.28.28 0 0 1 .54-.1c4.31 9.98 5.36 20.95-.44 30.92-6.49 11.15-21.48 15.99-32.49 7.89z"/><path fill="#cac3c3" d="M92.15 391.55a.15.15 0 0 1-.15-.15l.03-.92a5.25.83-88.1 0 1 1-5.22l.2.01a5.25.83-88.1 0 1 .66 5.27l-.03.92a.15.15 0 0 1-.16.14l-1.55-.05zM83.8 385.77a.29.29 0 0 1 .56.04l1.13 9.23q.15 1.22-.45.15-2.51-4.48-1.24-9.42z"/><path fill="#f8cb87" d="M86.8 403.83q20.89 9.76 42.54 3.12c9.69-2.97 19.82-3.75 29.91-4.21 40.33-1.85 81.53-1.16 122.31-1.97q30.75-.61 61.5-.06 11.16.2 20.19 2.53c13.74 3.53 24.51 7.44 36.8.36 4.1-2.36 5.92-6.97 11.1-7.52 6.53-.71 12.82-2.48 19.17-3.11q4.61-.46 9.26-1.14 15.93-.76 32.17.06c-.37 18.51-2.61 35.73-9.34 52.78-13.61 34.48-60.88 40.94-92.84 43.28q-43.38 3.18-86.88 3.46-69.19.44-113.44-1.74-37.36-1.83-70.75-10.89c-44.75-12.15-52.63-45.7-55.28-86.27q0-.18.02-.35.05-.36.41-.36 13.52-.34 27.03-.48 2.69-.03 4.9 1.29a1.64 1.57-87.5 0 1 .65.74c2.46 5.76 3.91 9.13 10.57 10.48z"/><path fill="#b7996f" d="M439.58 391.83q-4.65.68-9.26 1.14c-6.35.63-12.64 2.4-19.17 3.11-5.18.55-7 5.16-11.1 7.52-12.29 7.08-23.06 3.17-36.8-.36q-9.03-2.33-20.19-2.53-30.75-.55-61.5.06c-40.78.81-81.98.12-122.31 1.97-10.09.46-20.22 1.24-29.91 4.21q-21.65 6.64-42.54-3.12 2.86-1.36 5.2-1.05c9.91 1.32 17.4 1.28 27.93-.33 17.11-2.6 34.19-4.31 50.71-9.83 2.96-.99 6.99-1.11 10.13-1.11q83.49-.02 166.98.1c5.97.01 10.51-.39 15.36 3.67 8.31 6.94 17.88 10.08 28.4 6.25 4.49-1.64 8.72-4.95 12.91-7.98 5.06-3.65 15.4-1.51 20.74-1.6q7.16-.12 14.42-.12z"/></svg>